<svg width="298" height="295" viewBox="0 0 298 295" fill="none" xmlns="http://www.w3.org/2000/svg">
<rect x="1" y="1" width="296" height="293" rx="15" fill="#FBFBFB"/>
<rect x="1" y="1" width="296" height="293" rx="15" stroke="#F3F3F3" stroke-width="2"/>
<path d="M47.588 65.28C46.0387 65.28 44.7227 65 43.64 64.44C42.5573 63.88 41.5867 63.0587 40.728 61.976L42.912 59.792C43.4533 60.576 44.0973 61.192 44.844 61.64C45.5907 62.0693 46.5427 62.284 47.7 62.284C48.7827 62.284 49.6413 62.06 50.276 61.612C50.9293 61.164 51.256 60.548 51.256 59.764C51.256 59.1107 51.088 58.5787 50.752 58.168C50.416 57.7573 49.968 57.4213 49.408 57.16C48.8667 56.88 48.26 56.6373 47.588 56.432C46.9347 56.208 46.272 55.9653 45.6 55.704C44.9467 55.424 44.34 55.0787 43.78 54.668C43.2387 54.2573 42.8 53.7253 42.464 53.072C42.128 52.4187 41.96 51.588 41.96 50.58C41.96 49.4227 42.24 48.4427 42.8 47.64C43.3787 46.8187 44.1533 46.1933 45.124 45.764C46.0947 45.3347 47.1773 45.12 48.372 45.12C49.66 45.12 50.808 45.372 51.816 45.876C52.8427 46.38 53.6733 47.024 54.308 47.808L52.124 49.992C51.564 49.3573 50.976 48.8907 50.36 48.592C49.7627 48.2747 49.072 48.116 48.288 48.116C47.3173 48.116 46.552 48.312 45.992 48.704C45.4507 49.096 45.18 49.6467 45.18 50.356C45.18 50.9533 45.348 51.4387 45.684 51.812C46.02 52.1667 46.4587 52.4747 47 52.736C47.56 52.9787 48.1667 53.212 48.82 53.436C49.492 53.66 50.1547 53.912 50.808 54.192C51.48 54.472 52.0867 54.836 52.628 55.284C53.188 55.7133 53.636 56.2733 53.972 56.964C54.308 57.6547 54.476 58.5227 54.476 59.568C54.476 61.3227 53.8507 62.7133 52.6 63.74C51.368 64.7667 49.6973 65.28 47.588 65.28ZM63.3465 65.28C62.0025 65.28 60.7892 64.9813 59.7065 64.384C58.6425 63.768 57.7932 62.928 57.1585 61.864C56.5425 60.8 56.2345 59.6053 56.2345 58.28C56.2345 56.9547 56.5425 55.7693 57.1585 54.724C57.7745 53.66 58.6052 52.82 59.6505 52.204C60.7145 51.588 61.8905 51.28 63.1785 51.28C64.4292 51.28 65.5305 51.5693 66.4825 52.148C67.4532 52.7267 68.2092 53.52 68.7505 54.528C69.3105 55.536 69.5905 56.684 69.5905 57.972C69.5905 58.196 69.5719 58.4293 69.5345 58.672C69.5159 58.896 69.4785 59.148 69.4225 59.428H58.3905V56.908H67.8265L66.6785 57.916C66.6412 57.0947 66.4825 56.404 66.2025 55.844C65.9225 55.284 65.5212 54.8547 64.9985 54.556C64.4945 54.2573 63.8692 54.108 63.1225 54.108C62.3385 54.108 61.6572 54.276 61.0785 54.612C60.4999 54.948 60.0519 55.424 59.7345 56.04C59.4172 56.6373 59.2585 57.356 59.2585 58.196C59.2585 59.036 59.4265 59.7733 59.7625 60.408C60.0985 61.0427 60.5745 61.5373 61.1905 61.892C61.8065 62.228 62.5159 62.396 63.3185 62.396C64.0092 62.396 64.6439 62.2747 65.2225 62.032C65.8199 61.7893 66.3239 61.4347 66.7345 60.968L68.6945 62.956C68.0412 63.7213 67.2479 64.3 66.3145 64.692C65.3812 65.084 64.3919 65.28 63.3465 65.28ZM73.7481 65V45.96H76.8281V65H73.7481ZM70.5281 54.36V51.56H80.0481V54.36H70.5281ZM95.8716 65.28C94.3969 65.28 93.0716 64.944 91.8956 64.272C90.7196 63.6 89.7863 62.6853 89.0956 61.528C88.4236 60.352 88.0876 59.0267 88.0876 57.552V45.4H91.3076V57.524C91.3076 58.476 91.5036 59.3067 91.8956 60.016C92.3063 60.7067 92.8569 61.248 93.5476 61.64C94.2383 62.0133 95.0129 62.2 95.8716 62.2C96.7489 62.2 97.5236 62.0133 98.1956 61.64C98.8676 61.248 99.3996 60.7067 99.7916 60.016C100.184 59.3067 100.38 58.4853 100.38 57.552V45.4H103.6V57.58C103.6 59.0547 103.264 60.3707 102.592 61.528C101.92 62.6853 101.005 63.6 99.8476 64.272C98.6903 64.944 97.3649 65.28 95.8716 65.28ZM114.42 65.28C113.393 65.28 112.478 65.0653 111.676 64.636C110.873 64.188 110.238 63.5813 109.772 62.816C109.324 62.0507 109.1 61.1827 109.1 60.212V56.348C109.1 55.3773 109.333 54.5093 109.8 53.744C110.266 52.9787 110.901 52.3813 111.704 51.952C112.506 51.504 113.412 51.28 114.42 51.28C115.633 51.28 116.725 51.5973 117.696 52.232C118.685 52.848 119.46 53.688 120.02 54.752C120.598 55.7973 120.888 56.9827 120.888 58.308C120.888 59.6147 120.598 60.8 120.02 61.864C119.46 62.9093 118.685 63.74 117.696 64.356C116.725 64.972 115.633 65.28 114.42 65.28ZM107.224 70.6V51.56H110.304V55.172L109.772 58.448L110.304 61.696V70.6H107.224ZM113.916 62.368C114.662 62.368 115.316 62.2 115.876 61.864C116.454 61.5093 116.902 61.024 117.22 60.408C117.556 59.792 117.724 59.0827 117.724 58.28C117.724 57.4773 117.556 56.768 117.22 56.152C116.902 55.536 116.454 55.06 115.876 54.724C115.316 54.3693 114.662 54.192 113.916 54.192C113.169 54.192 112.506 54.3693 111.928 54.724C111.349 55.06 110.901 55.536 110.584 56.152C110.266 56.768 110.108 57.4773 110.108 58.28C110.108 59.0827 110.266 59.792 110.584 60.408C110.901 61.024 111.349 61.5093 111.928 61.864C112.506 62.2 113.169 62.368 113.916 62.368Z" fill="#101010"/>
<path d="M188 0H298V110H288C232.772 110 188 65.2285 188 10V0Z" fill="#F7B501"/>
<path d="M254.632 65V28.6H260.508V65H254.632ZM247.352 33.956V28.6H259.988V33.956H247.352Z" fill="#101010"/>
<path d="M44.448 132.16C43.5947 132.16 42.8587 132 42.24 131.68C41.6213 131.349 41.0773 130.891 40.608 130.304L41.424 129.504C41.7973 130.027 42.2293 130.416 42.72 130.672C43.2213 130.928 43.8133 131.056 44.496 131.056C45.2 131.056 45.7707 130.896 46.208 130.576C46.6453 130.256 46.864 129.813 46.864 129.248C46.864 128.811 46.7627 128.453 46.56 128.176C46.3573 127.888 46.0907 127.659 45.76 127.488C45.44 127.307 45.0827 127.147 44.688 127.008C44.2933 126.869 43.8987 126.725 43.504 126.576C43.12 126.416 42.7627 126.219 42.432 125.984C42.1013 125.749 41.8347 125.451 41.632 125.088C41.44 124.725 41.344 124.261 41.344 123.696C41.344 123.099 41.488 122.587 41.776 122.16C42.064 121.733 42.4587 121.408 42.96 121.184C43.4613 120.949 44.032 120.832 44.672 120.832C45.3867 120.832 46.0213 120.971 46.576 121.248C47.1413 121.525 47.6107 121.899 47.984 122.368L47.184 123.168C46.8427 122.763 46.4693 122.453 46.064 122.24C45.6587 122.027 45.184 121.92 44.64 121.92C44 121.92 43.488 122.069 43.104 122.368C42.72 122.667 42.528 123.083 42.528 123.616C42.528 124.032 42.624 124.368 42.816 124.624C43.0187 124.88 43.2853 125.093 43.616 125.264C43.9467 125.435 44.304 125.589 44.688 125.728C45.0827 125.856 45.4773 126 45.872 126.16C46.2667 126.32 46.624 126.523 46.944 126.768C47.2747 127.013 47.5413 127.328 47.744 127.712C47.9467 128.085 48.048 128.565 48.048 129.152C48.048 130.101 47.7227 130.843 47.072 131.376C46.432 131.899 45.5573 132.16 44.448 132.16ZM49.9954 132V124.48H51.1314V132H49.9954ZM50.5554 122.848C50.342 122.848 50.1607 122.773 50.0114 122.624C49.862 122.464 49.7874 122.277 49.7874 122.064C49.7874 121.84 49.862 121.653 50.0114 121.504C50.1607 121.355 50.342 121.28 50.5554 121.28C50.79 121.28 50.9767 121.355 51.1154 121.504C51.2647 121.653 51.3394 121.84 51.3394 122.064C51.3394 122.277 51.2647 122.464 51.1154 122.624C50.9767 122.773 50.79 122.848 50.5554 122.848ZM56.5056 135.328C55.7483 135.328 55.071 135.184 54.4736 134.896C53.887 134.619 53.4123 134.224 53.0496 133.712L53.7856 132.976C54.0843 133.381 54.463 133.696 54.9216 133.92C55.3803 134.144 55.919 134.256 56.5376 134.256C57.391 134.256 58.0683 134.027 58.5696 133.568C59.0816 133.109 59.3376 132.485 59.3376 131.696V129.824L59.5616 128.112L59.3376 126.416V124.48H60.4576V131.696C60.4576 132.421 60.2923 133.056 59.9616 133.6C59.631 134.144 59.167 134.565 58.5696 134.864C57.983 135.173 57.295 135.328 56.5056 135.328ZM56.5856 131.92C55.8923 131.92 55.2683 131.755 54.7136 131.424C54.159 131.093 53.7216 130.64 53.4016 130.064C53.0816 129.488 52.9216 128.837 52.9216 128.112C52.9216 127.387 53.0763 126.741 53.3856 126.176C53.7056 125.6 54.143 125.147 54.6976 124.816C55.2523 124.485 55.8763 124.32 56.5696 124.32C57.1563 124.32 57.679 124.432 58.1376 124.656C58.607 124.88 58.9803 125.2 59.2576 125.616C59.5456 126.021 59.7216 126.501 59.7856 127.056V129.184C59.7216 129.728 59.5456 130.208 59.2576 130.624C58.9696 131.029 58.5963 131.349 58.1376 131.584C57.679 131.808 57.1616 131.92 56.5856 131.92ZM56.7936 130.848C57.3163 130.848 57.7696 130.736 58.1536 130.512C58.5483 130.288 58.8523 129.973 59.0656 129.568C59.2896 129.152 59.4016 128.667 59.4016 128.112C59.4016 127.568 59.2896 127.093 59.0656 126.688C58.8523 126.283 58.5483 125.963 58.1536 125.728C57.759 125.493 57.3003 125.376 56.7776 125.376C56.255 125.376 55.7856 125.493 55.3696 125.728C54.9643 125.963 54.6443 126.283 54.4096 126.688C54.1856 127.093 54.0736 127.568 54.0736 128.112C54.0736 128.645 54.191 129.12 54.4256 129.536C54.6603 129.952 54.9803 130.277 55.3856 130.512C55.791 130.736 56.2603 130.848 56.7936 130.848ZM68.1861 132V127.584C68.1861 126.923 67.9888 126.389 67.5941 125.984C67.2101 125.568 66.6981 125.36 66.0581 125.36C65.6208 125.36 65.2368 125.456 64.9061 125.648C64.5755 125.84 64.3141 126.101 64.1221 126.432C63.9301 126.763 63.8341 127.141 63.8341 127.568L63.3221 127.28C63.3221 126.715 63.4555 126.208 63.7221 125.76C63.9888 125.312 64.3461 124.96 64.7941 124.704C65.2528 124.448 65.7755 124.32 66.3621 124.32C66.9381 124.32 67.4501 124.459 67.8981 124.736C68.3461 125.013 68.6928 125.387 68.9381 125.856C69.1941 126.325 69.3221 126.837 69.3221 127.392V132H68.1861ZM62.7141 132V124.48H63.8341V132H62.7141ZM77.8307 132.16C77.2228 132.16 76.6788 132.021 76.1988 131.744C75.7188 131.456 75.3401 131.067 75.0628 130.576C74.7961 130.085 74.6628 129.509 74.6628 128.848V124.48H75.7988V128.8C75.7988 129.259 75.8788 129.659 76.0388 130C76.2094 130.341 76.4494 130.608 76.7588 130.8C77.0681 130.992 77.4254 131.088 77.8307 131.088C78.4601 131.088 78.9561 130.88 79.3188 130.464C79.6921 130.048 79.8788 129.493 79.8788 128.8V124.48H80.9988V128.848C80.9988 129.499 80.8654 130.075 80.5988 130.576C80.3321 131.077 79.9588 131.467 79.4788 131.744C78.9988 132.021 78.4494 132.16 77.8307 132.16ZM86.9771 132.16C86.4011 132.16 85.8838 132.043 85.4251 131.808C84.9665 131.573 84.5878 131.253 84.2891 130.848C84.0011 130.432 83.8251 129.952 83.7611 129.408V127.056C83.8251 126.501 84.0065 126.021 84.3051 125.616C84.6038 125.2 84.9825 124.88 85.4411 124.656C85.9105 124.432 86.4225 124.32 86.9771 124.32C87.6705 124.32 88.2945 124.496 88.8491 124.848C89.4038 125.189 89.8411 125.659 90.1611 126.256C90.4918 126.843 90.6571 127.509 90.6571 128.256C90.6571 128.992 90.4971 129.653 90.1771 130.24C89.8571 130.827 89.4145 131.296 88.8491 131.648C88.2945 131.989 87.6705 132.16 86.9771 132.16ZM83.0891 135.168V124.48H84.2091V126.4L83.9851 128.224L84.2091 130.064V135.168H83.0891ZM86.7851 131.088C87.3185 131.088 87.7878 130.971 88.1931 130.736C88.5985 130.491 88.9131 130.155 89.1371 129.728C89.3718 129.291 89.4891 128.795 89.4891 128.24C89.4891 127.675 89.3718 127.179 89.1371 126.752C88.9131 126.325 88.5985 125.989 88.1931 125.744C87.7878 125.499 87.3238 125.376 86.8011 125.376C86.2785 125.376 85.8145 125.499 85.4091 125.744C85.0145 125.989 84.7051 126.325 84.4811 126.752C84.2571 127.179 84.1451 127.675 84.1451 128.24C84.1451 128.795 84.2571 129.291 84.4811 129.728C84.7051 130.155 85.0145 130.491 85.4091 130.736C85.8038 130.971 86.2625 131.088 86.7851 131.088ZM92.2491 133.648L93.1611 131.872L93.5611 131.776C93.5185 131.872 93.4598 131.952 93.3851 132.016C93.3105 132.091 93.2198 132.128 93.1131 132.128C92.9105 132.128 92.7238 132.048 92.5531 131.888C92.3931 131.717 92.3131 131.509 92.3131 131.264C92.3131 131.008 92.4038 130.789 92.5851 130.608C92.7665 130.416 92.9851 130.32 93.2411 130.32C93.4865 130.32 93.6998 130.416 93.8811 130.608C94.0731 130.789 94.1691 131.008 94.1691 131.264C94.1691 131.371 94.1478 131.499 94.1051 131.648C94.0731 131.787 93.9985 131.973 93.8811 132.208L92.9211 134.016L92.2491 133.648ZM103.341 132.16C102.605 132.16 101.939 131.989 101.341 131.648C100.755 131.296 100.285 130.821 99.9333 130.224C99.5919 129.627 99.4213 128.96 99.4213 128.224C99.4213 127.488 99.5919 126.827 99.9333 126.24C100.285 125.643 100.755 125.173 101.341 124.832C101.939 124.491 102.605 124.32 103.341 124.32C103.907 124.32 104.435 124.427 104.925 124.64C105.416 124.853 105.832 125.152 106.173 125.536L105.437 126.288C105.181 126 104.872 125.781 104.509 125.632C104.147 125.472 103.757 125.392 103.341 125.392C102.808 125.392 102.333 125.515 101.917 125.76C101.501 126.005 101.176 126.341 100.941 126.768C100.707 127.184 100.589 127.669 100.589 128.224C100.589 128.768 100.707 129.259 100.941 129.696C101.176 130.123 101.501 130.459 101.917 130.704C102.333 130.949 102.808 131.072 103.341 131.072C103.768 131.072 104.163 130.997 104.525 130.848C104.888 130.688 105.197 130.464 105.453 130.176L106.205 130.928C105.853 131.323 105.427 131.627 104.925 131.84C104.435 132.053 103.907 132.16 103.341 132.16ZM110.753 132.16C110.145 132.16 109.601 132.021 109.121 131.744C108.641 131.456 108.262 131.067 107.985 130.576C107.718 130.085 107.585 129.509 107.585 128.848V124.48H108.721V128.8C108.721 129.259 108.801 129.659 108.961 130C109.131 130.341 109.371 130.608 109.681 130.8C109.99 130.992 110.347 131.088 110.753 131.088C111.382 131.088 111.878 130.88 112.241 130.464C112.614 130.048 112.801 129.493 112.801 128.8V124.48H113.921V128.848C113.921 129.499 113.787 130.075 113.521 130.576C113.254 131.077 112.881 131.467 112.401 131.744C111.921 132.021 111.371 132.16 110.753 132.16ZM118.315 132.16C117.91 132.16 117.52 132.107 117.147 132C116.774 131.883 116.432 131.723 116.123 131.52C115.824 131.317 115.563 131.077 115.339 130.8L116.059 130.064C116.358 130.427 116.694 130.699 117.067 130.88C117.451 131.051 117.878 131.136 118.347 131.136C118.848 131.136 119.238 131.04 119.515 130.848C119.803 130.656 119.947 130.389 119.947 130.048C119.947 129.728 119.846 129.477 119.643 129.296C119.44 129.115 119.179 128.971 118.859 128.864C118.55 128.757 118.219 128.656 117.867 128.56C117.515 128.453 117.179 128.325 116.859 128.176C116.539 128.016 116.278 127.797 116.075 127.52C115.883 127.243 115.787 126.88 115.787 126.432C115.787 126.005 115.888 125.637 116.091 125.328C116.304 125.008 116.603 124.763 116.987 124.592C117.382 124.411 117.846 124.32 118.379 124.32C118.944 124.32 119.456 124.421 119.915 124.624C120.374 124.827 120.742 125.125 121.019 125.52L120.299 126.24C120.075 125.952 119.792 125.733 119.451 125.584C119.12 125.424 118.747 125.344 118.331 125.344C117.851 125.344 117.483 125.44 117.227 125.632C116.982 125.813 116.859 126.053 116.859 126.352C116.859 126.64 116.96 126.869 117.163 127.04C117.366 127.2 117.622 127.333 117.931 127.44C118.251 127.536 118.587 127.637 118.939 127.744C119.291 127.84 119.627 127.973 119.947 128.144C120.267 128.304 120.523 128.528 120.715 128.816C120.918 129.093 121.019 129.472 121.019 129.952C121.019 130.624 120.774 131.163 120.283 131.568C119.803 131.963 119.147 132.16 118.315 132.16ZM123.96 132V121.312H125.08V132H123.96ZM122.056 125.488V124.48H126.968V125.488H122.056ZM131.653 132.16C130.928 132.16 130.267 131.984 129.669 131.632C129.083 131.28 128.613 130.805 128.261 130.208C127.92 129.611 127.749 128.944 127.749 128.208C127.749 127.483 127.92 126.827 128.261 126.24C128.613 125.653 129.083 125.189 129.669 124.848C130.267 124.496 130.928 124.32 131.653 124.32C132.389 124.32 133.051 124.491 133.637 124.832C134.224 125.173 134.688 125.643 135.029 126.24C135.381 126.827 135.557 127.483 135.557 128.208C135.557 128.955 135.381 129.627 135.029 130.224C134.688 130.811 134.224 131.28 133.637 131.632C133.051 131.984 132.389 132.16 131.653 132.16ZM131.653 131.072C132.187 131.072 132.656 130.949 133.061 130.704C133.477 130.459 133.803 130.117 134.037 129.68C134.283 129.243 134.405 128.752 134.405 128.208C134.405 127.664 134.283 127.184 134.037 126.768C133.803 126.341 133.477 126.005 133.061 125.76C132.656 125.515 132.187 125.392 131.653 125.392C131.131 125.392 130.661 125.515 130.245 125.76C129.829 126.005 129.504 126.341 129.269 126.768C129.035 127.184 128.917 127.664 128.917 128.208C128.917 128.763 129.035 129.259 129.269 129.696C129.504 130.123 129.829 130.459 130.245 130.704C130.661 130.949 131.131 131.072 131.653 131.072ZM137.339 132V124.48H138.459V132H137.339ZM142.507 132V127.392C142.507 126.773 142.32 126.283 141.947 125.92C141.574 125.547 141.104 125.36 140.539 125.36C140.155 125.36 139.803 125.445 139.483 125.616C139.174 125.776 138.923 126.005 138.731 126.304C138.55 126.603 138.459 126.96 138.459 127.376L137.947 127.168C137.947 126.592 138.075 126.091 138.331 125.664C138.587 125.237 138.928 124.907 139.355 124.672C139.792 124.437 140.283 124.32 140.827 124.32C141.36 124.32 141.835 124.437 142.251 124.672C142.678 124.907 143.014 125.237 143.259 125.664C143.515 126.091 143.643 126.597 143.643 127.184V132H142.507ZM147.691 132V127.392C147.691 126.773 147.504 126.283 147.131 125.92C146.758 125.547 146.283 125.36 145.707 125.36C145.334 125.36 144.987 125.445 144.667 125.616C144.358 125.776 144.107 126.005 143.915 126.304C143.734 126.603 143.643 126.96 143.643 127.376L142.971 127.168C143.003 126.592 143.152 126.091 143.419 125.664C143.696 125.237 144.054 124.907 144.491 124.672C144.939 124.437 145.43 124.32 145.963 124.32C146.496 124.32 146.976 124.437 147.403 124.672C147.84 124.907 148.182 125.237 148.427 125.664C148.683 126.091 148.811 126.597 148.811 127.184V132H147.691ZM150.917 132V124.48H152.053V132H150.917ZM151.477 122.848C151.264 122.848 151.083 122.773 150.933 122.624C150.784 122.464 150.709 122.277 150.709 122.064C150.709 121.84 150.784 121.653 150.933 121.504C151.083 121.355 151.264 121.28 151.477 121.28C151.712 121.28 151.899 121.355 152.037 121.504C152.187 121.653 152.261 121.84 152.261 122.064C152.261 122.277 152.187 122.464 152.037 122.624C151.899 122.773 151.712 122.848 151.477 122.848ZM153.668 131.376L158.42 125.088H159.748L154.996 131.376H153.668ZM153.668 132V131.376L154.644 130.976H159.652V132H153.668ZM153.94 125.488V124.48H159.748V125.088L158.692 125.488H153.94ZM164.717 132.16C163.96 132.16 163.283 131.989 162.685 131.648C162.088 131.307 161.613 130.837 161.261 130.24C160.92 129.643 160.749 128.971 160.749 128.224C160.749 127.488 160.92 126.827 161.261 126.24C161.603 125.643 162.067 125.173 162.653 124.832C163.24 124.491 163.896 124.32 164.621 124.32C165.304 124.32 165.907 124.475 166.429 124.784C166.963 125.093 167.379 125.525 167.677 126.08C167.987 126.624 168.141 127.253 168.141 127.968C168.141 128.053 168.136 128.155 168.125 128.272C168.115 128.379 168.093 128.507 168.061 128.656H161.549V127.696H167.453L167.053 128.048C167.064 127.493 166.968 127.019 166.765 126.624C166.573 126.219 166.291 125.909 165.917 125.696C165.555 125.472 165.112 125.36 164.589 125.36C164.045 125.36 163.571 125.477 163.165 125.712C162.76 125.947 162.44 126.277 162.205 126.704C161.981 127.12 161.869 127.616 161.869 128.192C161.869 128.768 161.987 129.275 162.221 129.712C162.467 130.149 162.803 130.491 163.229 130.736C163.667 130.981 164.168 131.104 164.733 131.104C165.192 131.104 165.613 131.024 165.997 130.864C166.381 130.693 166.707 130.443 166.973 130.112L167.693 130.848C167.341 131.264 166.904 131.589 166.381 131.824C165.869 132.048 165.315 132.16 164.717 132.16ZM175.804 132.032L172.508 124.48H173.74L176.396 130.784H175.932L178.732 124.48H179.98L176.444 132.032H175.804ZM173.756 135.168L175.82 130.896L176.444 132.032L174.988 135.168H173.756ZM184.388 132.16C183.662 132.16 183.001 131.984 182.404 131.632C181.817 131.28 181.348 130.805 180.996 130.208C180.654 129.611 180.484 128.944 180.484 128.208C180.484 127.483 180.654 126.827 180.996 126.24C181.348 125.653 181.817 125.189 182.404 124.848C183.001 124.496 183.662 124.32 184.388 124.32C185.124 124.32 185.785 124.491 186.372 124.832C186.958 125.173 187.422 125.643 187.764 126.24C188.116 126.827 188.292 127.483 188.292 128.208C188.292 128.955 188.116 129.627 187.764 130.224C187.422 130.811 186.958 131.28 186.372 131.632C185.785 131.984 185.124 132.16 184.388 132.16ZM184.388 131.072C184.921 131.072 185.39 130.949 185.796 130.704C186.212 130.459 186.537 130.117 186.772 129.68C187.017 129.243 187.14 128.752 187.14 128.208C187.14 127.664 187.017 127.184 186.772 126.768C186.537 126.341 186.212 126.005 185.796 125.76C185.39 125.515 184.921 125.392 184.388 125.392C183.865 125.392 183.396 125.515 182.98 125.76C182.564 126.005 182.238 126.341 182.004 126.768C181.769 127.184 181.652 127.664 181.652 128.208C181.652 128.763 181.769 129.259 182.004 129.696C182.238 130.123 182.564 130.459 182.98 130.704C183.396 130.949 183.865 131.072 184.388 131.072ZM193.049 132.16C192.442 132.16 191.898 132.021 191.418 131.744C190.938 131.456 190.559 131.067 190.282 130.576C190.015 130.085 189.882 129.509 189.882 128.848V124.48H191.018V128.8C191.018 129.259 191.098 129.659 191.258 130C191.428 130.341 191.668 130.608 191.978 130.8C192.287 130.992 192.644 131.088 193.049 131.088C193.679 131.088 194.175 130.88 194.538 130.464C194.911 130.048 195.098 129.493 195.098 128.8V124.48H196.218V128.848C196.218 129.499 196.084 130.075 195.818 130.576C195.551 131.077 195.178 131.467 194.698 131.744C194.218 132.021 193.668 132.16 193.049 132.16ZM198.308 132V124.48H199.428V132H198.308ZM199.428 127.616L198.964 127.408C198.964 126.459 199.193 125.707 199.652 125.152C200.121 124.597 200.761 124.32 201.572 124.32C201.945 124.32 202.287 124.389 202.596 124.528C202.905 124.656 203.193 124.864 203.46 125.152L202.724 125.936C202.543 125.733 202.34 125.589 202.116 125.504C201.903 125.419 201.657 125.376 201.38 125.376C200.804 125.376 200.335 125.568 199.972 125.952C199.609 126.325 199.428 126.88 199.428 127.616ZM212.258 132.16C211.682 132.16 211.165 132.043 210.706 131.808C210.248 131.573 209.869 131.253 209.57 130.848C209.282 130.432 209.106 129.952 209.042 129.408V127.056C209.106 126.501 209.288 126.021 209.586 125.616C209.885 125.2 210.264 124.88 210.722 124.656C211.192 124.432 211.704 124.32 212.258 124.32C212.952 124.32 213.576 124.496 214.13 124.848C214.685 125.189 215.122 125.659 215.442 126.256C215.773 126.843 215.938 127.509 215.938 128.256C215.938 128.992 215.778 129.653 215.458 130.24C215.138 130.827 214.696 131.296 214.13 131.648C213.576 131.989 212.952 132.16 212.258 132.16ZM208.37 135.168V124.48H209.49V126.4L209.266 128.224L209.49 130.064V135.168H208.37ZM212.066 131.088C212.6 131.088 213.069 130.971 213.474 130.736C213.88 130.491 214.194 130.155 214.418 129.728C214.653 129.291 214.77 128.795 214.77 128.24C214.77 127.675 214.653 127.179 214.418 126.752C214.194 126.325 213.88 125.989 213.474 125.744C213.069 125.499 212.605 125.376 212.082 125.376C211.56 125.376 211.096 125.499 210.69 125.744C210.296 125.989 209.986 126.325 209.762 126.752C209.538 127.179 209.426 127.675 209.426 128.24C209.426 128.795 209.538 129.291 209.762 129.728C209.986 130.155 210.296 130.491 210.69 130.736C211.085 130.971 211.544 131.088 212.066 131.088ZM217.73 132V124.48H218.85V132H217.73ZM218.85 127.616L218.386 127.408C218.386 126.459 218.615 125.707 219.074 125.152C219.543 124.597 220.183 124.32 220.994 124.32C221.367 124.32 221.708 124.389 222.018 124.528C222.327 124.656 222.615 124.864 222.882 125.152L222.146 125.936C221.964 125.733 221.762 125.589 221.538 125.504C221.324 125.419 221.079 125.376 220.802 125.376C220.226 125.376 219.756 125.568 219.394 125.952C219.031 126.325 218.85 126.88 218.85 127.616ZM227.216 132.16C226.491 132.16 225.829 131.984 225.232 131.632C224.645 131.28 224.176 130.805 223.824 130.208C223.483 129.611 223.312 128.944 223.312 128.208C223.312 127.483 223.483 126.827 223.824 126.24C224.176 125.653 224.645 125.189 225.232 124.848C225.829 124.496 226.491 124.32 227.216 124.32C227.952 124.32 228.613 124.491 229.2 124.832C229.787 125.173 230.251 125.643 230.592 126.24C230.944 126.827 231.12 127.483 231.12 128.208C231.12 128.955 230.944 129.627 230.592 130.224C230.251 130.811 229.787 131.28 229.2 131.632C228.613 131.984 227.952 132.16 227.216 132.16ZM227.216 131.072C227.749 131.072 228.219 130.949 228.624 130.704C229.04 130.459 229.365 130.117 229.6 129.68C229.845 129.243 229.968 128.752 229.968 128.208C229.968 127.664 229.845 127.184 229.6 126.768C229.365 126.341 229.04 126.005 228.624 125.76C228.219 125.515 227.749 125.392 227.216 125.392C226.693 125.392 226.224 125.515 225.808 125.76C225.392 126.005 225.067 126.341 224.832 126.768C224.597 127.184 224.48 127.664 224.48 128.208C224.48 128.763 224.597 129.259 224.832 129.696C225.067 130.123 225.392 130.459 225.808 130.704C226.224 130.949 226.693 131.072 227.216 131.072ZM233.74 132V123.04C233.74 122.549 233.847 122.117 234.06 121.744C234.273 121.36 234.567 121.061 234.94 120.848C235.324 120.624 235.767 120.512 236.268 120.512C236.641 120.512 236.972 120.576 237.26 120.704C237.559 120.832 237.831 121.013 238.076 121.248L237.324 122C237.175 121.851 237.009 121.744 236.828 121.68C236.657 121.605 236.465 121.568 236.252 121.568C235.815 121.568 235.473 121.707 235.228 121.984C234.993 122.251 234.876 122.613 234.876 123.072V132H233.74ZM231.852 125.488V124.48H238.78V125.488H231.852ZM238.156 132V124.48H239.292V132H238.156ZM238.716 123.552C238.492 123.552 238.305 123.477 238.156 123.328C238.017 123.168 237.948 122.981 237.948 122.768C237.948 122.544 238.017 122.357 238.156 122.208C238.305 122.059 238.492 121.984 238.716 121.984C238.94 121.984 239.127 122.059 239.276 122.208C239.425 122.357 239.5 122.544 239.5 122.768C239.5 122.981 239.425 123.168 239.276 123.328C239.127 123.477 238.94 123.552 238.716 123.552ZM241.558 132V120.672H242.678V132H241.558ZM248.421 132.16C247.663 132.16 246.986 131.989 246.389 131.648C245.791 131.307 245.317 130.837 244.965 130.24C244.623 129.643 244.453 128.971 244.453 128.224C244.453 127.488 244.623 126.827 244.965 126.24C245.306 125.643 245.77 125.173 246.357 124.832C246.943 124.491 247.599 124.32 248.325 124.32C249.007 124.32 249.61 124.475 250.133 124.784C250.666 125.093 251.082 125.525 251.381 126.08C251.69 126.624 251.845 127.253 251.845 127.968C251.845 128.053 251.839 128.155 251.829 128.272C251.818 128.379 251.797 128.507 251.765 128.656H245.253V127.696H251.157L250.757 128.048C250.767 127.493 250.671 127.019 250.469 126.624C250.277 126.219 249.994 125.909 249.621 125.696C249.258 125.472 248.815 125.36 248.293 125.36C247.749 125.36 247.274 125.477 246.869 125.712C246.463 125.947 246.143 126.277 245.909 126.704C245.685 127.12 245.573 127.616 245.573 128.192C245.573 128.768 245.69 129.275 245.924 129.712C246.17 130.149 246.506 130.491 246.933 130.736C247.37 130.981 247.871 131.104 248.437 131.104C248.895 131.104 249.317 131.024 249.701 130.864C250.085 130.693 250.41 130.443 250.677 130.112L251.397 130.848C251.045 131.264 250.607 131.589 250.085 131.824C249.573 132.048 249.018 132.16 248.421 132.16ZM253.718 133.648L254.63 131.872L255.03 131.776C254.987 131.872 254.929 131.952 254.854 132.016C254.779 132.091 254.689 132.128 254.582 132.128C254.379 132.128 254.193 132.048 254.022 131.888C253.862 131.717 253.782 131.509 253.782 131.264C253.782 131.008 253.873 130.789 254.054 130.608C254.235 130.416 254.454 130.32 254.71 130.32C254.955 130.32 255.169 130.416 255.35 130.608C255.542 130.789 255.638 131.008 255.638 131.264C255.638 131.371 255.617 131.499 255.574 131.648C255.542 131.787 255.467 131.973 255.35 132.208L254.39 134.016L253.718 133.648ZM264.65 132.16C263.935 132.16 263.295 131.989 262.73 131.648C262.165 131.296 261.717 130.827 261.386 130.24C261.066 129.653 260.906 128.992 260.906 128.256C260.906 127.509 261.066 126.843 261.386 126.256C261.717 125.659 262.165 125.189 262.73 124.848C263.295 124.496 263.93 124.32 264.634 124.32C265.21 124.32 265.722 124.437 266.17 124.672C266.629 124.896 266.997 125.216 267.274 125.632C267.562 126.037 267.738 126.512 267.802 127.056V129.408C267.738 129.952 267.562 130.432 267.274 130.848C266.997 131.264 266.629 131.589 266.17 131.824C265.722 132.048 265.215 132.16 264.65 132.16ZM264.826 131.088C265.605 131.088 266.229 130.827 266.698 130.304C267.178 129.781 267.418 129.093 267.418 128.24C267.418 127.675 267.306 127.179 267.082 126.752C266.869 126.315 266.565 125.979 266.17 125.744C265.786 125.499 265.333 125.376 264.81 125.376C264.277 125.376 263.802 125.499 263.386 125.744C262.981 125.989 262.655 126.331 262.41 126.768C262.175 127.195 262.058 127.685 262.058 128.24C262.058 128.795 262.175 129.285 262.41 129.712C262.655 130.139 262.986 130.475 263.402 130.72C263.818 130.965 264.293 131.088 264.826 131.088ZM267.354 132V129.984L267.578 128.128L267.354 126.32V124.48H268.474V132H267.354ZM276.217 132V127.584C276.217 126.923 276.02 126.389 275.625 125.984C275.241 125.568 274.729 125.36 274.089 125.36C273.652 125.36 273.268 125.456 272.937 125.648C272.607 125.84 272.345 126.101 272.153 126.432C271.961 126.763 271.865 127.141 271.865 127.568L271.353 127.28C271.353 126.715 271.487 126.208 271.753 125.76C272.02 125.312 272.377 124.96 272.825 124.704C273.284 124.448 273.807 124.32 274.393 124.32C274.969 124.32 275.481 124.459 275.929 124.736C276.377 125.013 276.724 125.387 276.969 125.856C277.225 126.325 277.353 126.837 277.353 127.392V132H276.217ZM270.745 132V124.48H271.865V132H270.745ZM282.649 132.16C281.955 132.16 281.331 131.989 280.777 131.648C280.222 131.307 279.779 130.843 279.449 130.256C279.129 129.659 278.969 128.992 278.969 128.256C278.969 127.509 279.129 126.843 279.449 126.256C279.779 125.659 280.222 125.189 280.777 124.848C281.331 124.496 281.955 124.32 282.649 124.32C283.214 124.32 283.726 124.432 284.185 124.656C284.643 124.88 285.022 125.2 285.321 125.616C285.63 126.021 285.811 126.501 285.865 127.056V129.408C285.801 129.952 285.619 130.432 285.321 130.848C285.033 131.253 284.659 131.573 284.201 131.808C283.742 132.043 283.225 132.16 282.649 132.16ZM282.841 131.088C283.363 131.088 283.822 130.971 284.217 130.736C284.611 130.491 284.921 130.155 285.145 129.728C285.369 129.291 285.481 128.795 285.481 128.24C285.481 127.675 285.363 127.179 285.129 126.752C284.905 126.325 284.595 125.989 284.201 125.744C283.806 125.499 283.347 125.376 282.825 125.376C282.302 125.376 281.838 125.499 281.433 125.744C281.027 125.989 280.707 126.331 280.473 126.768C280.249 127.195 280.137 127.685 280.137 128.24C280.137 128.795 280.249 129.291 280.473 129.728C280.707 130.155 281.027 130.491 281.433 130.736C281.849 130.971 282.318 131.088 282.841 131.088ZM286.536 132H285.417V129.984L285.641 128.128L285.417 126.32V120.672H286.536V132ZM44.56 152.16C43.824 152.16 43.1573 151.989 42.56 151.648C41.9733 151.296 41.504 150.821 41.152 150.224C40.8107 149.627 40.64 148.96 40.64 148.224C40.64 147.488 40.8107 146.827 41.152 146.24C41.504 145.643 41.9733 145.173 42.56 144.832C43.1573 144.491 43.824 144.32 44.56 144.32C45.1253 144.32 45.6533 144.427 46.144 144.64C46.6347 144.853 47.0507 145.152 47.392 145.536L46.656 146.288C46.4 146 46.0907 145.781 45.728 145.632C45.3653 145.472 44.976 145.392 44.56 145.392C44.0267 145.392 43.552 145.515 43.136 145.76C42.72 146.005 42.3947 146.341 42.16 146.768C41.9253 147.184 41.808 147.669 41.808 148.224C41.808 148.768 41.9253 149.259 42.16 149.696C42.3947 150.123 42.72 150.459 43.136 150.704C43.552 150.949 44.0267 151.072 44.56 151.072C44.9867 151.072 45.3813 150.997 45.744 150.848C46.1067 150.688 46.416 150.464 46.672 150.176L47.424 150.928C47.072 151.323 46.6453 151.627 46.144 151.84C45.6533 152.053 45.1253 152.16 44.56 152.16ZM54.4674 152V147.584C54.4674 146.923 54.27 146.389 53.8754 145.984C53.4914 145.568 52.9794 145.36 52.3394 145.36C51.902 145.36 51.518 145.456 51.1874 145.648C50.8567 145.84 50.5954 146.101 50.4034 146.432C50.2114 146.763 50.1154 147.141 50.1154 147.568L49.6034 147.28C49.6034 146.715 49.7367 146.208 50.0034 145.76C50.27 145.312 50.6274 144.96 51.0754 144.704C51.534 144.448 52.0567 144.32 52.6434 144.32C53.2194 144.32 53.7314 144.453 54.1794 144.72C54.6274 144.976 54.974 145.333 55.2194 145.792C55.4754 146.251 55.6034 146.784 55.6034 147.392V152H54.4674ZM48.9954 152V140.672H50.1154V152H48.9954ZM61.1065 152.16C60.3812 152.16 59.7198 151.984 59.1225 151.632C58.5358 151.28 58.0665 150.805 57.7145 150.208C57.3732 149.611 57.2025 148.944 57.2025 148.208C57.2025 147.483 57.3732 146.827 57.7145 146.24C58.0665 145.653 58.5358 145.189 59.1225 144.848C59.7198 144.496 60.3812 144.32 61.1065 144.32C61.8425 144.32 62.5038 144.491 63.0905 144.832C63.6772 145.173 64.1412 145.643 64.4825 146.24C64.8345 146.827 65.0105 147.483 65.0105 148.208C65.0105 148.955 64.8345 149.627 64.4825 150.224C64.1412 150.811 63.6772 151.28 63.0905 151.632C62.5038 151.984 61.8425 152.16 61.1065 152.16ZM61.1065 151.072C61.6398 151.072 62.1092 150.949 62.5145 150.704C62.9305 150.459 63.2558 150.117 63.4905 149.68C63.7358 149.243 63.8585 148.752 63.8585 148.208C63.8585 147.664 63.7358 147.184 63.4905 146.768C63.2558 146.341 62.9305 146.005 62.5145 145.76C62.1092 145.515 61.6398 145.392 61.1065 145.392C60.5838 145.392 60.1145 145.515 59.6985 145.76C59.2825 146.005 58.9572 146.341 58.7225 146.768C58.4878 147.184 58.3705 147.664 58.3705 148.208C58.3705 148.763 58.4878 149.259 58.7225 149.696C58.9572 150.123 59.2825 150.459 59.6985 150.704C60.1145 150.949 60.5838 151.072 61.1065 151.072ZM70.2003 152.16C69.4749 152.16 68.8136 151.984 68.2163 151.632C67.6296 151.28 67.1603 150.805 66.8083 150.208C66.4669 149.611 66.2963 148.944 66.2963 148.208C66.2963 147.483 66.4669 146.827 66.8083 146.24C67.1603 145.653 67.6296 145.189 68.2163 144.848C68.8136 144.496 69.4749 144.32 70.2003 144.32C70.9363 144.32 71.5976 144.491 72.1843 144.832C72.7709 145.173 73.2349 145.643 73.5763 146.24C73.9283 146.827 74.1042 147.483 74.1042 148.208C74.1042 148.955 73.9283 149.627 73.5763 150.224C73.2349 150.811 72.7709 151.28 72.1843 151.632C71.5976 151.984 70.9363 152.16 70.2003 152.16ZM70.2003 151.072C70.7336 151.072 71.2029 150.949 71.6083 150.704C72.0243 150.459 72.3496 150.117 72.5843 149.68C72.8296 149.243 72.9523 148.752 72.9523 148.208C72.9523 147.664 72.8296 147.184 72.5843 146.768C72.3496 146.341 72.0243 146.005 71.6083 145.76C71.2029 145.515 70.7336 145.392 70.2003 145.392C69.6776 145.392 69.2083 145.515 68.7923 145.76C68.3763 146.005 68.0509 146.341 67.8163 146.768C67.5816 147.184 67.4643 147.664 67.4643 148.208C67.4643 148.763 67.5816 149.259 67.8163 149.696C68.0509 150.123 68.3763 150.459 68.7923 150.704C69.2083 150.949 69.6776 151.072 70.2003 151.072ZM78.19 152.16C77.7847 152.16 77.3953 152.107 77.022 152C76.6487 151.883 76.3073 151.723 75.998 151.52C75.6993 151.317 75.438 151.077 75.214 150.8L75.934 150.064C76.2327 150.427 76.5687 150.699 76.942 150.88C77.326 151.051 77.7527 151.136 78.222 151.136C78.7233 151.136 79.1127 151.04 79.39 150.848C79.678 150.656 79.822 150.389 79.822 150.048C79.822 149.728 79.7207 149.477 79.518 149.296C79.3153 149.115 79.054 148.971 78.734 148.864C78.4247 148.757 78.094 148.656 77.742 148.56C77.39 148.453 77.054 148.325 76.734 148.176C76.414 148.016 76.1527 147.797 75.95 147.52C75.758 147.243 75.662 146.88 75.662 146.432C75.662 146.005 75.7633 145.637 75.966 145.328C76.1793 145.008 76.478 144.763 76.862 144.592C77.2567 144.411 77.7207 144.32 78.254 144.32C78.8193 144.32 79.3313 144.421 79.79 144.624C80.2487 144.827 80.6167 145.125 80.894 145.52L80.174 146.24C79.95 145.952 79.6673 145.733 79.326 145.584C78.9953 145.424 78.622 145.344 78.206 145.344C77.726 145.344 77.358 145.44 77.102 145.632C76.8567 145.813 76.734 146.053 76.734 146.352C76.734 146.64 76.8353 146.869 77.038 147.04C77.2407 147.2 77.4967 147.333 77.806 147.44C78.126 147.536 78.462 147.637 78.814 147.744C79.166 147.84 79.502 147.973 79.822 148.144C80.142 148.304 80.398 148.528 80.59 148.816C80.7927 149.093 80.894 149.472 80.894 149.952C80.894 150.624 80.6487 151.163 80.158 151.568C79.678 151.963 79.022 152.16 78.19 152.16ZM86.1393 152.16C85.3819 152.16 84.7046 151.989 84.1073 151.648C83.5099 151.307 83.0353 150.837 82.6833 150.24C82.3419 149.643 82.1713 148.971 82.1713 148.224C82.1713 147.488 82.3419 146.827 82.6833 146.24C83.0246 145.643 83.4886 145.173 84.0753 144.832C84.6619 144.491 85.3179 144.32 86.0433 144.32C86.7259 144.32 87.3286 144.475 87.8513 144.784C88.3846 145.093 88.8006 145.525 89.0993 146.08C89.4086 146.624 89.5633 147.253 89.5633 147.968C89.5633 148.053 89.5579 148.155 89.5473 148.272C89.5366 148.379 89.5153 148.507 89.4833 148.656H82.9713V147.696H88.8753L88.4753 148.048C88.4859 147.493 88.3899 147.019 88.1873 146.624C87.9953 146.219 87.7126 145.909 87.3393 145.696C86.9766 145.472 86.5339 145.36 86.0113 145.36C85.4673 145.36 84.9926 145.477 84.5873 145.712C84.1819 145.947 83.8619 146.277 83.6273 146.704C83.4033 147.12 83.2913 147.616 83.2913 148.192C83.2913 148.768 83.4086 149.275 83.6432 149.712C83.8886 150.149 84.2246 150.491 84.6513 150.736C85.0886 150.981 85.5899 151.104 86.1553 151.104C86.6139 151.104 87.0353 151.024 87.4193 150.864C87.8033 150.693 88.1286 150.443 88.3953 150.112L89.1153 150.848C88.7633 151.264 88.3259 151.589 87.8033 151.824C87.2913 152.048 86.7366 152.16 86.1393 152.16ZM95.8821 152V141.312H97.0021V152H95.8821ZM93.9781 145.488V144.48H98.8901V145.488H93.9781ZM105.905 152V147.584C105.905 146.923 105.708 146.389 105.313 145.984C104.929 145.568 104.417 145.36 103.777 145.36C103.34 145.36 102.956 145.456 102.625 145.648C102.294 145.84 102.033 146.101 101.841 146.432C101.649 146.763 101.553 147.141 101.553 147.568L101.041 147.28C101.041 146.715 101.174 146.208 101.441 145.76C101.708 145.312 102.065 144.96 102.513 144.704C102.972 144.448 103.494 144.32 104.081 144.32C104.657 144.32 105.169 144.453 105.617 144.72C106.065 144.976 106.412 145.333 106.657 145.792C106.913 146.251 107.041 146.784 107.041 147.392V152H105.905ZM100.433 152V140.672H101.553V152H100.433ZM112.608 152.16C111.851 152.16 111.173 151.989 110.576 151.648C109.979 151.307 109.504 150.837 109.152 150.24C108.811 149.643 108.64 148.971 108.64 148.224C108.64 147.488 108.811 146.827 109.152 146.24C109.493 145.643 109.957 145.173 110.544 144.832C111.131 144.491 111.787 144.32 112.512 144.32C113.195 144.32 113.797 144.475 114.32 144.784C114.853 145.093 115.269 145.525 115.568 146.08C115.877 146.624 116.032 147.253 116.032 147.968C116.032 148.053 116.027 148.155 116.016 148.272C116.005 148.379 115.984 148.507 115.952 148.656H109.44V147.696H115.344L114.944 148.048C114.955 147.493 114.859 147.019 114.656 146.624C114.464 146.219 114.181 145.909 113.808 145.696C113.445 145.472 113.003 145.36 112.48 145.36C111.936 145.36 111.461 145.477 111.056 145.712C110.651 145.947 110.331 146.277 110.096 146.704C109.872 147.12 109.76 147.616 109.76 148.192C109.76 148.768 109.877 149.275 110.112 149.712C110.357 150.149 110.693 150.491 111.12 150.736C111.557 150.981 112.059 151.104 112.624 151.104C113.083 151.104 113.504 151.024 113.888 150.864C114.272 150.693 114.597 150.443 114.864 150.112L115.584 150.848C115.232 151.264 114.795 151.589 114.272 151.824C113.76 152.048 113.205 152.16 112.608 152.16ZM123.487 152.16C123.082 152.16 122.692 152.107 122.319 152C121.946 151.883 121.604 151.723 121.295 151.52C120.996 151.317 120.735 151.077 120.511 150.8L121.231 150.064C121.53 150.427 121.866 150.699 122.239 150.88C122.623 151.051 123.05 151.136 123.519 151.136C124.02 151.136 124.41 151.04 124.687 150.848C124.975 150.656 125.119 150.389 125.119 150.048C125.119 149.728 125.018 149.477 124.815 149.296C124.612 149.115 124.351 148.971 124.031 148.864C123.722 148.757 123.391 148.656 123.039 148.56C122.687 148.453 122.351 148.325 122.031 148.176C121.711 148.016 121.45 147.797 121.247 147.52C121.055 147.243 120.959 146.88 120.959 146.432C120.959 146.005 121.06 145.637 121.263 145.328C121.476 145.008 121.775 144.763 122.159 144.592C122.554 144.411 123.018 144.32 123.551 144.32C124.116 144.32 124.628 144.421 125.087 144.624C125.546 144.827 125.914 145.125 126.191 145.52L125.471 146.24C125.247 145.952 124.964 145.733 124.623 145.584C124.292 145.424 123.919 145.344 123.503 145.344C123.023 145.344 122.655 145.44 122.399 145.632C122.154 145.813 122.031 146.053 122.031 146.352C122.031 146.64 122.132 146.869 122.335 147.04C122.538 147.2 122.794 147.333 123.103 147.44C123.423 147.536 123.759 147.637 124.111 147.744C124.463 147.84 124.799 147.973 125.119 148.144C125.439 148.304 125.695 148.528 125.887 148.816C126.09 149.093 126.191 149.472 126.191 149.952C126.191 150.624 125.946 151.163 125.455 151.568C124.975 151.963 124.319 152.16 123.487 152.16ZM131.372 152.16C130.647 152.16 129.985 151.984 129.388 151.632C128.801 151.28 128.332 150.805 127.98 150.208C127.639 149.611 127.468 148.944 127.468 148.208C127.468 147.483 127.639 146.827 127.98 146.24C128.332 145.653 128.801 145.189 129.388 144.848C129.985 144.496 130.647 144.32 131.372 144.32C132.108 144.32 132.769 144.491 133.356 144.832C133.943 145.173 134.407 145.643 134.748 146.24C135.1 146.827 135.276 147.483 135.276 148.208C135.276 148.955 135.1 149.627 134.748 150.224C134.407 150.811 133.943 151.28 133.356 151.632C132.769 151.984 132.108 152.16 131.372 152.16ZM131.372 151.072C131.905 151.072 132.375 150.949 132.78 150.704C133.196 150.459 133.521 150.117 133.756 149.68C134.001 149.243 134.124 148.752 134.124 148.208C134.124 147.664 134.001 147.184 133.756 146.768C133.521 146.341 133.196 146.005 132.78 145.76C132.375 145.515 131.905 145.392 131.372 145.392C130.849 145.392 130.38 145.515 129.964 145.76C129.548 146.005 129.223 146.341 128.988 146.768C128.753 147.184 128.636 147.664 128.636 148.208C128.636 148.763 128.753 149.259 128.988 149.696C129.223 150.123 129.548 150.459 129.964 150.704C130.38 150.949 130.849 151.072 131.372 151.072ZM137.058 152V140.672H138.178V152H137.058ZM143.424 152.16C142.817 152.16 142.273 152.021 141.793 151.744C141.313 151.456 140.934 151.067 140.657 150.576C140.39 150.085 140.257 149.509 140.257 148.848V144.48H141.393V148.8C141.393 149.259 141.473 149.659 141.633 150C141.803 150.341 142.043 150.608 142.353 150.8C142.662 150.992 143.019 151.088 143.424 151.088C144.054 151.088 144.55 150.88 144.913 150.464C145.286 150.048 145.473 149.493 145.473 148.8V144.48H146.593V148.848C146.593 149.499 146.459 150.075 146.193 150.576C145.926 151.077 145.553 151.467 145.073 151.744C144.593 152.021 144.043 152.16 143.424 152.16ZM149.851 152V141.312H150.971V152H149.851ZM147.947 145.488V144.48H152.859V145.488H147.947ZM154.402 152V144.48H155.538V152H154.402ZM154.962 142.848C154.748 142.848 154.567 142.773 154.418 142.624C154.268 142.464 154.194 142.277 154.194 142.064C154.194 141.84 154.268 141.653 154.418 141.504C154.567 141.355 154.748 141.28 154.962 141.28C155.196 141.28 155.383 141.355 155.522 141.504C155.671 141.653 155.746 141.84 155.746 142.064C155.746 142.277 155.671 142.464 155.522 142.624C155.383 142.773 155.196 142.848 154.962 142.848ZM161.216 152.16C160.491 152.16 159.829 151.984 159.232 151.632C158.645 151.28 158.176 150.805 157.824 150.208C157.483 149.611 157.312 148.944 157.312 148.208C157.312 147.483 157.483 146.827 157.824 146.24C158.176 145.653 158.645 145.189 159.232 144.848C159.829 144.496 160.491 144.32 161.216 144.32C161.952 144.32 162.613 144.491 163.2 144.832C163.787 145.173 164.251 145.643 164.592 146.24C164.944 146.827 165.12 147.483 165.12 148.208C165.12 148.955 164.944 149.627 164.592 150.224C164.251 150.811 163.787 151.28 163.2 151.632C162.613 151.984 161.952 152.16 161.216 152.16ZM161.216 151.072C161.749 151.072 162.219 150.949 162.624 150.704C163.04 150.459 163.365 150.117 163.6 149.68C163.845 149.243 163.968 148.752 163.968 148.208C163.968 147.664 163.845 147.184 163.6 146.768C163.365 146.341 163.04 146.005 162.624 145.76C162.219 145.515 161.749 145.392 161.216 145.392C160.693 145.392 160.224 145.515 159.808 145.76C159.392 146.005 159.067 146.341 158.832 146.768C158.597 147.184 158.48 147.664 158.48 148.208C158.48 148.763 158.597 149.259 158.832 149.696C159.067 150.123 159.392 150.459 159.808 150.704C160.224 150.949 160.693 151.072 161.216 151.072ZM172.374 152V147.584C172.374 146.923 172.176 146.389 171.782 145.984C171.398 145.568 170.886 145.36 170.246 145.36C169.808 145.36 169.424 145.456 169.094 145.648C168.763 145.84 168.502 146.101 168.31 146.432C168.118 146.763 168.022 147.141 168.022 147.568L167.51 147.28C167.51 146.715 167.643 146.208 167.91 145.76C168.176 145.312 168.534 144.96 168.982 144.704C169.44 144.448 169.963 144.32 170.55 144.32C171.126 144.32 171.638 144.459 172.086 144.736C172.534 145.013 172.88 145.387 173.126 145.856C173.382 146.325 173.51 146.837 173.51 147.392V152H172.374ZM166.902 152V144.48H168.022V152H166.902ZM177.909 152.16C177.503 152.16 177.114 152.107 176.741 152C176.367 151.883 176.026 151.723 175.717 151.52C175.418 151.317 175.157 151.077 174.933 150.8L175.653 150.064C175.951 150.427 176.287 150.699 176.661 150.88C177.045 151.051 177.471 151.136 177.941 151.136C178.442 151.136 178.831 151.04 179.109 150.848C179.397 150.656 179.541 150.389 179.541 150.048C179.541 149.728 179.439 149.477 179.237 149.296C179.034 149.115 178.773 148.971 178.453 148.864C178.143 148.757 177.813 148.656 177.461 148.56C177.109 148.453 176.773 148.325 176.453 148.176C176.133 148.016 175.871 147.797 175.669 147.52C175.477 147.243 175.381 146.88 175.381 146.432C175.381 146.005 175.482 145.637 175.685 145.328C175.898 145.008 176.197 144.763 176.581 144.592C176.975 144.411 177.439 144.32 177.973 144.32C178.538 144.32 179.05 144.421 179.509 144.624C179.967 144.827 180.335 145.125 180.613 145.52L179.893 146.24C179.669 145.952 179.386 145.733 179.045 145.584C178.714 145.424 178.341 145.344 177.925 145.344C177.445 145.344 177.077 145.44 176.821 145.632C176.575 145.813 176.453 146.053 176.453 146.352C176.453 146.64 176.554 146.869 176.757 147.04C176.959 147.2 177.215 147.333 177.525 147.44C177.845 147.536 178.181 147.637 178.533 147.744C178.885 147.84 179.221 147.973 179.541 148.144C179.861 148.304 180.117 148.528 180.309 148.816C180.511 149.093 180.613 149.472 180.613 149.952C180.613 150.624 180.367 151.163 179.877 151.568C179.397 151.963 178.741 152.16 177.909 152.16ZM186.992 152V141.312H188.112V152H186.992ZM185.088 145.488V144.48H190V145.488H185.088ZM197.014 152V147.584C197.014 146.923 196.817 146.389 196.422 145.984C196.038 145.568 195.526 145.36 194.886 145.36C194.449 145.36 194.065 145.456 193.734 145.648C193.404 145.84 193.142 146.101 192.95 146.432C192.758 146.763 192.662 147.141 192.662 147.568L192.15 147.28C192.15 146.715 192.284 146.208 192.55 145.76C192.817 145.312 193.174 144.96 193.622 144.704C194.081 144.448 194.604 144.32 195.19 144.32C195.766 144.32 196.278 144.453 196.726 144.72C197.174 144.976 197.521 145.333 197.766 145.792C198.022 146.251 198.15 146.784 198.15 147.392V152H197.014ZM191.542 152V140.672H192.662V152H191.542ZM203.509 152.16C202.795 152.16 202.155 151.989 201.589 151.648C201.024 151.296 200.576 150.827 200.245 150.24C199.925 149.653 199.765 148.992 199.765 148.256C199.765 147.509 199.925 146.843 200.245 146.256C200.576 145.659 201.024 145.189 201.589 144.848C202.155 144.496 202.789 144.32 203.493 144.32C204.069 144.32 204.581 144.437 205.029 144.672C205.488 144.896 205.856 145.216 206.133 145.632C206.421 146.037 206.597 146.512 206.661 147.056V149.408C206.597 149.952 206.421 150.432 206.133 150.848C205.856 151.264 205.488 151.589 205.029 151.824C204.581 152.048 204.075 152.16 203.509 152.16ZM203.685 151.088C204.464 151.088 205.088 150.827 205.557 150.304C206.037 149.781 206.277 149.093 206.277 148.24C206.277 147.675 206.165 147.179 205.941 146.752C205.728 146.315 205.424 145.979 205.029 145.744C204.645 145.499 204.192 145.376 203.669 145.376C203.136 145.376 202.661 145.499 202.245 145.744C201.84 145.989 201.515 146.331 201.269 146.768C201.035 147.195 200.917 147.685 200.917 148.24C200.917 148.795 201.035 149.285 201.269 149.712C201.515 150.139 201.845 150.475 202.261 150.72C202.677 150.965 203.152 151.088 203.685 151.088ZM206.213 152V149.984L206.437 148.128L206.213 146.32V144.48H207.333V152H206.213ZM210.71 152V141.312H211.83V152H210.71ZM208.806 145.488V144.48H213.718V145.488H208.806ZM219.803 152V143.04C219.803 142.549 219.909 142.117 220.123 141.744C220.336 141.36 220.629 141.061 221.003 140.848C221.387 140.624 221.829 140.512 222.331 140.512C222.704 140.512 223.035 140.576 223.323 140.704C223.621 140.832 223.893 141.013 224.139 141.248L223.387 142C223.237 141.851 223.072 141.744 222.891 141.68C222.72 141.605 222.528 141.568 222.315 141.568C221.877 141.568 221.536 141.707 221.291 141.984C221.056 142.251 220.939 142.613 220.939 143.072V152H219.803ZM217.915 145.488V144.48H224.843V145.488H217.915ZM224.219 152V144.48H225.355V152H224.219ZM224.779 143.552C224.555 143.552 224.368 143.477 224.219 143.328C224.08 143.168 224.011 142.981 224.011 142.768C224.011 142.544 224.08 142.357 224.219 142.208C224.368 142.059 224.555 141.984 224.779 141.984C225.003 141.984 225.189 142.059 225.339 142.208C225.488 142.357 225.562 142.544 225.562 142.768C225.562 142.981 225.488 143.168 225.339 143.328C225.189 143.477 225.003 143.552 224.779 143.552ZM228.788 152V141.312H229.908V152H228.788ZM226.884 145.488V144.48H231.796V145.488H226.884ZM239.289 152.032L235.993 144.48H237.225L239.881 150.784H239.417L242.217 144.48H243.465L239.929 152.032H239.289ZM237.241 155.168L239.305 150.896L239.929 152.032L238.473 155.168H237.241ZM247.872 152.16C247.147 152.16 246.485 151.984 245.888 151.632C245.301 151.28 244.832 150.805 244.48 150.208C244.139 149.611 243.968 148.944 243.968 148.208C243.968 147.483 244.139 146.827 244.48 146.24C244.832 145.653 245.301 145.189 245.888 144.848C246.485 144.496 247.147 144.32 247.872 144.32C248.608 144.32 249.269 144.491 249.856 144.832C250.443 145.173 250.907 145.643 251.248 146.24C251.6 146.827 251.776 147.483 251.776 148.208C251.776 148.955 251.6 149.627 251.248 150.224C250.907 150.811 250.443 151.28 249.856 151.632C249.269 151.984 248.608 152.16 247.872 152.16ZM247.872 151.072C248.405 151.072 248.875 150.949 249.28 150.704C249.696 150.459 250.021 150.117 250.256 149.68C250.501 149.243 250.624 148.752 250.624 148.208C250.624 147.664 250.501 147.184 250.256 146.768C250.021 146.341 249.696 146.005 249.28 145.76C248.875 145.515 248.405 145.392 247.872 145.392C247.349 145.392 246.88 145.515 246.464 145.76C246.048 146.005 245.723 146.341 245.488 146.768C245.253 147.184 245.136 147.664 245.136 148.208C245.136 148.763 245.253 149.259 245.488 149.696C245.723 150.123 246.048 150.459 246.464 150.704C246.88 150.949 247.349 151.072 247.872 151.072ZM256.534 152.16C255.926 152.16 255.382 152.021 254.902 151.744C254.422 151.456 254.043 151.067 253.766 150.576C253.499 150.085 253.366 149.509 253.366 148.848V144.48H254.502V148.8C254.502 149.259 254.582 149.659 254.742 150C254.913 150.341 255.153 150.608 255.462 150.8C255.771 150.992 256.129 151.088 256.534 151.088C257.163 151.088 257.659 150.88 258.022 150.464C258.395 150.048 258.582 149.493 258.582 148.8V144.48H259.702V148.848C259.702 149.499 259.569 150.075 259.302 150.576C259.035 151.077 258.662 151.467 258.182 151.744C257.702 152.021 257.153 152.16 256.534 152.16ZM261.792 152V144.48H262.912V152H261.792ZM262.912 147.616L262.448 147.408C262.448 146.459 262.678 145.707 263.136 145.152C263.606 144.597 264.246 144.32 265.056 144.32C265.43 144.32 265.771 144.389 266.08 144.528C266.39 144.656 266.678 144.864 266.944 145.152L266.208 145.936C266.027 145.733 265.824 145.589 265.6 145.504C265.387 145.419 265.142 145.376 264.864 145.376C264.288 145.376 263.819 145.568 263.456 145.952C263.094 146.325 262.912 146.88 262.912 147.616ZM45.024 172.16C44.448 172.16 43.9307 172.043 43.472 171.808C43.0133 171.573 42.6347 171.253 42.336 170.848C42.048 170.432 41.872 169.952 41.808 169.408V167.056C41.872 166.501 42.0533 166.021 42.352 165.616C42.6507 165.2 43.0293 164.88 43.488 164.656C43.9573 164.432 44.4693 164.32 45.024 164.32C45.7173 164.32 46.3413 164.496 46.896 164.848C47.4507 165.189 47.888 165.659 48.208 166.256C48.5387 166.843 48.704 167.509 48.704 168.256C48.704 168.992 48.544 169.653 48.224 170.24C47.904 170.827 47.4613 171.296 46.896 171.648C46.3413 171.989 45.7173 172.16 45.024 172.16ZM41.136 172V160.672H42.256V166.32L42.032 168.128L42.256 169.984V172H41.136ZM44.832 171.088C45.3653 171.088 45.8347 170.971 46.24 170.736C46.6453 170.491 46.96 170.155 47.184 169.728C47.4187 169.291 47.536 168.795 47.536 168.24C47.536 167.675 47.4187 167.179 47.184 166.752C46.96 166.325 46.6453 165.989 46.24 165.744C45.8347 165.499 45.3707 165.376 44.848 165.376C44.3253 165.376 43.8613 165.499 43.456 165.744C43.0613 165.989 42.752 166.325 42.528 166.752C42.304 167.179 42.192 167.675 42.192 168.24C42.192 168.795 42.304 169.291 42.528 169.728C42.752 170.155 43.0613 170.491 43.456 170.736C43.8507 170.971 44.3093 171.088 44.832 171.088ZM53.4714 172.16C52.8634 172.16 52.3194 172.021 51.8394 171.744C51.3594 171.456 50.9807 171.067 50.7034 170.576C50.4367 170.085 50.3034 169.509 50.3034 168.848V164.48H51.4394V168.8C51.4394 169.259 51.5194 169.659 51.6794 170C51.85 170.341 52.09 170.608 52.3994 170.8C52.7087 170.992 53.066 171.088 53.4714 171.088C54.1007 171.088 54.5967 170.88 54.9594 170.464C55.3327 170.048 55.5194 169.493 55.5194 168.8V164.48H56.6394V168.848C56.6394 169.499 56.506 170.075 56.2394 170.576C55.9727 171.077 55.5994 171.467 55.1194 171.744C54.6394 172.021 54.09 172.16 53.4714 172.16ZM61.0338 172.16C60.6284 172.16 60.2391 172.107 59.8658 172C59.4924 171.883 59.1511 171.723 58.8418 171.52C58.5431 171.317 58.2818 171.077 58.0578 170.8L58.7778 170.064C59.0764 170.427 59.4124 170.699 59.7858 170.88C60.1698 171.051 60.5964 171.136 61.0658 171.136C61.5671 171.136 61.9564 171.04 62.2338 170.848C62.5218 170.656 62.6658 170.389 62.6658 170.048C62.6658 169.728 62.5644 169.477 62.3618 169.296C62.1591 169.115 61.8978 168.971 61.5778 168.864C61.2684 168.757 60.9378 168.656 60.5858 168.56C60.2338 168.453 59.8978 168.325 59.5778 168.176C59.2578 168.016 58.9964 167.797 58.7938 167.52C58.6018 167.243 58.5058 166.88 58.5058 166.432C58.5058 166.005 58.6071 165.637 58.8098 165.328C59.0231 165.008 59.3218 164.763 59.7057 164.592C60.1004 164.411 60.5644 164.32 61.0978 164.32C61.6631 164.32 62.1751 164.421 62.6338 164.624C63.0924 164.827 63.4604 165.125 63.7378 165.52L63.0178 166.24C62.7938 165.952 62.5111 165.733 62.1698 165.584C61.8391 165.424 61.4658 165.344 61.0498 165.344C60.5698 165.344 60.2018 165.44 59.9457 165.632C59.7004 165.813 59.5778 166.053 59.5778 166.352C59.5778 166.64 59.6791 166.869 59.8818 167.04C60.0844 167.2 60.3404 167.333 60.6498 167.44C60.9698 167.536 61.3058 167.637 61.6578 167.744C62.0098 167.84 62.3458 167.973 62.6658 168.144C62.9858 168.304 63.2418 168.528 63.4338 168.816C63.6364 169.093 63.7378 169.472 63.7378 169.952C63.7378 170.624 63.4924 171.163 63.0018 171.568C62.5218 171.963 61.8658 172.16 61.0338 172.16ZM65.511 172V164.48H66.647V172H65.511ZM66.071 162.848C65.8577 162.848 65.6763 162.773 65.527 162.624C65.3777 162.464 65.303 162.277 65.303 162.064C65.303 161.84 65.3777 161.653 65.527 161.504C65.6763 161.355 65.8577 161.28 66.071 161.28C66.3057 161.28 66.4923 161.355 66.631 161.504C66.7803 161.653 66.855 161.84 66.855 162.064C66.855 162.277 66.7803 162.464 66.631 162.624C66.4923 162.773 66.3057 162.848 66.071 162.848ZM74.3893 172V167.584C74.3893 166.923 74.1919 166.389 73.7973 165.984C73.4133 165.568 72.9013 165.36 72.2613 165.36C71.8239 165.36 71.4399 165.456 71.1093 165.648C70.7786 165.84 70.5173 166.101 70.3253 166.432C70.1333 166.763 70.0373 167.141 70.0373 167.568L69.5253 167.28C69.5253 166.715 69.6586 166.208 69.9253 165.76C70.1919 165.312 70.5493 164.96 70.9973 164.704C71.4559 164.448 71.9786 164.32 72.5653 164.32C73.1413 164.32 73.6533 164.459 74.1013 164.736C74.5493 165.013 74.8959 165.387 75.1413 165.856C75.3973 166.325 75.5253 166.837 75.5253 167.392V172H74.3893ZM68.9173 172V164.48H70.0373V172H68.9173ZM81.0924 172.16C80.335 172.16 79.6577 171.989 79.0604 171.648C78.463 171.307 77.9884 170.837 77.6364 170.24C77.295 169.643 77.1244 168.971 77.1244 168.224C77.1244 167.488 77.295 166.827 77.6364 166.24C77.9777 165.643 78.4417 165.173 79.0284 164.832C79.615 164.491 80.271 164.32 80.9964 164.32C81.679 164.32 82.2817 164.475 82.8044 164.784C83.3377 165.093 83.7537 165.525 84.0524 166.08C84.3617 166.624 84.5164 167.253 84.5164 167.968C84.5164 168.053 84.511 168.155 84.5004 168.272C84.4897 168.379 84.4684 168.507 84.4364 168.656H77.9244V167.696H83.8284L83.4284 168.048C83.439 167.493 83.343 167.019 83.1404 166.624C82.9484 166.219 82.6657 165.909 82.2924 165.696C81.9297 165.472 81.487 165.36 80.9644 165.36C80.4204 165.36 79.9457 165.477 79.5404 165.712C79.135 165.947 78.815 166.277 78.5804 166.704C78.3564 167.12 78.2444 167.616 78.2444 168.192C78.2444 168.768 78.3617 169.275 78.5964 169.712C78.8417 170.149 79.1777 170.491 79.6044 170.736C80.0417 170.981 80.543 171.104 81.1084 171.104C81.567 171.104 81.9884 171.024 82.3724 170.864C82.7564 170.693 83.0817 170.443 83.3484 170.112L84.0684 170.848C83.7164 171.264 83.279 171.589 82.7564 171.824C82.2444 172.048 81.6897 172.16 81.0924 172.16ZM88.5338 172.16C88.1284 172.16 87.7391 172.107 87.3658 172C86.9924 171.883 86.6511 171.723 86.3418 171.52C86.0431 171.317 85.7818 171.077 85.5578 170.8L86.2778 170.064C86.5764 170.427 86.9124 170.699 87.2858 170.88C87.6698 171.051 88.0964 171.136 88.5658 171.136C89.0671 171.136 89.4564 171.04 89.7338 170.848C90.0218 170.656 90.1658 170.389 90.1658 170.048C90.1658 169.728 90.0644 169.477 89.8618 169.296C89.6591 169.115 89.3978 168.971 89.0778 168.864C88.7684 168.757 88.4378 168.656 88.0858 168.56C87.7338 168.453 87.3978 168.325 87.0778 168.176C86.7578 168.016 86.4964 167.797 86.2938 167.52C86.1018 167.243 86.0058 166.88 86.0058 166.432C86.0058 166.005 86.1071 165.637 86.3098 165.328C86.5231 165.008 86.8218 164.763 87.2057 164.592C87.6004 164.411 88.0644 164.32 88.5978 164.32C89.1631 164.32 89.6751 164.421 90.1338 164.624C90.5924 164.827 90.9604 165.125 91.2378 165.52L90.5178 166.24C90.2938 165.952 90.0111 165.733 89.6698 165.584C89.3391 165.424 88.9658 165.344 88.5498 165.344C88.0698 165.344 87.7018 165.44 87.4457 165.632C87.2004 165.813 87.0778 166.053 87.0778 166.352C87.0778 166.64 87.1791 166.869 87.3818 167.04C87.5844 167.2 87.8404 167.333 88.1498 167.44C88.4698 167.536 88.8058 167.637 89.1578 167.744C89.5098 167.84 89.8458 167.973 90.1658 168.144C90.4858 168.304 90.7418 168.528 90.9338 168.816C91.1364 169.093 91.2378 169.472 91.2378 169.952C91.2378 170.624 90.9924 171.163 90.5018 171.568C90.0218 171.963 89.3658 172.16 88.5338 172.16ZM95.315 172.16C94.9097 172.16 94.5203 172.107 94.147 172C93.7737 171.883 93.4323 171.723 93.123 171.52C92.8243 171.317 92.563 171.077 92.339 170.8L93.059 170.064C93.3577 170.427 93.6937 170.699 94.067 170.88C94.451 171.051 94.8777 171.136 95.347 171.136C95.8483 171.136 96.2377 171.04 96.515 170.848C96.803 170.656 96.947 170.389 96.947 170.048C96.947 169.728 96.8457 169.477 96.643 169.296C96.4403 169.115 96.179 168.971 95.859 168.864C95.5497 168.757 95.219 168.656 94.867 168.56C94.515 168.453 94.179 168.325 93.859 168.176C93.539 168.016 93.2777 167.797 93.075 167.52C92.883 167.243 92.787 166.88 92.787 166.432C92.787 166.005 92.8883 165.637 93.091 165.328C93.3043 165.008 93.603 164.763 93.987 164.592C94.3817 164.411 94.8457 164.32 95.379 164.32C95.9443 164.32 96.4563 164.421 96.915 164.624C97.3737 164.827 97.7417 165.125 98.019 165.52L97.299 166.24C97.075 165.952 96.7923 165.733 96.451 165.584C96.1203 165.424 95.747 165.344 95.331 165.344C94.851 165.344 94.483 165.44 94.227 165.632C93.9817 165.813 93.859 166.053 93.859 166.352C93.859 166.64 93.9603 166.869 94.163 167.04C94.3657 167.2 94.6217 167.333 94.931 167.44C95.251 167.536 95.587 167.637 95.939 167.744C96.291 167.84 96.627 167.973 96.947 168.144C97.267 168.304 97.523 168.528 97.715 168.816C97.9177 169.093 98.019 169.472 98.019 169.952C98.019 170.624 97.7737 171.163 97.283 171.568C96.803 171.963 96.147 172.16 95.315 172.16ZM100.976 172.16C100.71 172.16 100.491 172.069 100.32 171.888C100.15 171.707 100.064 171.488 100.064 171.232C100.064 170.976 100.15 170.763 100.32 170.592C100.491 170.411 100.71 170.32 100.976 170.32C101.232 170.32 101.446 170.411 101.616 170.592C101.787 170.763 101.872 170.976 101.872 171.232C101.872 171.488 101.787 171.707 101.616 171.888C101.446 172.069 101.232 172.16 100.976 172.16Z" fill="#060606"/>
<g clip-path="url(#clip0_1151_2748)">
<path d="M130.379 181.799C130.275 181.799 130.174 181.768 130.088 181.711C130.002 181.653 129.935 181.572 129.895 181.476C129.856 181.38 129.845 181.275 129.866 181.174C129.886 181.072 129.936 180.979 130.009 180.906L133.756 177.155C133.804 177.106 133.862 177.067 133.926 177.04C133.989 177.014 134.057 177 134.126 177C134.195 177 134.263 177.013 134.327 177.04C134.391 177.066 134.449 177.105 134.497 177.153C134.546 177.202 134.585 177.26 134.611 177.324C134.637 177.387 134.651 177.455 134.65 177.524C134.65 177.593 134.637 177.661 134.61 177.725C134.583 177.789 134.545 177.846 134.496 177.895L130.747 181.644C130.699 181.693 130.641 181.732 130.578 181.758C130.515 181.785 130.447 181.799 130.379 181.799Z" fill="#F7B501"/>
<path d="M134.126 181.799C134.057 181.799 133.989 181.785 133.926 181.759C133.862 181.732 133.805 181.693 133.756 181.644L130.009 177.893C129.955 177.846 129.912 177.788 129.881 177.724C129.851 177.659 129.834 177.589 129.831 177.517C129.829 177.445 129.841 177.374 129.868 177.308C129.894 177.241 129.934 177.181 129.984 177.13C130.035 177.079 130.095 177.04 130.162 177.013C130.228 176.987 130.3 176.975 130.371 176.977C130.443 176.979 130.513 176.996 130.578 177.027C130.642 177.058 130.7 177.101 130.747 177.155L134.496 180.903C134.569 180.976 134.619 181.069 134.639 181.171C134.659 181.272 134.649 181.377 134.609 181.473C134.57 181.569 134.503 181.65 134.417 181.708C134.331 181.765 134.23 181.796 134.126 181.796V181.799Z" fill="#F7B501"/>
<path d="M130.619 226.875C130.515 226.875 130.414 226.844 130.328 226.787C130.242 226.729 130.175 226.647 130.136 226.552C130.096 226.456 130.086 226.351 130.106 226.25C130.126 226.148 130.176 226.055 130.249 225.982L133.998 222.234C134.097 222.143 134.228 222.094 134.362 222.098C134.497 222.101 134.625 222.156 134.72 222.251C134.815 222.346 134.87 222.475 134.873 222.609C134.876 222.744 134.827 222.874 134.736 222.974L130.989 226.722C130.94 226.77 130.883 226.809 130.819 226.835C130.756 226.862 130.688 226.875 130.619 226.875Z" fill="#F7B501"/>
<path d="M134.363 226.875C134.294 226.875 134.226 226.861 134.163 226.834C134.1 226.808 134.043 226.769 133.994 226.72L130.249 222.978C130.151 222.88 130.097 222.747 130.097 222.609C130.097 222.47 130.153 222.338 130.25 222.24C130.348 222.142 130.481 222.087 130.619 222.087C130.758 222.086 130.89 222.141 130.989 222.238L134.736 225.986C134.809 226.059 134.859 226.153 134.879 226.254C134.899 226.356 134.889 226.461 134.849 226.557C134.81 226.652 134.743 226.734 134.657 226.791C134.571 226.849 134.469 226.88 134.366 226.88L134.363 226.875Z" fill="#F7B501"/>
<path d="M163.439 197.004C162.937 197.004 162.445 196.855 162.027 196.576C161.61 196.297 161.284 195.9 161.091 195.435C160.899 194.971 160.849 194.46 160.947 193.966C161.045 193.473 161.287 193.02 161.642 192.665C161.998 192.309 162.451 192.067 162.944 191.969C163.437 191.871 163.948 191.922 164.412 192.114C164.876 192.306 165.273 192.632 165.553 193.05C165.832 193.468 165.981 193.96 165.981 194.462C165.98 195.136 165.713 195.783 165.236 196.259C164.759 196.736 164.113 197.004 163.439 197.004ZM163.439 192.965C163.143 192.965 162.854 193.053 162.607 193.217C162.361 193.381 162.169 193.615 162.056 193.888C161.942 194.162 161.912 194.463 161.97 194.753C162.027 195.044 162.17 195.311 162.379 195.52C162.588 195.73 162.855 195.873 163.145 195.93C163.436 195.988 163.737 195.959 164.01 195.846C164.284 195.732 164.518 195.54 164.682 195.294C164.847 195.048 164.935 194.759 164.935 194.462C164.934 194.066 164.777 193.685 164.496 193.405C164.216 193.124 163.836 192.966 163.439 192.965Z" fill="#F7B501"/>
<path d="M156.186 249.567C156.083 249.567 155.982 249.536 155.896 249.479C155.81 249.421 155.743 249.339 155.703 249.244C155.663 249.148 155.653 249.043 155.673 248.941C155.693 248.84 155.743 248.747 155.816 248.673L159.563 244.926C159.612 244.877 159.67 244.838 159.733 244.811C159.797 244.785 159.865 244.771 159.934 244.771C160.003 244.771 160.071 244.784 160.135 244.81C160.198 244.837 160.256 244.875 160.305 244.924C160.354 244.973 160.392 245.031 160.418 245.094C160.445 245.158 160.458 245.226 160.458 245.295C160.458 245.364 160.444 245.432 160.418 245.496C160.391 245.559 160.352 245.617 160.303 245.666L156.556 249.413C156.508 249.462 156.45 249.501 156.387 249.527C156.323 249.553 156.255 249.567 156.186 249.567Z" fill="#F7B501"/>
<path d="M159.93 249.567C159.862 249.566 159.793 249.553 159.73 249.526C159.667 249.5 159.609 249.461 159.56 249.412L155.813 245.664C155.716 245.566 155.661 245.433 155.662 245.294C155.662 245.156 155.717 245.023 155.815 244.925C155.913 244.828 156.045 244.773 156.184 244.772C156.322 244.772 156.455 244.826 156.553 244.924L160.3 248.676C160.373 248.75 160.423 248.843 160.443 248.944C160.464 249.046 160.453 249.151 160.414 249.247C160.374 249.342 160.307 249.424 160.221 249.482C160.135 249.539 160.034 249.57 159.93 249.57V249.567Z" fill="#F7B501"/>
<path d="M100.846 271C100.743 271 100.642 270.969 100.556 270.911C100.471 270.854 100.404 270.773 100.364 270.677C100.325 270.582 100.314 270.477 100.334 270.376C100.354 270.275 100.403 270.181 100.476 270.108L104.223 266.359C104.321 266.261 104.454 266.207 104.593 266.207C104.731 266.207 104.864 266.262 104.961 266.36C105.059 266.458 105.114 266.591 105.115 266.729C105.115 266.868 105.06 267 104.963 267.099L101.214 270.847C101.166 270.895 101.109 270.934 101.045 270.96C100.982 270.987 100.914 271 100.846 271Z" fill="#F7B501"/>
<path d="M104.593 271C104.524 271 104.456 270.986 104.392 270.96C104.329 270.933 104.271 270.894 104.223 270.845L100.476 267.099C100.423 267.051 100.381 266.993 100.352 266.929C100.323 266.865 100.307 266.795 100.305 266.724C100.303 266.654 100.316 266.583 100.342 266.518C100.368 266.452 100.408 266.392 100.458 266.342C100.507 266.292 100.567 266.253 100.633 266.226C100.698 266.2 100.769 266.187 100.839 266.189C100.91 266.19 100.98 266.206 101.044 266.235C101.108 266.264 101.166 266.306 101.214 266.359L104.963 270.108C105.035 270.181 105.085 270.275 105.105 270.376C105.124 270.477 105.114 270.582 105.074 270.677C105.035 270.772 104.968 270.854 104.882 270.911C104.797 270.969 104.696 271 104.593 271Z" fill="#F7B501"/>
<path d="M181.223 232.911C180.872 232.911 180.528 232.807 180.235 232.612C179.942 232.416 179.714 232.139 179.579 231.814C179.444 231.489 179.409 231.131 179.477 230.786C179.546 230.441 179.715 230.124 179.964 229.875C180.212 229.626 180.529 229.456 180.874 229.388C181.219 229.319 181.577 229.354 181.902 229.489C182.227 229.623 182.505 229.851 182.7 230.144C182.896 230.436 183 230.78 183 231.132C183 231.603 182.812 232.055 182.479 232.389C182.146 232.722 181.695 232.91 181.223 232.911ZM181.223 230.086C181.016 230.085 180.813 230.146 180.641 230.262C180.468 230.377 180.333 230.54 180.254 230.732C180.174 230.923 180.154 231.134 180.194 231.338C180.234 231.541 180.334 231.728 180.481 231.875C180.627 232.021 180.814 232.121 181.018 232.162C181.221 232.202 181.432 232.181 181.623 232.102C181.815 232.022 181.979 231.887 182.094 231.715C182.209 231.542 182.27 231.339 182.27 231.132C182.269 230.855 182.158 230.589 181.962 230.393C181.766 230.197 181.501 230.086 181.223 230.086Z" fill="#F7B501"/>
<path d="M136.133 261.47C135.63 261.47 135.138 261.321 134.72 261.042C134.302 260.763 133.975 260.365 133.783 259.901C133.59 259.436 133.54 258.924 133.638 258.431C133.736 257.937 133.978 257.484 134.334 257.128C134.689 256.772 135.143 256.53 135.636 256.432C136.13 256.334 136.641 256.384 137.106 256.577C137.57 256.77 137.968 257.096 138.247 257.514C138.526 257.933 138.675 258.425 138.675 258.928C138.674 259.602 138.406 260.248 137.93 260.725C137.453 261.201 136.807 261.469 136.133 261.47ZM136.133 257.431C135.837 257.431 135.548 257.519 135.302 257.683C135.056 257.848 134.864 258.082 134.751 258.355C134.637 258.629 134.608 258.93 134.665 259.22C134.723 259.511 134.866 259.777 135.075 259.987C135.284 260.196 135.551 260.339 135.841 260.396C136.132 260.454 136.433 260.424 136.706 260.311C136.98 260.198 137.213 260.006 137.378 259.76C137.542 259.514 137.63 259.224 137.63 258.928C137.63 258.531 137.472 258.151 137.191 257.87C136.911 257.589 136.53 257.432 136.133 257.431Z" fill="#F7B501"/>
<path d="M163.959 220.215H154.344C154.206 220.215 154.073 220.16 153.975 220.062C153.876 219.964 153.821 219.83 153.821 219.692C153.821 219.553 153.876 219.42 153.975 219.322C154.073 219.224 154.206 219.168 154.344 219.168H163.959C164.098 219.168 164.231 219.224 164.329 219.322C164.427 219.42 164.482 219.553 164.482 219.692C164.482 219.83 164.427 219.964 164.329 220.062C164.231 220.16 164.098 220.215 163.959 220.215Z" fill="#F7B501"/>
<path d="M181.935 194.986H170.965C170.826 194.986 170.693 194.931 170.595 194.832C170.497 194.734 170.441 194.601 170.441 194.462C170.441 194.324 170.497 194.191 170.595 194.092C170.693 193.994 170.826 193.939 170.965 193.939H181.935C182.074 193.939 182.207 193.994 182.305 194.092C182.403 194.191 182.458 194.324 182.458 194.462C182.458 194.601 182.403 194.734 182.305 194.832C182.207 194.931 182.074 194.986 181.935 194.986Z" fill="#F7B501"/>
<path d="M151.414 259.45H142.465C142.394 259.454 142.323 259.443 142.256 259.418C142.19 259.394 142.129 259.356 142.077 259.307C142.025 259.258 141.984 259.199 141.956 259.134C141.928 259.069 141.914 258.998 141.914 258.927C141.914 258.856 141.928 258.786 141.956 258.721C141.984 258.655 142.025 258.596 142.077 258.547C142.129 258.498 142.19 258.461 142.256 258.436C142.323 258.412 142.394 258.401 142.465 258.405H151.414C151.485 258.401 151.556 258.412 151.623 258.436C151.69 258.461 151.751 258.498 151.803 258.547C151.854 258.596 151.895 258.655 151.923 258.721C151.952 258.786 151.966 258.856 151.966 258.927C151.966 258.998 151.952 259.069 151.923 259.134C151.895 259.199 151.854 259.258 151.803 259.307C151.751 259.356 151.69 259.394 151.623 259.418C151.556 259.443 151.485 259.454 151.414 259.45Z" fill="#F7B501"/>
<path d="M87.3707 185.546C87.0189 185.546 86.6751 185.441 86.3827 185.246C86.0902 185.05 85.8623 184.773 85.7277 184.447C85.5931 184.122 85.5578 183.765 85.6265 183.42C85.6951 183.075 85.8645 182.758 86.1132 182.509C86.3619 182.26 86.6788 182.091 87.0237 182.022C87.3687 181.954 87.7263 181.989 88.0512 182.123C88.3762 182.258 88.6539 182.486 88.8494 182.779C89.0448 183.071 89.1491 183.415 89.1491 183.767C89.1487 184.238 88.9612 184.691 88.6277 185.024C88.2943 185.358 87.8422 185.545 87.3707 185.546ZM87.3707 182.72C87.1637 182.72 86.9615 182.782 86.7894 182.897C86.6173 183.012 86.4832 183.175 86.404 183.366C86.3248 183.558 86.3041 183.768 86.3445 183.971C86.3849 184.174 86.4845 184.36 86.6308 184.507C86.7772 184.653 86.9636 184.753 87.1666 184.793C87.3695 184.834 87.5799 184.813 87.7711 184.734C87.9623 184.654 88.1257 184.52 88.2406 184.348C88.3556 184.176 88.417 183.974 88.417 183.767C88.4149 183.491 88.3038 183.226 88.1078 183.032C87.9118 182.837 87.6468 182.728 87.3707 182.728V182.72Z" fill="#F7B501"/>
<path d="M90.3687 247.54L105.469 246.266L111.011 224.952L90.3687 247.54Z" fill="#35938D"/>
<path d="M90.3688 248.096C90.2616 248.095 90.1567 248.064 90.0671 248.005C89.9774 247.946 89.9067 247.862 89.8635 247.764C89.8203 247.666 89.8064 247.557 89.8236 247.451C89.8407 247.345 89.8882 247.247 89.9602 247.167L110.603 224.577C110.686 224.486 110.798 224.425 110.92 224.404C111.043 224.383 111.168 224.404 111.277 224.463C111.386 224.523 111.472 224.617 111.521 224.731C111.571 224.844 111.58 224.971 111.549 225.091L106.004 246.406C105.976 246.517 105.913 246.616 105.826 246.69C105.738 246.764 105.63 246.809 105.515 246.819L90.4168 248.094L90.3688 248.096ZM109.908 226.979L91.7355 246.868L105.029 245.746L109.908 226.979Z" fill="#1B4A47"/>
<path d="M75.9233 234.364L75.8057 219.209L96.5165 211.73L75.9233 234.364Z" fill="#35938D"/>
<path d="M75.9233 234.919C75.777 234.918 75.6368 234.86 75.533 234.757C75.4293 234.654 75.3704 234.514 75.3692 234.368L75.25 219.213C75.2493 219.099 75.2841 218.986 75.3498 218.892C75.4155 218.798 75.5088 218.726 75.6168 218.687L96.3276 211.213C96.4442 211.171 96.5714 211.17 96.689 211.208C96.8066 211.247 96.9079 211.324 96.9767 211.427C97.0455 211.53 97.078 211.653 97.0689 211.777C97.0598 211.9 97.0097 212.017 96.9266 212.109L76.3335 234.744C76.2809 234.8 76.2173 234.844 76.1467 234.874C76.0761 234.905 76 234.92 75.9233 234.919ZM76.3629 219.593L76.4666 232.937L94.5988 213.012L76.3629 219.593Z" fill="#1B4A47"/>
<path d="M85.4438 235.087L70.1982 250.548L84.0415 233.821L85.4438 235.087Z" fill="#F7B501"/>
<path d="M70.1983 250.746C70.1491 250.747 70.1016 250.728 70.0652 250.695C70.0274 250.661 70.0043 250.613 70.0005 250.562C69.9968 250.511 70.0127 250.461 70.0451 250.421L83.8899 233.702C83.9069 233.681 83.9279 233.664 83.9515 233.652C83.9752 233.64 84.0011 233.633 84.0277 233.631C84.0556 233.628 84.0838 233.631 84.1105 233.64C84.1371 233.649 84.1616 233.663 84.1825 233.682L85.5847 234.948C85.6242 234.985 85.6475 235.036 85.6497 235.09C85.6503 235.117 85.6455 235.144 85.6356 235.168C85.6258 235.193 85.6111 235.215 85.5925 235.234L70.3392 250.689C70.3016 250.726 70.251 250.747 70.1983 250.746ZM84.0602 234.106L73.2521 247.169L85.1576 235.094L84.0602 234.106Z" fill="#1B4A47"/>
<path d="M90.5469 239.814L75.3013 255.273L89.1461 238.546L90.5469 239.814Z" fill="#F7B501"/>
<path d="M75.3012 255.471C75.2519 255.472 75.2042 255.454 75.1681 255.42C75.1304 255.386 75.1073 255.339 75.1036 255.288C75.0998 255.237 75.1157 255.187 75.148 255.148L88.9928 238.428C89.0098 238.408 89.0307 238.391 89.0544 238.378C89.0781 238.366 89.104 238.359 89.1306 238.357C89.1572 238.355 89.1839 238.358 89.2092 238.367C89.2344 238.375 89.2577 238.389 89.2776 238.407L90.6799 239.674C90.6998 239.692 90.7158 239.714 90.727 239.738C90.7382 239.762 90.7443 239.789 90.7449 239.815C90.7458 239.842 90.7412 239.869 90.7313 239.894C90.7215 239.919 90.7066 239.942 90.6876 239.961L75.442 255.42C75.4231 255.438 75.4009 255.451 75.3768 255.46C75.3526 255.469 75.3269 255.472 75.3012 255.471ZM89.1677 238.832L78.3565 251.895L90.262 239.82L89.1677 238.832Z" fill="#1B4A47"/>
<path d="M87.8461 237.312L76.6216 248.324L86.4453 236.046L87.8461 237.312Z" fill="#F7B501"/>
<path d="M76.62 248.522C76.5829 248.521 76.5467 248.51 76.5154 248.49C76.4842 248.47 76.4591 248.442 76.4431 248.409C76.427 248.375 76.4205 248.338 76.4245 248.301C76.4284 248.264 76.4425 248.229 76.4652 248.2L86.2889 235.922C86.3058 235.901 86.3269 235.883 86.3508 235.87C86.3748 235.857 86.4011 235.85 86.4282 235.847C86.4562 235.844 86.4845 235.847 86.5112 235.856C86.538 235.865 86.5625 235.879 86.583 235.899L87.9853 237.165C88.0053 237.183 88.0213 237.206 88.0325 237.23C88.0437 237.255 88.0497 237.282 88.0503 237.309C88.0509 237.336 88.046 237.363 88.0359 237.388C88.0258 237.413 88.0107 237.435 87.9915 237.454L76.7593 248.466C76.7218 248.502 76.6719 248.522 76.62 248.522ZM86.4669 236.334L78.8317 245.876L87.5565 237.318L86.4669 236.334Z" fill="#1B4A47"/>
<path d="M92.9062 237.139L86.584 231.26L84.1149 233.917L90.4372 239.795L92.9062 237.139Z" fill="white"/>
<path d="M90.4291 240.348C90.2881 240.346 90.1531 240.291 90.0515 240.193L83.7303 234.31C83.6227 234.21 83.5593 234.071 83.5541 233.924C83.5488 233.776 83.6022 233.633 83.7025 233.525L86.1712 230.873C86.2716 230.766 86.4106 230.702 86.5578 230.697C86.7049 230.692 86.8481 230.745 86.9559 230.846L93.277 236.728C93.3846 236.828 93.4481 236.967 93.4535 237.114C93.4568 237.262 93.4011 237.406 93.2987 237.513L90.83 240.168C90.7788 240.224 90.7169 240.268 90.648 240.299C90.5791 240.33 90.5046 240.347 90.4291 240.348ZM84.8927 233.886L90.4059 239.009L92.1084 237.165L86.5999 232.042L84.8927 233.886Z" fill="#1B4A47"/>
<path d="M116.052 212.347C119.055 211.103 120.48 207.66 119.237 204.657C117.993 201.654 114.551 200.227 111.548 201.471C108.545 202.715 107.12 206.158 108.363 209.162C109.607 212.165 113.049 213.591 116.052 212.347Z" fill="#1B4A47"/>
<path d="M124.766 195.3C120.779 191.662 110.871 196.035 107.233 200.025L82.5122 227.143L96.9468 240.317L121.671 213.196C125.31 209.208 128.754 198.936 124.766 195.3ZM119.414 209.437C119.013 210.539 118.293 211.497 117.348 212.19C116.402 212.883 115.271 213.279 114.1 213.33C112.929 213.38 111.769 213.082 110.767 212.473C109.765 211.864 108.966 210.972 108.471 209.909C107.976 208.846 107.807 207.66 107.986 206.501C108.166 205.342 108.684 204.262 109.477 203.398C110.269 202.534 111.301 201.924 112.44 201.646C113.579 201.368 114.775 201.434 115.876 201.836C117.353 202.375 118.555 203.478 119.219 204.904C119.882 206.329 119.953 207.96 119.414 209.437Z" fill="white"/>
<path d="M96.9469 240.87C96.8087 240.87 96.6754 240.818 96.5739 240.724L82.1332 227.553C82.0249 227.454 81.9604 227.315 81.9537 227.169C81.947 227.022 81.9988 226.878 82.0976 226.77L106.825 199.65C108.756 197.531 112.242 195.422 115.694 194.275C119.843 192.901 123.199 193.117 125.135 194.894C127.071 196.672 127.608 199.983 126.624 204.246C125.801 207.793 124.021 211.456 122.089 213.574L97.3571 240.688C97.3081 240.742 97.249 240.786 97.1831 240.817C97.1172 240.847 97.0459 240.865 96.9732 240.868L96.9469 240.87ZM83.2863 227.107L96.9067 239.531L121.264 212.821C123.05 210.863 124.768 207.315 125.539 203.997C126.42 200.201 126.003 197.186 124.394 195.716C122.784 194.247 119.741 194.11 116.043 195.336C112.805 196.408 109.43 198.446 107.644 200.404L83.2863 227.107ZM113.842 213.894C112.24 213.898 110.693 213.31 109.498 212.243C108.303 211.176 107.544 209.705 107.366 208.112C107.189 206.52 107.606 204.917 108.537 203.613C109.468 202.309 110.848 201.395 112.411 201.046C113.975 200.697 115.612 200.938 117.009 201.723C118.406 202.507 119.465 203.78 119.981 205.297C120.497 206.814 120.435 208.468 119.807 209.942C119.178 211.417 118.028 212.607 116.576 213.284C115.722 213.683 114.791 213.891 113.849 213.894H113.842ZM113.842 202.03C112.86 202.03 111.896 202.3 111.056 202.811C110.216 203.321 109.532 204.052 109.079 204.924C108.625 205.796 108.419 206.776 108.484 207.757C108.548 208.738 108.88 209.682 109.444 210.487C110.007 211.293 110.781 211.928 111.681 212.324C112.58 212.72 113.571 212.862 114.545 212.734C115.52 212.606 116.44 212.213 117.207 211.598C117.974 210.984 118.558 210.17 118.894 209.247C119.19 208.434 119.285 207.563 119.172 206.706C119.059 205.849 118.741 205.032 118.245 204.324C117.75 203.616 117.091 203.038 116.324 202.638C115.558 202.239 114.707 202.03 113.842 202.03Z" fill="#1B4A47"/>
</g>
<defs>
<clipPath id="clip0_1151_2748">
<rect width="113" height="94" fill="white" transform="translate(70 177)"/>
</clipPath>
</defs>
</svg>
