<svg width="298" height="355" viewBox="0 0 298 355" fill="none" xmlns="http://www.w3.org/2000/svg">
<rect x="1" y="1" width="296" height="353" rx="15" fill="#FBFBFB"/>
<rect x="1" y="1" width="296" height="353" rx="15" stroke="#F3F3F3" stroke-width="2"/>
<path d="M42.128 65V45.4H44.368L52.516 58.812H51.06L59.208 45.4H61.448V65H58.228V51.056L58.956 51.252L52.908 61.192H50.668L44.62 51.252L45.348 51.056V65H42.128ZM70.9063 65.28C69.693 65.28 68.5916 64.972 67.6023 64.356C66.6316 63.74 65.857 62.9093 65.2783 61.864C64.7183 60.8 64.4383 59.6147 64.4383 58.308C64.4383 56.9827 64.7183 55.7973 65.2783 54.752C65.857 53.688 66.6316 52.848 67.6023 52.232C68.5916 51.5973 69.693 51.28 70.9063 51.28C71.933 51.28 72.8383 51.504 73.6223 51.952C74.425 52.3813 75.0596 52.9787 75.5263 53.744C75.993 54.5093 76.2263 55.3773 76.2263 56.348V60.212C76.2263 61.1827 75.993 62.0507 75.5263 62.816C75.0783 63.5813 74.453 64.188 73.6503 64.636C72.8476 65.0653 71.933 65.28 70.9063 65.28ZM71.4103 62.368C72.549 62.368 73.4636 61.9853 74.1543 61.22C74.8636 60.4547 75.2183 59.4747 75.2183 58.28C75.2183 57.4773 75.0596 56.768 74.7423 56.152C74.425 55.536 73.977 55.06 73.3983 54.724C72.8383 54.3693 72.1756 54.192 71.4103 54.192C70.6636 54.192 70.001 54.3693 69.4223 54.724C68.8623 55.06 68.4143 55.536 68.0783 56.152C67.761 56.768 67.6023 57.4773 67.6023 58.28C67.6023 59.0827 67.761 59.792 68.0783 60.408C68.4143 61.024 68.8623 61.5093 69.4223 61.864C70.001 62.2 70.6636 62.368 71.4103 62.368ZM75.0223 65V61.388L75.5543 58.112L75.0223 54.864V51.56H78.1023V65H75.0223ZM90.7325 65V57.244C90.7325 56.348 90.4432 55.6107 89.8645 55.032C89.3045 54.4533 88.5765 54.164 87.6805 54.164C87.0832 54.164 86.5512 54.2947 86.0845 54.556C85.6178 54.8173 85.2538 55.1813 84.9925 55.648C84.7312 56.1147 84.6005 56.6467 84.6005 57.244L83.3965 56.572C83.3965 55.5453 83.6205 54.64 84.0685 53.856C84.5165 53.0533 85.1325 52.428 85.9165 51.98C86.7192 51.5133 87.6152 51.28 88.6045 51.28C89.6125 51.28 90.5085 51.5413 91.2925 52.064C92.0765 52.568 92.6925 53.2307 93.1405 54.052C93.5885 54.8547 93.8125 55.6947 93.8125 56.572V65H90.7325ZM81.5205 65V51.56H84.6005V65H81.5205ZM102.57 65.28C101.357 65.28 100.256 64.972 99.2664 64.356C98.2957 63.74 97.521 62.9093 96.9424 61.864C96.3824 60.8 96.1024 59.6147 96.1024 58.308C96.1024 56.9827 96.3824 55.7973 96.9424 54.752C97.521 53.688 98.2957 52.848 99.2664 52.232C100.256 51.5973 101.357 51.28 102.57 51.28C103.597 51.28 104.502 51.504 105.286 51.952C106.089 52.3813 106.724 52.9787 107.19 53.744C107.657 54.5093 107.89 55.3773 107.89 56.348V60.212C107.89 61.1827 107.657 62.0507 107.19 62.816C106.742 63.5813 106.117 64.188 105.314 64.636C104.512 65.0653 103.597 65.28 102.57 65.28ZM103.074 62.368C104.213 62.368 105.128 61.9853 105.818 61.22C106.528 60.4547 106.882 59.4747 106.882 58.28C106.882 57.4773 106.724 56.768 106.406 56.152C106.089 55.536 105.641 55.06 105.062 54.724C104.502 54.3693 103.84 54.192 103.074 54.192C102.328 54.192 101.665 54.3693 101.086 54.724C100.526 55.06 100.078 55.536 99.7424 56.152C99.425 56.768 99.2664 57.4773 99.2664 58.28C99.2664 59.0827 99.425 59.792 99.7424 60.408C100.078 61.024 100.526 61.5093 101.086 61.864C101.665 62.2 102.328 62.368 103.074 62.368ZM106.686 65V61.388L107.218 58.112L106.686 54.864V51.56H109.766V65H106.686ZM118.785 70.88C117.366 70.88 116.125 70.6187 115.061 70.096C113.997 69.592 113.138 68.8733 112.485 67.94L114.501 65.924C115.042 66.596 115.658 67.1 116.349 67.436C117.039 67.772 117.87 67.94 118.841 67.94C120.054 67.94 121.015 67.6227 121.725 66.988C122.434 66.372 122.789 65.5227 122.789 64.44V61.136L123.321 58.168L122.789 55.172V51.56H125.869V64.44C125.869 65.728 125.57 66.848 124.973 67.8C124.375 68.7707 123.545 69.5267 122.481 70.068C121.417 70.6093 120.185 70.88 118.785 70.88ZM118.645 64.72C117.45 64.72 116.367 64.4307 115.397 63.852C114.445 63.2547 113.689 62.4427 113.129 61.416C112.587 60.3893 112.317 59.2413 112.317 57.972C112.317 56.7027 112.587 55.564 113.129 54.556C113.689 53.548 114.445 52.7547 115.397 52.176C116.367 51.5787 117.45 51.28 118.645 51.28C119.709 51.28 120.642 51.4947 121.445 51.924C122.247 52.3533 122.873 52.9507 123.321 53.716C123.769 54.4627 123.993 55.34 123.993 56.348V59.652C123.993 60.6413 123.759 61.5187 123.293 62.284C122.845 63.0493 122.219 63.6467 121.417 64.076C120.614 64.5053 119.69 64.72 118.645 64.72ZM119.261 61.808C120.007 61.808 120.661 61.6493 121.221 61.332C121.781 61.0147 122.21 60.576 122.509 60.016C122.826 59.4373 122.985 58.7653 122.985 58C122.985 57.2347 122.826 56.572 122.509 56.012C122.21 55.4333 121.781 54.9853 121.221 54.668C120.661 54.3507 120.007 54.192 119.261 54.192C118.514 54.192 117.851 54.3507 117.273 54.668C116.713 54.9853 116.274 55.4333 115.957 56.012C115.639 56.572 115.481 57.2347 115.481 58C115.481 58.7467 115.639 59.4093 115.957 59.988C116.274 60.5667 116.713 61.0147 117.273 61.332C117.851 61.6493 118.514 61.808 119.261 61.808ZM135.534 65.28C134.19 65.28 132.977 64.9813 131.894 64.384C130.83 63.768 129.981 62.928 129.346 61.864C128.73 60.8 128.422 59.6053 128.422 58.28C128.422 56.9547 128.73 55.7693 129.346 54.724C129.962 53.66 130.793 52.82 131.838 52.204C132.902 51.588 134.078 51.28 135.366 51.28C136.617 51.28 137.718 51.5693 138.67 52.148C139.641 52.7267 140.397 53.52 140.938 54.528C141.498 55.536 141.778 56.684 141.778 57.972C141.778 58.196 141.759 58.4293 141.722 58.672C141.703 58.896 141.666 59.148 141.61 59.428H130.578V56.908H140.014L138.866 57.916C138.829 57.0947 138.67 56.404 138.39 55.844C138.11 55.284 137.709 54.8547 137.186 54.556C136.682 54.2573 136.057 54.108 135.31 54.108C134.526 54.108 133.845 54.276 133.266 54.612C132.687 54.948 132.239 55.424 131.922 56.04C131.605 56.6373 131.446 57.356 131.446 58.196C131.446 59.036 131.614 59.7733 131.95 60.408C132.286 61.0427 132.762 61.5373 133.378 61.892C133.994 62.228 134.703 62.396 135.506 62.396C136.197 62.396 136.831 62.2747 137.41 62.032C138.007 61.7893 138.511 61.4347 138.922 60.968L140.882 62.956C140.229 63.7213 139.435 64.3 138.502 64.692C137.569 65.084 136.579 65.28 135.534 65.28ZM162.901 65L153.605 54.836C152.914 54.0707 152.391 53.3427 152.037 52.652C151.701 51.9613 151.533 51.196 151.533 50.356C151.533 49.3667 151.775 48.48 152.261 47.696C152.746 46.8933 153.409 46.2587 154.249 45.792C155.089 45.3253 156.05 45.092 157.133 45.092C157.954 45.092 158.701 45.232 159.373 45.512C160.045 45.7733 160.633 46.128 161.137 46.576C161.659 47.0053 162.089 47.4813 162.425 48.004L160.213 49.964C159.802 49.404 159.354 48.9467 158.869 48.592C158.402 48.2373 157.823 48.06 157.133 48.06C156.423 48.06 155.826 48.2747 155.341 48.704C154.855 49.1147 154.613 49.6373 154.613 50.272C154.613 50.9067 154.743 51.4293 155.005 51.84C155.266 52.2507 155.63 52.7267 156.097 53.268L166.597 65H162.901ZM156.209 65.28C154.865 65.28 153.689 65.028 152.681 64.524C151.691 64.0013 150.917 63.292 150.357 62.396C149.815 61.4813 149.545 60.4453 149.545 59.288C149.545 58.112 149.862 57.0573 150.497 56.124C151.15 55.1907 152.102 54.4347 153.353 53.856L154.781 55.732C154.09 56.1053 153.558 56.572 153.185 57.132C152.811 57.6733 152.625 58.364 152.625 59.204C152.625 59.876 152.774 60.4453 153.073 60.912C153.39 61.3787 153.829 61.7427 154.389 62.004C154.949 62.2467 155.593 62.368 156.321 62.368C157.273 62.368 158.057 62.172 158.673 61.78C159.307 61.388 159.783 60.9213 160.101 60.38L162.117 62.732C161.725 63.2173 161.221 63.656 160.605 64.048C159.989 64.4213 159.307 64.72 158.561 64.944C157.814 65.168 157.03 65.28 156.209 65.28ZM42.128 95V75.4H45.348V95H42.128ZM44.34 95V92.06H55.316V95H44.34ZM44.34 86.404V83.576H54.364V86.404H44.34ZM44.34 78.34V75.4H55.176V78.34H44.34ZM67.4356 95V87.244C67.4356 86.348 67.1463 85.6107 66.5676 85.032C66.0076 84.4533 65.2796 84.164 64.3836 84.164C63.7863 84.164 63.2543 84.2947 62.7876 84.556C62.321 84.8173 61.957 85.1813 61.6956 85.648C61.4343 86.1147 61.3036 86.6467 61.3036 87.244L60.0996 86.572C60.0996 85.5453 60.3236 84.64 60.7716 83.856C61.2196 83.0533 61.8356 82.428 62.6196 81.98C63.4223 81.5133 64.3183 81.28 65.3076 81.28C66.3156 81.28 67.2116 81.5413 67.9956 82.064C68.7796 82.568 69.3956 83.2307 69.8436 84.052C70.2916 84.8547 70.5156 85.6947 70.5156 86.572V95H67.4356ZM58.2236 95V81.56H61.3036V95H58.2236ZM79.2455 100.88C77.8268 100.88 76.5855 100.619 75.5215 100.096C74.4575 99.592 73.5988 98.8733 72.9455 97.94L74.9615 95.924C75.5028 96.596 76.1188 97.1 76.8095 97.436C77.5002 97.772 78.3308 97.94 79.3015 97.94C80.5148 97.94 81.4762 97.6227 82.1855 96.988C82.8948 96.372 83.2495 95.5227 83.2495 94.44V91.136L83.7815 88.168L83.2495 85.172V81.56H86.3295V94.44C86.3295 95.728 86.0308 96.848 85.4335 97.8C84.8362 98.7707 84.0055 99.5267 82.9415 100.068C81.8775 100.609 80.6455 100.88 79.2455 100.88ZM79.1055 94.72C77.9108 94.72 76.8282 94.4307 75.8575 93.852C74.9055 93.2547 74.1495 92.4427 73.5895 91.416C73.0482 90.3893 72.7775 89.2413 72.7775 87.972C72.7775 86.7027 73.0482 85.564 73.5895 84.556C74.1495 83.548 74.9055 82.7547 75.8575 82.176C76.8282 81.5787 77.9108 81.28 79.1055 81.28C80.1695 81.28 81.1028 81.4947 81.9055 81.924C82.7082 82.3533 83.3335 82.9507 83.7815 83.716C84.2295 84.4627 84.4535 85.34 84.4535 86.348V89.652C84.4535 90.6413 84.2202 91.5187 83.7535 92.284C83.3055 93.0493 82.6802 93.6467 81.8775 94.076C81.0748 94.5053 80.1508 94.72 79.1055 94.72ZM79.7215 91.808C80.4682 91.808 81.1215 91.6493 81.6815 91.332C82.2415 91.0147 82.6708 90.576 82.9695 90.016C83.2868 89.4373 83.4455 88.7653 83.4455 88C83.4455 87.2347 83.2868 86.572 82.9695 86.012C82.6708 85.4333 82.2415 84.9853 81.6815 84.668C81.1215 84.3507 80.4682 84.192 79.7215 84.192C78.9748 84.192 78.3122 84.3507 77.7335 84.668C77.1735 84.9853 76.7348 85.4333 76.4175 86.012C76.1002 86.572 75.9415 87.2347 75.9415 88C75.9415 88.7467 76.1002 89.4093 76.4175 89.988C76.7348 90.5667 77.1735 91.0147 77.7335 91.332C78.3122 91.6493 78.9748 91.808 79.7215 91.808ZM95.379 95.28C94.1656 95.28 93.0643 94.972 92.075 94.356C91.1043 93.74 90.3296 92.9093 89.751 91.864C89.191 90.8 88.911 89.6147 88.911 88.308C88.911 86.9827 89.191 85.7973 89.751 84.752C90.3296 83.688 91.1043 82.848 92.075 82.232C93.0643 81.5973 94.1656 81.28 95.379 81.28C96.4056 81.28 97.311 81.504 98.095 81.952C98.8976 82.3813 99.5323 82.9787 99.999 83.744C100.466 84.5093 100.699 85.3773 100.699 86.348V90.212C100.699 91.1827 100.466 92.0507 99.999 92.816C99.551 93.5813 98.9256 94.188 98.123 94.636C97.3203 95.0653 96.4056 95.28 95.379 95.28ZM95.883 92.368C97.0216 92.368 97.9363 91.9853 98.627 91.22C99.3363 90.4547 99.691 89.4747 99.691 88.28C99.691 87.4773 99.5323 86.768 99.215 86.152C98.8976 85.536 98.4496 85.06 97.871 84.724C97.311 84.3693 96.6483 84.192 95.883 84.192C95.1363 84.192 94.4736 84.3693 93.895 84.724C93.335 85.06 92.887 85.536 92.551 86.152C92.2336 86.768 92.075 87.4773 92.075 88.28C92.075 89.0827 92.2336 89.792 92.551 90.408C92.887 91.024 93.335 91.5093 93.895 91.864C94.4736 92.2 95.1363 92.368 95.883 92.368ZM99.495 95V91.388L100.027 88.112L99.495 84.864V81.56H102.575V95H99.495ZM111.593 100.88C110.174 100.88 108.933 100.619 107.869 100.096C106.805 99.592 105.946 98.8733 105.293 97.94L107.309 95.924C107.85 96.596 108.466 97.1 109.157 97.436C109.848 97.772 110.678 97.94 111.649 97.94C112.862 97.94 113.824 97.6227 114.533 96.988C115.242 96.372 115.597 95.5227 115.597 94.44V91.136L116.129 88.168L115.597 85.172V81.56H118.677V94.44C118.677 95.728 118.378 96.848 117.781 97.8C117.184 98.7707 116.353 99.5267 115.289 100.068C114.225 100.609 112.993 100.88 111.593 100.88ZM111.453 94.72C110.258 94.72 109.176 94.4307 108.205 93.852C107.253 93.2547 106.497 92.4427 105.937 91.416C105.396 90.3893 105.125 89.2413 105.125 87.972C105.125 86.7027 105.396 85.564 105.937 84.556C106.497 83.548 107.253 82.7547 108.205 82.176C109.176 81.5787 110.258 81.28 111.453 81.28C112.517 81.28 113.45 81.4947 114.253 81.924C115.056 82.3533 115.681 82.9507 116.129 83.716C116.577 84.4627 116.801 85.34 116.801 86.348V89.652C116.801 90.6413 116.568 91.5187 116.101 92.284C115.653 93.0493 115.028 93.6467 114.225 94.076C113.422 94.5053 112.498 94.72 111.453 94.72ZM112.069 91.808C112.816 91.808 113.469 91.6493 114.029 91.332C114.589 91.0147 115.018 90.576 115.317 90.016C115.634 89.4373 115.793 88.7653 115.793 88C115.793 87.2347 115.634 86.572 115.317 86.012C115.018 85.4333 114.589 84.9853 114.029 84.668C113.469 84.3507 112.816 84.192 112.069 84.192C111.322 84.192 110.66 84.3507 110.081 84.668C109.521 84.9853 109.082 85.4333 108.765 86.012C108.448 86.572 108.289 87.2347 108.289 88C108.289 88.7467 108.448 89.4093 108.765 89.988C109.082 90.5667 109.521 91.0147 110.081 91.332C110.66 91.6493 111.322 91.808 112.069 91.808ZM128.343 95.28C126.999 95.28 125.785 94.9813 124.703 94.384C123.639 93.768 122.789 92.928 122.155 91.864C121.539 90.8 121.231 89.6053 121.231 88.28C121.231 86.9547 121.539 85.7693 122.155 84.724C122.771 83.66 123.601 82.82 124.647 82.204C125.711 81.588 126.887 81.28 128.175 81.28C129.425 81.28 130.527 81.5693 131.479 82.148C132.449 82.7267 133.205 83.52 133.747 84.528C134.307 85.536 134.587 86.684 134.587 87.972C134.587 88.196 134.568 88.4293 134.531 88.672C134.512 88.896 134.475 89.148 134.419 89.428H123.387V86.908H132.823L131.675 87.916C131.637 87.0947 131.479 86.404 131.199 85.844C130.919 85.284 130.517 84.8547 129.995 84.556C129.491 84.2573 128.865 84.108 128.119 84.108C127.335 84.108 126.653 84.276 126.075 84.612C125.496 84.948 125.048 85.424 124.731 86.04C124.413 86.6373 124.255 87.356 124.255 88.196C124.255 89.036 124.423 89.7733 124.759 90.408C125.095 91.0427 125.571 91.5373 126.187 91.892C126.803 92.228 127.512 92.396 128.315 92.396C129.005 92.396 129.64 92.2747 130.219 92.032C130.816 91.7893 131.32 91.4347 131.731 90.968L133.691 92.956C133.037 93.7213 132.244 94.3 131.311 94.692C130.377 95.084 129.388 95.28 128.343 95.28Z" fill="#101010"/>
<path d="M188 0H298V110H288C232.772 110 188 65.2285 188 10V0Z" fill="#E0ECF4"/>
<path d="M247.456 61.464L260.872 47.216C261.981 46.0373 262.883 44.98 263.576 44.044C264.269 43.108 264.772 42.224 265.084 41.392C265.396 40.56 265.552 39.7107 265.552 38.844C265.552 37.2147 265.015 35.9493 263.94 35.048C262.9 34.112 261.565 33.644 259.936 33.644C258.203 33.644 256.677 34.0773 255.36 34.944C254.043 35.8107 252.864 37.1627 251.824 39L247.664 35.568C249.085 33.1067 250.836 31.252 252.916 30.004C254.996 28.7213 257.405 28.08 260.144 28.08C262.397 28.08 264.373 28.5307 266.072 29.432C267.771 30.3333 269.088 31.5987 270.024 33.228C270.96 34.8227 271.428 36.6773 271.428 38.792C271.428 40.3173 271.237 41.6867 270.856 42.9C270.509 44.0787 269.903 45.2747 269.036 46.488C268.169 47.6667 266.973 49.0533 265.448 50.648L255.152 61.308L247.456 61.464ZM247.456 65V61.464L252.604 59.644H272.156V65H247.456Z" fill="#101010"/>
<path d="M42.16 127.072V126.08H45.36C46.0853 126.08 46.64 125.899 47.024 125.536C47.408 125.163 47.6 124.667 47.6 124.048C47.6 123.451 47.408 122.965 47.024 122.592C46.64 122.208 46.0853 122.016 45.36 122.016H42.16V120.992H45.36C46.0747 120.992 46.688 121.125 47.2 121.392C47.712 121.648 48.1013 122.005 48.368 122.464C48.6453 122.923 48.784 123.445 48.784 124.032C48.784 124.64 48.6453 125.173 48.368 125.632C48.1013 126.091 47.712 126.448 47.2 126.704C46.688 126.949 46.0747 127.072 45.36 127.072H42.16ZM41.408 132V120.992H42.576V132H41.408ZM48.064 132L43.936 126.912L45.072 126.544L49.568 132H48.064ZM53.9557 132.16C53.3478 132.16 52.8038 132.021 52.3238 131.744C51.8438 131.456 51.4651 131.067 51.1878 130.576C50.9211 130.085 50.7878 129.509 50.7878 128.848V124.48H51.9238V128.8C51.9238 129.259 52.0038 129.659 52.1638 130C52.3344 130.341 52.5744 130.608 52.8838 130.8C53.1931 130.992 53.5504 131.088 53.9557 131.088C54.5851 131.088 55.0811 130.88 55.4438 130.464C55.8171 130.048 56.0038 129.493 56.0038 128.8V124.48H57.1238V128.848C57.1238 129.499 56.9904 130.075 56.7238 130.576C56.4571 131.077 56.0838 131.467 55.6038 131.744C55.1238 132.021 54.5744 132.16 53.9557 132.16ZM64.6861 132V127.584C64.6861 126.923 64.4888 126.389 64.0941 125.984C63.7101 125.568 63.1981 125.36 62.5581 125.36C62.1208 125.36 61.7368 125.456 61.4061 125.648C61.0755 125.84 60.8141 126.101 60.6221 126.432C60.4301 126.763 60.3341 127.141 60.3341 127.568L59.8221 127.28C59.8221 126.715 59.9555 126.208 60.2221 125.76C60.4888 125.312 60.8461 124.96 61.2941 124.704C61.7528 124.448 62.2755 124.32 62.8621 124.32C63.4381 124.32 63.9501 124.459 64.3981 124.736C64.8461 125.013 65.1928 125.387 65.4381 125.856C65.6941 126.325 65.8221 126.837 65.8221 127.392V132H64.6861ZM59.2141 132V124.48H60.3341V132H59.2141ZM74.8268 132.16C74.0694 132.16 73.3921 131.989 72.7948 131.648C72.1974 131.307 71.7228 130.837 71.3708 130.24C71.0294 129.643 70.8588 128.971 70.8588 128.224C70.8588 127.488 71.0294 126.827 71.3708 126.24C71.7121 125.643 72.1761 125.173 72.7628 124.832C73.3494 124.491 74.0054 124.32 74.7308 124.32C75.4134 124.32 76.0161 124.475 76.5388 124.784C77.0721 125.093 77.4881 125.525 77.7868 126.08C78.0961 126.624 78.2508 127.253 78.2508 127.968C78.2508 128.053 78.2454 128.155 78.2348 128.272C78.2241 128.379 78.2028 128.507 78.1708 128.656H71.6588V127.696H77.5628L77.1628 128.048C77.1734 127.493 77.0774 127.019 76.8748 126.624C76.6828 126.219 76.4001 125.909 76.0268 125.696C75.6641 125.472 75.2214 125.36 74.6988 125.36C74.1548 125.36 73.6801 125.477 73.2748 125.712C72.8694 125.947 72.5494 126.277 72.3148 126.704C72.0908 127.12 71.9788 127.616 71.9788 128.192C71.9788 128.768 72.0961 129.275 72.3307 129.712C72.5761 130.149 72.9121 130.491 73.3388 130.736C73.7761 130.981 74.2774 131.104 74.8428 131.104C75.3014 131.104 75.7228 131.024 76.1068 130.864C76.4908 130.693 76.8161 130.443 77.0828 130.112L77.8028 130.848C77.4508 131.264 77.0134 131.589 76.4908 131.824C75.9788 132.048 75.4241 132.16 74.8268 132.16ZM82.4631 132L78.9911 124.48H80.2391L83.1671 131.056H82.4631L85.4071 124.48H86.6231L83.1191 132H82.4631ZM91.1705 132.16C90.4132 132.16 89.7358 131.989 89.1385 131.648C88.5412 131.307 88.0665 130.837 87.7145 130.24C87.3732 129.643 87.2025 128.971 87.2025 128.224C87.2025 127.488 87.3732 126.827 87.7145 126.24C88.0558 125.643 88.5198 125.173 89.1065 124.832C89.6932 124.491 90.3492 124.32 91.0745 124.32C91.7572 124.32 92.3598 124.475 92.8825 124.784C93.4158 125.093 93.8318 125.525 94.1305 126.08C94.4398 126.624 94.5945 127.253 94.5945 127.968C94.5945 128.053 94.5892 128.155 94.5785 128.272C94.5678 128.379 94.5465 128.507 94.5145 128.656H88.0025V127.696H93.9065L93.5065 128.048C93.5172 127.493 93.4212 127.019 93.2185 126.624C93.0265 126.219 92.7438 125.909 92.3705 125.696C92.0078 125.472 91.5652 125.36 91.0425 125.36C90.4985 125.36 90.0238 125.477 89.6185 125.712C89.2132 125.947 88.8932 126.277 88.6585 126.704C88.4345 127.12 88.3225 127.616 88.3225 128.192C88.3225 128.768 88.4398 129.275 88.6745 129.712C88.9198 130.149 89.2558 130.491 89.6825 130.736C90.1198 130.981 90.6212 131.104 91.1865 131.104C91.6452 131.104 92.0665 131.024 92.4505 130.864C92.8345 130.693 93.1598 130.443 93.4265 130.112L94.1465 130.848C93.7945 131.264 93.3572 131.589 92.8345 131.824C92.3225 132.048 91.7678 132.16 91.1705 132.16ZM96.3079 132V124.48H97.4279V132H96.3079ZM97.4279 127.616L96.9639 127.408C96.9639 126.459 97.1932 125.707 97.6519 125.152C98.1212 124.597 98.7612 124.32 99.5719 124.32C99.9452 124.32 100.287 124.389 100.596 124.528C100.905 124.656 101.193 124.864 101.46 125.152L100.724 125.936C100.543 125.733 100.34 125.589 100.116 125.504C99.9025 125.419 99.6572 125.376 99.3799 125.376C98.8039 125.376 98.3345 125.568 97.9719 125.952C97.6092 126.325 97.4279 126.88 97.4279 127.616ZM104.992 132.032L101.696 124.48H102.928L105.584 130.784H105.12L107.92 124.48H109.168L105.632 132.032H104.992ZM102.944 135.168L105.008 130.896L105.632 132.032L104.176 135.168H102.944ZM111.679 132V121.312H112.799V132H111.679ZM109.775 125.488V124.48H114.687V125.488H109.775ZM121.702 132V127.584C121.702 126.923 121.504 126.389 121.11 125.984C120.726 125.568 120.214 125.36 119.574 125.36C119.136 125.36 118.752 125.456 118.422 125.648C118.091 125.84 117.83 126.101 117.638 126.432C117.446 126.763 117.35 127.141 117.35 127.568L116.838 127.28C116.838 126.715 116.971 126.208 117.238 125.76C117.504 125.312 117.862 124.96 118.31 124.704C118.768 124.448 119.291 124.32 119.878 124.32C120.454 124.32 120.966 124.453 121.414 124.72C121.862 124.976 122.208 125.333 122.454 125.792C122.71 126.251 122.838 126.784 122.838 127.392V132H121.702ZM116.23 132V120.672H117.35V132H116.23ZM124.933 132V124.48H126.069V132H124.933ZM125.493 122.848C125.28 122.848 125.098 122.773 124.949 122.624C124.8 122.464 124.725 122.277 124.725 122.064C124.725 121.84 124.8 121.653 124.949 121.504C125.098 121.355 125.28 121.28 125.493 121.28C125.728 121.28 125.914 121.355 126.053 121.504C126.202 121.653 126.277 121.84 126.277 122.064C126.277 122.277 126.202 122.464 126.053 122.624C125.914 122.773 125.728 122.848 125.493 122.848ZM133.811 132V127.584C133.811 126.923 133.614 126.389 133.219 125.984C132.835 125.568 132.323 125.36 131.683 125.36C131.246 125.36 130.862 125.456 130.531 125.648C130.2 125.84 129.939 126.101 129.747 126.432C129.555 126.763 129.459 127.141 129.459 127.568L128.947 127.28C128.947 126.715 129.08 126.208 129.347 125.76C129.614 125.312 129.971 124.96 130.419 124.704C130.878 124.448 131.4 124.32 131.987 124.32C132.563 124.32 133.075 124.459 133.523 124.736C133.971 125.013 134.318 125.387 134.563 125.856C134.819 126.325 134.947 126.837 134.947 127.392V132H133.811ZM128.339 132V124.48H129.459V132H128.339ZM140.146 135.328C139.389 135.328 138.712 135.184 138.114 134.896C137.528 134.619 137.053 134.224 136.69 133.712L137.426 132.976C137.725 133.381 138.104 133.696 138.562 133.92C139.021 134.144 139.56 134.256 140.178 134.256C141.032 134.256 141.709 134.027 142.21 133.568C142.722 133.109 142.978 132.485 142.978 131.696V129.824L143.202 128.112L142.978 126.416V124.48H144.098V131.696C144.098 132.421 143.933 133.056 143.602 133.6C143.272 134.144 142.808 134.565 142.21 134.864C141.624 135.173 140.936 135.328 140.146 135.328ZM140.226 131.92C139.533 131.92 138.909 131.755 138.354 131.424C137.8 131.093 137.362 130.64 137.042 130.064C136.722 129.488 136.562 128.837 136.562 128.112C136.562 127.387 136.717 126.741 137.026 126.176C137.346 125.6 137.784 125.147 138.338 124.816C138.893 124.485 139.517 124.32 140.21 124.32C140.797 124.32 141.32 124.432 141.778 124.656C142.248 124.88 142.621 125.2 142.898 125.616C143.186 126.021 143.362 126.501 143.426 127.056V129.184C143.362 129.728 143.186 130.208 142.898 130.624C142.61 131.029 142.237 131.349 141.778 131.584C141.32 131.808 140.802 131.92 140.226 131.92ZM140.434 130.848C140.957 130.848 141.41 130.736 141.794 130.512C142.189 130.288 142.493 129.973 142.706 129.568C142.93 129.152 143.042 128.667 143.042 128.112C143.042 127.568 142.93 127.093 142.706 126.688C142.493 126.283 142.189 125.963 141.794 125.728C141.4 125.493 140.941 125.376 140.418 125.376C139.896 125.376 139.426 125.493 139.01 125.728C138.605 125.963 138.285 126.283 138.05 126.688C137.826 127.093 137.714 127.568 137.714 128.112C137.714 128.645 137.832 129.12 138.066 129.536C138.301 129.952 138.621 130.277 139.026 130.512C139.432 130.736 139.901 130.848 140.434 130.848ZM150.896 132V123.2C150.896 122.677 151.008 122.213 151.232 121.808C151.467 121.403 151.787 121.088 152.192 120.864C152.608 120.629 153.078 120.512 153.6 120.512C154.006 120.512 154.363 120.587 154.672 120.736C154.982 120.875 155.264 121.072 155.52 121.328L154.784 122.064C154.614 121.893 154.432 121.771 154.24 121.696C154.059 121.611 153.846 121.568 153.6 121.568C153.099 121.568 152.71 121.717 152.432 122.016C152.166 122.304 152.032 122.709 152.032 123.232V132H150.896ZM149.008 125.488V124.48H154.544V125.488H149.008ZM155.824 132V124.48H156.944V132H155.824ZM156.944 127.616L156.48 127.408C156.48 126.459 156.709 125.707 157.168 125.152C157.637 124.597 158.277 124.32 159.088 124.32C159.461 124.32 159.802 124.389 160.112 124.528C160.421 124.656 160.709 124.864 160.976 125.152L160.24 125.936C160.058 125.733 159.856 125.589 159.632 125.504C159.418 125.419 159.173 125.376 158.896 125.376C158.32 125.376 157.85 125.568 157.488 125.952C157.125 126.325 156.944 126.88 156.944 127.616ZM165.31 132.16C164.584 132.16 163.923 131.984 163.326 131.632C162.739 131.28 162.27 130.805 161.918 130.208C161.576 129.611 161.406 128.944 161.406 128.208C161.406 127.483 161.576 126.827 161.918 126.24C162.27 125.653 162.739 125.189 163.326 124.848C163.923 124.496 164.584 124.32 165.31 124.32C166.046 124.32 166.707 124.491 167.294 124.832C167.88 125.173 168.344 125.643 168.686 126.24C169.038 126.827 169.214 127.483 169.214 128.208C169.214 128.955 169.038 129.627 168.686 130.224C168.344 130.811 167.88 131.28 167.294 131.632C166.707 131.984 166.046 132.16 165.31 132.16ZM165.31 131.072C165.843 131.072 166.312 130.949 166.718 130.704C167.134 130.459 167.459 130.117 167.694 129.68C167.939 129.243 168.062 128.752 168.062 128.208C168.062 127.664 167.939 127.184 167.694 126.768C167.459 126.341 167.134 126.005 166.718 125.76C166.312 125.515 165.843 125.392 165.31 125.392C164.787 125.392 164.318 125.515 163.902 125.76C163.486 126.005 163.16 126.341 162.926 126.768C162.691 127.184 162.574 127.664 162.574 128.208C162.574 128.763 162.691 129.259 162.926 129.696C163.16 130.123 163.486 130.459 163.902 130.704C164.318 130.949 164.787 131.072 165.31 131.072ZM170.995 132V124.48H172.115V132H170.995ZM176.163 132V127.392C176.163 126.773 175.977 126.283 175.603 125.92C175.23 125.547 174.761 125.36 174.195 125.36C173.811 125.36 173.459 125.445 173.139 125.616C172.83 125.776 172.579 126.005 172.387 126.304C172.206 126.603 172.115 126.96 172.115 127.376L171.603 127.168C171.603 126.592 171.731 126.091 171.987 125.664C172.243 125.237 172.585 124.907 173.011 124.672C173.449 124.437 173.939 124.32 174.483 124.32C175.017 124.32 175.491 124.437 175.907 124.672C176.334 124.907 176.67 125.237 176.915 125.664C177.171 126.091 177.299 126.597 177.299 127.184V132H176.163ZM181.347 132V127.392C181.347 126.773 181.161 126.283 180.787 125.92C180.414 125.547 179.939 125.36 179.363 125.36C178.99 125.36 178.643 125.445 178.323 125.616C178.014 125.776 177.763 126.005 177.571 126.304C177.39 126.603 177.299 126.96 177.299 127.376L176.627 127.168C176.659 126.592 176.809 126.091 177.075 125.664C177.353 125.237 177.71 124.907 178.147 124.672C178.595 124.437 179.086 124.32 179.619 124.32C180.153 124.32 180.633 124.437 181.059 124.672C181.497 124.907 181.838 125.237 182.083 125.664C182.339 126.091 182.467 126.597 182.467 127.184V132H181.347ZM191.419 132.16C190.694 132.16 190.032 131.984 189.435 131.632C188.848 131.28 188.379 130.805 188.027 130.208C187.686 129.611 187.515 128.944 187.515 128.208C187.515 127.483 187.686 126.827 188.027 126.24C188.379 125.653 188.848 125.189 189.435 124.848C190.032 124.496 190.694 124.32 191.419 124.32C192.155 124.32 192.816 124.491 193.403 124.832C193.99 125.173 194.454 125.643 194.795 126.24C195.147 126.827 195.323 127.483 195.323 128.208C195.323 128.955 195.147 129.627 194.795 130.224C194.454 130.811 193.99 131.28 193.403 131.632C192.816 131.984 192.155 132.16 191.419 132.16ZM191.419 131.072C191.952 131.072 192.422 130.949 192.827 130.704C193.243 130.459 193.568 130.117 193.803 129.68C194.048 129.243 194.171 128.752 194.171 128.208C194.171 127.664 194.048 127.184 193.803 126.768C193.568 126.341 193.243 126.005 192.827 125.76C192.422 125.515 191.952 125.392 191.419 125.392C190.896 125.392 190.427 125.515 190.011 125.76C189.595 126.005 189.27 126.341 189.035 126.768C188.8 127.184 188.683 127.664 188.683 128.208C188.683 128.763 188.8 129.259 189.035 129.696C189.27 130.123 189.595 130.459 190.011 130.704C190.427 130.949 190.896 131.072 191.419 131.072ZM202.577 132V127.584C202.577 126.923 202.379 126.389 201.985 125.984C201.601 125.568 201.089 125.36 200.449 125.36C200.011 125.36 199.627 125.456 199.297 125.648C198.966 125.84 198.705 126.101 198.513 126.432C198.321 126.763 198.225 127.141 198.225 127.568L197.713 127.28C197.713 126.715 197.846 126.208 198.113 125.76C198.379 125.312 198.737 124.96 199.185 124.704C199.643 124.448 200.166 124.32 200.753 124.32C201.329 124.32 201.841 124.459 202.289 124.736C202.737 125.013 203.083 125.387 203.329 125.856C203.585 126.325 203.713 126.837 203.713 127.392V132H202.577ZM197.105 132V124.48H198.225V132H197.105ZM209.28 132.16C208.523 132.16 207.845 131.989 207.248 131.648C206.651 131.307 206.176 130.837 205.824 130.24C205.483 129.643 205.312 128.971 205.312 128.224C205.312 127.488 205.483 126.827 205.824 126.24C206.165 125.643 206.629 125.173 207.216 124.832C207.803 124.491 208.459 124.32 209.184 124.32C209.867 124.32 210.469 124.475 210.992 124.784C211.525 125.093 211.941 125.525 212.24 126.08C212.549 126.624 212.704 127.253 212.704 127.968C212.704 128.053 212.699 128.155 212.688 128.272C212.677 128.379 212.656 128.507 212.624 128.656H206.112V127.696H212.016L211.616 128.048C211.627 127.493 211.531 127.019 211.328 126.624C211.136 126.219 210.853 125.909 210.48 125.696C210.117 125.472 209.675 125.36 209.152 125.36C208.608 125.36 208.133 125.477 207.728 125.712C207.323 125.947 207.003 126.277 206.768 126.704C206.544 127.12 206.432 127.616 206.432 128.192C206.432 128.768 206.549 129.275 206.784 129.712C207.029 130.149 207.365 130.491 207.792 130.736C208.229 130.981 208.731 131.104 209.296 131.104C209.755 131.104 210.176 131.024 210.56 130.864C210.944 130.693 211.269 130.443 211.536 130.112L212.256 130.848C211.904 131.264 211.467 131.589 210.944 131.824C210.432 132.048 209.877 132.16 209.28 132.16ZM44.336 152.16C43.6427 152.16 43.0187 151.989 42.464 151.648C41.9093 151.307 41.4667 150.843 41.136 150.256C40.816 149.659 40.656 148.992 40.656 148.256C40.656 147.509 40.816 146.843 41.136 146.256C41.4667 145.659 41.9093 145.189 42.464 144.848C43.0187 144.496 43.6427 144.32 44.336 144.32C44.9013 144.32 45.4133 144.432 45.872 144.656C46.3307 144.88 46.7093 145.2 47.008 145.616C47.3173 146.021 47.4987 146.501 47.552 147.056V149.408C47.488 149.952 47.3067 150.432 47.008 150.848C46.72 151.253 46.3467 151.573 45.888 151.808C45.4293 152.043 44.912 152.16 44.336 152.16ZM44.528 151.088C45.0507 151.088 45.5093 150.971 45.904 150.736C46.2987 150.491 46.608 150.155 46.832 149.728C47.056 149.291 47.168 148.795 47.168 148.24C47.168 147.675 47.0507 147.179 46.816 146.752C46.592 146.325 46.2827 145.989 45.888 145.744C45.4933 145.499 45.0347 145.376 44.512 145.376C43.9893 145.376 43.5253 145.499 43.12 145.744C42.7147 145.989 42.3947 146.331 42.16 146.768C41.936 147.195 41.824 147.685 41.824 148.24C41.824 148.795 41.936 149.291 42.16 149.728C42.3947 150.155 42.7147 150.491 43.12 150.736C43.536 150.971 44.0053 151.088 44.528 151.088ZM48.224 152H47.104V149.984L47.328 148.128L47.104 146.32V140.672H48.224V152ZM53.7594 152.16C53.0447 152.16 52.4047 151.989 51.8394 151.648C51.274 151.296 50.826 150.827 50.4954 150.24C50.1754 149.653 50.0154 148.992 50.0154 148.256C50.0154 147.509 50.1754 146.843 50.4954 146.256C50.826 145.659 51.274 145.189 51.8394 144.848C52.4047 144.496 53.0394 144.32 53.7434 144.32C54.3194 144.32 54.8314 144.437 55.2794 144.672C55.738 144.896 56.106 145.216 56.3834 145.632C56.6714 146.037 56.8474 146.512 56.9114 147.056V149.408C56.8474 149.952 56.6714 150.432 56.3834 150.848C56.106 151.264 55.738 151.589 55.2794 151.824C54.8314 152.048 54.3247 152.16 53.7594 152.16ZM53.9354 151.088C54.714 151.088 55.338 150.827 55.8074 150.304C56.2874 149.781 56.5274 149.093 56.5274 148.24C56.5274 147.675 56.4154 147.179 56.1914 146.752C55.978 146.315 55.674 145.979 55.2794 145.744C54.8954 145.499 54.442 145.376 53.9194 145.376C53.386 145.376 52.9114 145.499 52.4954 145.744C52.09 145.989 51.7647 146.331 51.5194 146.768C51.2847 147.195 51.1674 147.685 51.1674 148.24C51.1674 148.795 51.2847 149.285 51.5194 149.712C51.7647 150.139 52.0954 150.475 52.5114 150.72C52.9274 150.965 53.402 151.088 53.9354 151.088ZM56.4634 152V149.984L56.6874 148.128L56.4634 146.32V144.48H57.5834V152H56.4634ZM62.1588 152.16C61.7534 152.16 61.3641 152.107 60.9908 152C60.6174 151.883 60.2761 151.723 59.9668 151.52C59.6681 151.317 59.4068 151.077 59.1828 150.8L59.9028 150.064C60.2014 150.427 60.5374 150.699 60.9108 150.88C61.2948 151.051 61.7214 151.136 62.1908 151.136C62.6921 151.136 63.0814 151.04 63.3588 150.848C63.6468 150.656 63.7908 150.389 63.7908 150.048C63.7908 149.728 63.6894 149.477 63.4868 149.296C63.2841 149.115 63.0228 148.971 62.7028 148.864C62.3934 148.757 62.0628 148.656 61.7108 148.56C61.3588 148.453 61.0228 148.325 60.7028 148.176C60.3828 148.016 60.1214 147.797 59.9188 147.52C59.7268 147.243 59.6308 146.88 59.6308 146.432C59.6308 146.005 59.7321 145.637 59.9348 145.328C60.1481 145.008 60.4468 144.763 60.8307 144.592C61.2254 144.411 61.6894 144.32 62.2228 144.32C62.7881 144.32 63.3001 144.421 63.7588 144.624C64.2174 144.827 64.5854 145.125 64.8628 145.52L64.1428 146.24C63.9188 145.952 63.6361 145.733 63.2948 145.584C62.9641 145.424 62.5908 145.344 62.1748 145.344C61.6948 145.344 61.3268 145.44 61.0707 145.632C60.8254 145.813 60.7028 146.053 60.7028 146.352C60.7028 146.64 60.8041 146.869 61.0068 147.04C61.2094 147.2 61.4654 147.333 61.7748 147.44C62.0948 147.536 62.4308 147.637 62.7828 147.744C63.1348 147.84 63.4708 147.973 63.7908 148.144C64.1108 148.304 64.3668 148.528 64.5588 148.816C64.7614 149.093 64.8628 149.472 64.8628 149.952C64.8628 150.624 64.6174 151.163 64.1268 151.568C63.6468 151.963 62.9908 152.16 62.1588 152.16ZM72.108 152V147.584C72.108 146.923 71.9107 146.389 71.516 145.984C71.132 145.568 70.62 145.36 69.98 145.36C69.5427 145.36 69.1587 145.456 68.828 145.648C68.4973 145.84 68.236 146.101 68.044 146.432C67.852 146.763 67.756 147.141 67.756 147.568L67.244 147.28C67.244 146.715 67.3773 146.208 67.644 145.76C67.9107 145.312 68.268 144.96 68.716 144.704C69.1747 144.448 69.6973 144.32 70.284 144.32C70.86 144.32 71.372 144.453 71.82 144.72C72.268 144.976 72.6147 145.333 72.86 145.792C73.116 146.251 73.244 146.784 73.244 147.392V152H72.108ZM66.636 152V140.672H67.756V152H66.636ZM79.2271 152.16C78.6511 152.16 78.1338 152.043 77.6751 151.808C77.2165 151.573 76.8378 151.253 76.5391 150.848C76.2511 150.432 76.0751 149.952 76.0111 149.408V147.056C76.0751 146.501 76.2565 146.021 76.5551 145.616C76.8538 145.2 77.2325 144.88 77.6911 144.656C78.1605 144.432 78.6725 144.32 79.2271 144.32C79.9205 144.32 80.5445 144.496 81.0991 144.848C81.6538 145.189 82.0911 145.659 82.4111 146.256C82.7418 146.843 82.9071 147.509 82.9071 148.256C82.9071 148.992 82.7471 149.653 82.4271 150.24C82.1071 150.827 81.6645 151.296 81.0991 151.648C80.5445 151.989 79.9205 152.16 79.2271 152.16ZM75.3391 152V140.672H76.4591V146.32L76.2351 148.128L76.4591 149.984V152H75.3391ZM79.0351 151.088C79.5685 151.088 80.0378 150.971 80.4431 150.736C80.8485 150.491 81.1631 150.155 81.3871 149.728C81.6218 149.291 81.7391 148.795 81.7391 148.24C81.7391 147.675 81.6218 147.179 81.3871 146.752C81.1631 146.325 80.8485 145.989 80.4431 145.744C80.0378 145.499 79.5738 145.376 79.0511 145.376C78.5285 145.376 78.0645 145.499 77.6591 145.744C77.2645 145.989 76.9551 146.325 76.7311 146.752C76.5071 147.179 76.3951 147.675 76.3951 148.24C76.3951 148.795 76.5071 149.291 76.7311 149.728C76.9551 150.155 77.2645 150.491 77.6591 150.736C78.0538 150.971 78.5125 151.088 79.0351 151.088ZM88.1065 152.16C87.3812 152.16 86.7198 151.984 86.1225 151.632C85.5358 151.28 85.0665 150.805 84.7145 150.208C84.3732 149.611 84.2025 148.944 84.2025 148.208C84.2025 147.483 84.3732 146.827 84.7145 146.24C85.0665 145.653 85.5358 145.189 86.1225 144.848C86.7198 144.496 87.3812 144.32 88.1065 144.32C88.8425 144.32 89.5038 144.491 90.0905 144.832C90.6772 145.173 91.1412 145.643 91.4825 146.24C91.8345 146.827 92.0105 147.483 92.0105 148.208C92.0105 148.955 91.8345 149.627 91.4825 150.224C91.1412 150.811 90.6772 151.28 90.0905 151.632C89.5038 151.984 88.8425 152.16 88.1065 152.16ZM88.1065 151.072C88.6398 151.072 89.1092 150.949 89.5145 150.704C89.9305 150.459 90.2558 150.117 90.4905 149.68C90.7358 149.243 90.8585 148.752 90.8585 148.208C90.8585 147.664 90.7358 147.184 90.4905 146.768C90.2558 146.341 89.9305 146.005 89.5145 145.76C89.1092 145.515 88.6398 145.392 88.1065 145.392C87.5838 145.392 87.1145 145.515 86.6985 145.76C86.2825 146.005 85.9572 146.341 85.7225 146.768C85.4878 147.184 85.3705 147.664 85.3705 148.208C85.3705 148.763 85.4878 149.259 85.7225 149.696C85.9572 150.123 86.2825 150.459 86.6985 150.704C87.1145 150.949 87.5838 151.072 88.1065 151.072ZM97.0563 152.16C96.3416 152.16 95.7016 151.989 95.1363 151.648C94.5709 151.296 94.1229 150.827 93.7923 150.24C93.4723 149.653 93.3123 148.992 93.3123 148.256C93.3123 147.509 93.4723 146.843 93.7923 146.256C94.1229 145.659 94.5709 145.189 95.1363 144.848C95.7016 144.496 96.3363 144.32 97.0403 144.32C97.6163 144.32 98.1283 144.437 98.5763 144.672C99.0349 144.896 99.4029 145.216 99.6803 145.632C99.9683 146.037 100.144 146.512 100.208 147.056V149.408C100.144 149.952 99.9683 150.432 99.6803 150.848C99.4029 151.264 99.0349 151.589 98.5763 151.824C98.1283 152.048 97.6216 152.16 97.0563 152.16ZM97.2323 151.088C98.0109 151.088 98.6349 150.827 99.1043 150.304C99.5843 149.781 99.8243 149.093 99.8243 148.24C99.8243 147.675 99.7123 147.179 99.4883 146.752C99.2749 146.315 98.9709 145.979 98.5763 145.744C98.1923 145.499 97.7389 145.376 97.2163 145.376C96.6829 145.376 96.2083 145.499 95.7923 145.744C95.3869 145.989 95.0616 146.331 94.8163 146.768C94.5816 147.195 94.4643 147.685 94.4643 148.24C94.4643 148.795 94.5816 149.285 94.8163 149.712C95.0616 150.139 95.3923 150.475 95.8083 150.72C96.2243 150.965 96.6989 151.088 97.2323 151.088ZM99.7603 152V149.984L99.9843 148.128L99.7603 146.32V144.48H100.88V152H99.7603ZM103.152 152V144.48H104.272V152H103.152ZM104.272 147.616L103.808 147.408C103.808 146.459 104.037 145.707 104.496 145.152C104.965 144.597 105.605 144.32 106.416 144.32C106.789 144.32 107.13 144.389 107.44 144.528C107.749 144.656 108.037 144.864 108.304 145.152L107.568 145.936C107.386 145.733 107.184 145.589 106.96 145.504C106.746 145.419 106.501 145.376 106.224 145.376C105.648 145.376 105.178 145.568 104.816 145.952C104.453 146.325 104.272 146.88 104.272 147.616ZM112.43 152.16C111.736 152.16 111.112 151.989 110.558 151.648C110.003 151.307 109.56 150.843 109.23 150.256C108.91 149.659 108.75 148.992 108.75 148.256C108.75 147.509 108.91 146.843 109.23 146.256C109.56 145.659 110.003 145.189 110.558 144.848C111.112 144.496 111.736 144.32 112.43 144.32C112.995 144.32 113.507 144.432 113.966 144.656C114.424 144.88 114.803 145.2 115.102 145.616C115.411 146.021 115.592 146.501 115.646 147.056V149.408C115.582 149.952 115.4 150.432 115.102 150.848C114.814 151.253 114.44 151.573 113.982 151.808C113.523 152.043 113.006 152.16 112.43 152.16ZM112.622 151.088C113.144 151.088 113.603 150.971 113.998 150.736C114.392 150.491 114.702 150.155 114.926 149.728C115.15 149.291 115.262 148.795 115.262 148.24C115.262 147.675 115.144 147.179 114.91 146.752C114.686 146.325 114.376 145.989 113.982 145.744C113.587 145.499 113.128 145.376 112.606 145.376C112.083 145.376 111.619 145.499 111.214 145.744C110.808 145.989 110.488 146.331 110.254 146.768C110.03 147.195 109.918 147.685 109.918 148.24C109.918 148.795 110.03 149.291 110.254 149.728C110.488 150.155 110.808 150.491 111.214 150.736C111.63 150.971 112.099 151.088 112.622 151.088ZM116.318 152H115.198V149.984L115.422 148.128L115.198 146.32V140.672H116.318V152ZM118.589 148.4V147.472H129.757V148.4H118.589ZM135.962 152.16C135.386 152.16 134.868 152.043 134.41 151.808C133.951 151.573 133.572 151.253 133.274 150.848C132.986 150.432 132.81 149.952 132.746 149.408V147.056C132.81 146.501 132.991 146.021 133.289 145.616C133.588 145.2 133.967 144.88 134.426 144.656C134.895 144.432 135.407 144.32 135.962 144.32C136.655 144.32 137.279 144.496 137.834 144.848C138.388 145.189 138.826 145.659 139.146 146.256C139.476 146.843 139.642 147.509 139.642 148.256C139.642 148.992 139.482 149.653 139.161 150.24C138.842 150.827 138.399 151.296 137.834 151.648C137.279 151.989 136.655 152.16 135.962 152.16ZM132.074 152V140.672H133.194V146.32L132.97 148.128L133.194 149.984V152H132.074ZM135.77 151.088C136.303 151.088 136.772 150.971 137.178 150.736C137.583 150.491 137.898 150.155 138.122 149.728C138.356 149.291 138.474 148.795 138.474 148.24C138.474 147.675 138.356 147.179 138.122 146.752C137.898 146.325 137.583 145.989 137.178 145.744C136.772 145.499 136.308 145.376 135.786 145.376C135.263 145.376 134.799 145.499 134.394 145.744C133.999 145.989 133.69 146.325 133.466 146.752C133.242 147.179 133.13 147.675 133.13 148.24C133.13 148.795 133.242 149.291 133.466 149.728C133.69 150.155 133.999 150.491 134.394 150.736C134.788 150.971 135.247 151.088 135.77 151.088ZM144.841 152.16C144.116 152.16 143.454 151.984 142.857 151.632C142.27 151.28 141.801 150.805 141.449 150.208C141.108 149.611 140.937 148.944 140.937 148.208C140.937 147.483 141.108 146.827 141.449 146.24C141.801 145.653 142.27 145.189 142.857 144.848C143.454 144.496 144.116 144.32 144.841 144.32C145.577 144.32 146.238 144.491 146.825 144.832C147.412 145.173 147.876 145.643 148.217 146.24C148.569 146.827 148.745 147.483 148.745 148.208C148.745 148.955 148.569 149.627 148.217 150.224C147.876 150.811 147.412 151.28 146.825 151.632C146.238 151.984 145.577 152.16 144.841 152.16ZM144.841 151.072C145.374 151.072 145.844 150.949 146.249 150.704C146.665 150.459 146.99 150.117 147.225 149.68C147.47 149.243 147.593 148.752 147.593 148.208C147.593 147.664 147.47 147.184 147.225 146.768C146.99 146.341 146.665 146.005 146.249 145.76C145.844 145.515 145.374 145.392 144.841 145.392C144.318 145.392 143.849 145.515 143.433 145.76C143.017 146.005 142.692 146.341 142.457 146.768C142.222 147.184 142.105 147.664 142.105 148.208C142.105 148.763 142.222 149.259 142.457 149.696C142.692 150.123 143.017 150.459 143.433 150.704C143.849 150.949 144.318 151.072 144.841 151.072ZM153.935 152.16C153.209 152.16 152.548 151.984 151.951 151.632C151.364 151.28 150.895 150.805 150.543 150.208C150.201 149.611 150.031 148.944 150.031 148.208C150.031 147.483 150.201 146.827 150.543 146.24C150.895 145.653 151.364 145.189 151.951 144.848C152.548 144.496 153.209 144.32 153.935 144.32C154.671 144.32 155.332 144.491 155.919 144.832C156.505 145.173 156.969 145.643 157.311 146.24C157.663 146.827 157.839 147.483 157.839 148.208C157.839 148.955 157.663 149.627 157.311 150.224C156.969 150.811 156.505 151.28 155.919 151.632C155.332 151.984 154.671 152.16 153.935 152.16ZM153.935 151.072C154.468 151.072 154.937 150.949 155.343 150.704C155.759 150.459 156.084 150.117 156.319 149.68C156.564 149.243 156.687 148.752 156.687 148.208C156.687 147.664 156.564 147.184 156.319 146.768C156.084 146.341 155.759 146.005 155.343 145.76C154.937 145.515 154.468 145.392 153.935 145.392C153.412 145.392 152.943 145.515 152.527 145.76C152.111 146.005 151.785 146.341 151.551 146.768C151.316 147.184 151.199 147.664 151.199 148.208C151.199 148.763 151.316 149.259 151.551 149.696C151.785 150.123 152.111 150.459 152.527 150.704C152.943 150.949 153.412 151.072 153.935 151.072ZM164.468 152L160.628 148.144L164.404 144.48H165.796L161.684 148.432L161.732 147.792L165.956 152H164.468ZM159.62 152V140.672H160.74V152H159.62ZM167.089 152V144.48H168.225V152H167.089ZM167.649 142.848C167.436 142.848 167.254 142.773 167.105 142.624C166.956 142.464 166.881 142.277 166.881 142.064C166.881 141.84 166.956 141.653 167.105 141.504C167.254 141.355 167.436 141.28 167.649 141.28C167.884 141.28 168.07 141.355 168.209 141.504C168.358 141.653 168.433 141.84 168.433 142.064C168.433 142.277 168.358 142.464 168.209 142.624C168.07 142.773 167.884 142.848 167.649 142.848ZM175.967 152V147.584C175.967 146.923 175.77 146.389 175.375 145.984C174.991 145.568 174.479 145.36 173.839 145.36C173.402 145.36 173.018 145.456 172.687 145.648C172.357 145.84 172.095 146.101 171.903 146.432C171.711 146.763 171.615 147.141 171.615 147.568L171.103 147.28C171.103 146.715 171.237 146.208 171.503 145.76C171.77 145.312 172.127 144.96 172.575 144.704C173.034 144.448 173.557 144.32 174.143 144.32C174.719 144.32 175.231 144.459 175.679 144.736C176.127 145.013 176.474 145.387 176.719 145.856C176.975 146.325 177.103 146.837 177.103 147.392V152H175.967ZM170.495 152V144.48H171.615V152H170.495ZM182.303 155.328C181.545 155.328 180.868 155.184 180.271 154.896C179.684 154.619 179.209 154.224 178.847 153.712L179.583 152.976C179.881 153.381 180.26 153.696 180.719 153.92C181.177 154.144 181.716 154.256 182.335 154.256C183.188 154.256 183.865 154.027 184.367 153.568C184.879 153.109 185.135 152.485 185.135 151.696V149.824L185.359 148.112L185.135 146.416V144.48H186.255V151.696C186.255 152.421 186.089 153.056 185.759 153.6C185.428 154.144 184.964 154.565 184.367 154.864C183.78 155.173 183.092 155.328 182.303 155.328ZM182.383 151.92C181.689 151.92 181.065 151.755 180.511 151.424C179.956 151.093 179.519 150.64 179.199 150.064C178.879 149.488 178.719 148.837 178.719 148.112C178.719 147.387 178.873 146.741 179.183 146.176C179.503 145.6 179.94 145.147 180.495 144.816C181.049 144.485 181.673 144.32 182.367 144.32C182.953 144.32 183.476 144.432 183.935 144.656C184.404 144.88 184.777 145.2 185.055 145.616C185.343 146.021 185.519 146.501 185.583 147.056V149.184C185.519 149.728 185.343 150.208 185.055 150.624C184.767 151.029 184.393 151.349 183.935 151.584C183.476 151.808 182.959 151.92 182.383 151.92ZM182.591 150.848C183.113 150.848 183.567 150.736 183.951 150.512C184.345 150.288 184.649 149.973 184.863 149.568C185.087 149.152 185.199 148.667 185.199 148.112C185.199 147.568 185.087 147.093 184.863 146.688C184.649 146.283 184.345 145.963 183.951 145.728C183.556 145.493 183.097 145.376 182.575 145.376C182.052 145.376 181.583 145.493 181.167 145.728C180.761 145.963 180.441 146.283 180.207 146.688C179.983 147.093 179.871 147.568 179.871 148.112C179.871 148.645 179.988 149.12 180.223 149.536C180.457 149.952 180.777 150.277 181.183 150.512C181.588 150.736 182.057 150.848 182.591 150.848ZM190.815 152.16C190.41 152.16 190.02 152.107 189.647 152C189.274 151.883 188.932 151.723 188.623 151.52C188.324 151.317 188.063 151.077 187.839 150.8L188.559 150.064C188.858 150.427 189.194 150.699 189.567 150.88C189.951 151.051 190.378 151.136 190.847 151.136C191.348 151.136 191.738 151.04 192.015 150.848C192.303 150.656 192.447 150.389 192.447 150.048C192.447 149.728 192.346 149.477 192.143 149.296C191.94 149.115 191.679 148.971 191.359 148.864C191.05 148.757 190.719 148.656 190.367 148.56C190.015 148.453 189.679 148.325 189.359 148.176C189.039 148.016 188.778 147.797 188.575 147.52C188.383 147.243 188.287 146.88 188.287 146.432C188.287 146.005 188.388 145.637 188.591 145.328C188.804 145.008 189.103 144.763 189.487 144.592C189.882 144.411 190.346 144.32 190.879 144.32C191.444 144.32 191.956 144.421 192.415 144.624C192.874 144.827 193.242 145.125 193.519 145.52L192.799 146.24C192.575 145.952 192.292 145.733 191.951 145.584C191.62 145.424 191.247 145.344 190.831 145.344C190.351 145.344 189.983 145.44 189.727 145.632C189.482 145.813 189.359 146.053 189.359 146.352C189.359 146.64 189.46 146.869 189.663 147.04C189.866 147.2 190.122 147.333 190.431 147.44C190.751 147.536 191.087 147.637 191.439 147.744C191.791 147.84 192.127 147.973 192.447 148.144C192.767 148.304 193.023 148.528 193.215 148.816C193.418 149.093 193.519 149.472 193.519 149.952C193.519 150.624 193.274 151.163 192.783 151.568C192.303 151.963 191.647 152.16 190.815 152.16ZM195.452 153.648L196.364 151.872L196.764 151.776C196.722 151.872 196.663 151.952 196.588 152.016C196.514 152.091 196.423 152.128 196.316 152.128C196.114 152.128 195.927 152.048 195.756 151.888C195.596 151.717 195.516 151.509 195.516 151.264C195.516 151.008 195.607 150.789 195.788 150.608C195.97 150.416 196.188 150.32 196.444 150.32C196.69 150.32 196.903 150.416 197.084 150.608C197.276 150.789 197.372 151.008 197.372 151.264C197.372 151.371 197.351 151.499 197.308 151.648C197.276 151.787 197.202 151.973 197.084 152.208L196.124 154.016L195.452 153.648ZM45.024 172.16C44.448 172.16 43.9307 172.043 43.472 171.808C43.0133 171.573 42.6347 171.253 42.336 170.848C42.048 170.432 41.872 169.952 41.808 169.408V167.056C41.872 166.501 42.0533 166.021 42.352 165.616C42.6507 165.2 43.0293 164.88 43.488 164.656C43.9573 164.432 44.4693 164.32 45.024 164.32C45.7173 164.32 46.3413 164.496 46.896 164.848C47.4507 165.189 47.888 165.659 48.208 166.256C48.5387 166.843 48.704 167.509 48.704 168.256C48.704 168.992 48.544 169.653 48.224 170.24C47.904 170.827 47.4613 171.296 46.896 171.648C46.3413 171.989 45.7173 172.16 45.024 172.16ZM41.136 175.168V164.48H42.256V166.4L42.032 168.224L42.256 170.064V175.168H41.136ZM44.832 171.088C45.3653 171.088 45.8347 170.971 46.24 170.736C46.6453 170.491 46.96 170.155 47.184 169.728C47.4187 169.291 47.536 168.795 47.536 168.24C47.536 167.675 47.4187 167.179 47.184 166.752C46.96 166.325 46.6453 165.989 46.24 165.744C45.8347 165.499 45.3707 165.376 44.848 165.376C44.3253 165.376 43.8613 165.499 43.456 165.744C43.0613 165.989 42.752 166.325 42.528 166.752C42.304 167.179 42.192 167.675 42.192 168.24C42.192 168.795 42.304 169.291 42.528 169.728C42.752 170.155 43.0613 170.491 43.456 170.736C43.8507 170.971 44.3093 171.088 44.832 171.088ZM53.7594 172.16C53.0447 172.16 52.4047 171.989 51.8394 171.648C51.274 171.296 50.826 170.827 50.4954 170.24C50.1754 169.653 50.0154 168.992 50.0154 168.256C50.0154 167.509 50.1754 166.843 50.4954 166.256C50.826 165.659 51.274 165.189 51.8394 164.848C52.4047 164.496 53.0394 164.32 53.7434 164.32C54.3194 164.32 54.8314 164.437 55.2794 164.672C55.738 164.896 56.106 165.216 56.3834 165.632C56.6714 166.037 56.8474 166.512 56.9114 167.056V169.408C56.8474 169.952 56.6714 170.432 56.3834 170.848C56.106 171.264 55.738 171.589 55.2794 171.824C54.8314 172.048 54.3247 172.16 53.7594 172.16ZM53.9354 171.088C54.714 171.088 55.338 170.827 55.8074 170.304C56.2874 169.781 56.5274 169.093 56.5274 168.24C56.5274 167.675 56.4154 167.179 56.1914 166.752C55.978 166.315 55.674 165.979 55.2794 165.744C54.8954 165.499 54.442 165.376 53.9194 165.376C53.386 165.376 52.9114 165.499 52.4954 165.744C52.09 165.989 51.7647 166.331 51.5194 166.768C51.2847 167.195 51.1674 167.685 51.1674 168.24C51.1674 168.795 51.2847 169.285 51.5194 169.712C51.7647 170.139 52.0954 170.475 52.5114 170.72C52.9274 170.965 53.402 171.088 53.9354 171.088ZM56.4634 172V169.984L56.6874 168.128L56.4634 166.32V164.48H57.5834V172H56.4634ZM62.3668 172.032L59.0708 164.48H60.3028L62.9588 170.784H62.4948L65.2948 164.48H66.5428L63.0068 172.032H62.3668ZM60.3188 175.168L62.3828 170.896L63.0068 172.032L61.5508 175.168H60.3188ZM67.8235 172V164.48H68.9435V172H67.8235ZM72.9915 172V167.392C72.9915 166.773 72.8048 166.283 72.4315 165.92C72.0582 165.547 71.5888 165.36 71.0235 165.36C70.6395 165.36 70.2875 165.445 69.9675 165.616C69.6582 165.776 69.4075 166.005 69.2155 166.304C69.0342 166.603 68.9435 166.96 68.9435 167.376L68.4315 167.168C68.4315 166.592 68.5595 166.091 68.8155 165.664C69.0715 165.237 69.4128 164.907 69.8395 164.672C70.2768 164.437 70.7675 164.32 71.3115 164.32C71.8448 164.32 72.3195 164.437 72.7355 164.672C73.1622 164.907 73.4982 165.237 73.7435 165.664C73.9995 166.091 74.1275 166.597 74.1275 167.184V172H72.9915ZM78.1755 172V167.392C78.1755 166.773 77.9888 166.283 77.6155 165.92C77.2422 165.547 76.7675 165.36 76.1915 165.36C75.8182 165.36 75.4715 165.445 75.1515 165.616C74.8422 165.776 74.5915 166.005 74.3995 166.304C74.2182 166.603 74.1275 166.96 74.1275 167.376L73.4555 167.168C73.4875 166.592 73.6368 166.091 73.9035 165.664C74.1808 165.237 74.5382 164.907 74.9755 164.672C75.4235 164.437 75.9142 164.32 76.4475 164.32C76.9808 164.32 77.4608 164.437 77.8875 164.672C78.3248 164.907 78.6662 165.237 78.9115 165.664C79.1675 166.091 79.2955 166.597 79.2955 167.184V172H78.1755ZM84.8736 172.16C84.1163 172.16 83.439 171.989 82.8416 171.648C82.2443 171.307 81.7696 170.837 81.4176 170.24C81.0763 169.643 80.9056 168.971 80.9056 168.224C80.9056 167.488 81.0763 166.827 81.4176 166.24C81.759 165.643 82.223 165.173 82.8096 164.832C83.3963 164.491 84.0523 164.32 84.7776 164.32C85.4603 164.32 86.063 164.475 86.5856 164.784C87.119 165.093 87.535 165.525 87.8336 166.08C88.143 166.624 88.2976 167.253 88.2976 167.968C88.2976 168.053 88.2923 168.155 88.2816 168.272C88.271 168.379 88.2496 168.507 88.2176 168.656H81.7056V167.696H87.6096L87.2096 168.048C87.2203 167.493 87.1243 167.019 86.9216 166.624C86.7296 166.219 86.447 165.909 86.0736 165.696C85.711 165.472 85.2683 165.36 84.7456 165.36C84.2016 165.36 83.727 165.477 83.3216 165.712C82.9163 165.947 82.5963 166.277 82.3616 166.704C82.1376 167.12 82.0256 167.616 82.0256 168.192C82.0256 168.768 82.143 169.275 82.3776 169.712C82.623 170.149 82.959 170.491 83.3856 170.736C83.823 170.981 84.3243 171.104 84.8896 171.104C85.3483 171.104 85.7696 171.024 86.1536 170.864C86.5376 170.693 86.863 170.443 87.1296 170.112L87.8496 170.848C87.4976 171.264 87.0603 171.589 86.5376 171.824C86.0256 172.048 85.471 172.16 84.8736 172.16ZM95.483 172V167.584C95.483 166.923 95.2857 166.389 94.891 165.984C94.507 165.568 93.995 165.36 93.355 165.36C92.9177 165.36 92.5337 165.456 92.203 165.648C91.8723 165.84 91.611 166.101 91.419 166.432C91.227 166.763 91.131 167.141 91.131 167.568L90.619 167.28C90.619 166.715 90.7523 166.208 91.019 165.76C91.2857 165.312 91.643 164.96 92.091 164.704C92.5497 164.448 93.0723 164.32 93.659 164.32C94.235 164.32 94.747 164.459 95.195 164.736C95.643 165.013 95.9897 165.387 96.235 165.856C96.491 166.325 96.619 166.837 96.619 167.392V172H95.483ZM90.011 172V164.48H91.131V172H90.011ZM99.7884 172V161.312H100.908V172H99.7884ZM97.8844 165.488V164.48H102.796V165.488H97.8844ZM106.487 172.16C106.082 172.16 105.692 172.107 105.319 172C104.946 171.883 104.604 171.723 104.295 171.52C103.996 171.317 103.735 171.077 103.511 170.8L104.231 170.064C104.53 170.427 104.866 170.699 105.239 170.88C105.623 171.051 106.05 171.136 106.519 171.136C107.02 171.136 107.41 171.04 107.687 170.848C107.975 170.656 108.119 170.389 108.119 170.048C108.119 169.728 108.018 169.477 107.815 169.296C107.612 169.115 107.351 168.971 107.031 168.864C106.722 168.757 106.391 168.656 106.039 168.56C105.687 168.453 105.351 168.325 105.031 168.176C104.711 168.016 104.45 167.797 104.247 167.52C104.055 167.243 103.959 166.88 103.959 166.432C103.959 166.005 104.06 165.637 104.263 165.328C104.476 165.008 104.775 164.763 105.159 164.592C105.554 164.411 106.018 164.32 106.551 164.32C107.116 164.32 107.628 164.421 108.087 164.624C108.546 164.827 108.914 165.125 109.191 165.52L108.471 166.24C108.247 165.952 107.964 165.733 107.623 165.584C107.292 165.424 106.919 165.344 106.503 165.344C106.023 165.344 105.655 165.44 105.399 165.632C105.154 165.813 105.031 166.053 105.031 166.352C105.031 166.64 105.132 166.869 105.335 167.04C105.538 167.2 105.794 167.333 106.103 167.44C106.423 167.536 106.759 167.637 107.111 167.744C107.463 167.84 107.799 167.973 108.119 168.144C108.439 168.304 108.695 168.528 108.887 168.816C109.09 169.093 109.191 169.472 109.191 169.952C109.191 170.624 108.946 171.163 108.455 171.568C107.975 171.963 107.319 172.16 106.487 172.16ZM111.124 173.648L112.036 171.872L112.436 171.776C112.393 171.872 112.335 171.952 112.26 172.016C112.185 172.091 112.095 172.128 111.988 172.128C111.785 172.128 111.599 172.048 111.428 171.888C111.268 171.717 111.188 171.509 111.188 171.264C111.188 171.008 111.279 170.789 111.46 170.608C111.641 170.416 111.86 170.32 112.116 170.32C112.361 170.32 112.575 170.416 112.756 170.608C112.948 170.789 113.044 171.008 113.044 171.264C113.044 171.371 113.023 171.499 112.98 171.648C112.948 171.787 112.873 171.973 112.756 172.208L111.796 174.016L111.124 173.648ZM122.216 172.16C121.48 172.16 120.814 171.989 120.216 171.648C119.63 171.296 119.16 170.821 118.808 170.224C118.467 169.627 118.296 168.96 118.296 168.224C118.296 167.488 118.467 166.827 118.808 166.24C119.16 165.643 119.63 165.173 120.216 164.832C120.814 164.491 121.48 164.32 122.216 164.32C122.782 164.32 123.31 164.427 123.8 164.64C124.291 164.853 124.707 165.152 125.048 165.536L124.312 166.288C124.056 166 123.747 165.781 123.384 165.632C123.022 165.472 122.632 165.392 122.216 165.392C121.683 165.392 121.208 165.515 120.792 165.76C120.376 166.005 120.051 166.341 119.816 166.768C119.582 167.184 119.464 167.669 119.464 168.224C119.464 168.768 119.582 169.259 119.816 169.696C120.051 170.123 120.376 170.459 120.792 170.704C121.208 170.949 121.683 171.072 122.216 171.072C122.643 171.072 123.038 170.997 123.4 170.848C123.763 170.688 124.072 170.464 124.328 170.176L125.08 170.928C124.728 171.323 124.302 171.627 123.8 171.84C123.31 172.053 122.782 172.16 122.216 172.16ZM129.919 172.16C129.194 172.16 128.532 171.984 127.935 171.632C127.348 171.28 126.879 170.805 126.527 170.208C126.186 169.611 126.015 168.944 126.015 168.208C126.015 167.483 126.186 166.827 126.527 166.24C126.879 165.653 127.348 165.189 127.935 164.848C128.532 164.496 129.194 164.32 129.919 164.32C130.655 164.32 131.316 164.491 131.903 164.832C132.49 165.173 132.954 165.643 133.295 166.24C133.647 166.827 133.823 167.483 133.823 168.208C133.823 168.955 133.647 169.627 133.295 170.224C132.954 170.811 132.49 171.28 131.903 171.632C131.316 171.984 130.655 172.16 129.919 172.16ZM129.919 171.072C130.452 171.072 130.922 170.949 131.327 170.704C131.743 170.459 132.068 170.117 132.303 169.68C132.548 169.243 132.671 168.752 132.671 168.208C132.671 167.664 132.548 167.184 132.303 166.768C132.068 166.341 131.743 166.005 131.327 165.76C130.922 165.515 130.452 165.392 129.919 165.392C129.396 165.392 128.927 165.515 128.511 165.76C128.095 166.005 127.77 166.341 127.535 166.768C127.3 167.184 127.183 167.664 127.183 168.208C127.183 168.763 127.3 169.259 127.535 169.696C127.77 170.123 128.095 170.459 128.511 170.704C128.927 170.949 129.396 171.072 129.919 171.072ZM135.605 172V164.48H136.725V172H135.605ZM140.773 172V167.392C140.773 166.773 140.586 166.283 140.213 165.92C139.839 165.547 139.37 165.36 138.805 165.36C138.421 165.36 138.069 165.445 137.749 165.616C137.439 165.776 137.189 166.005 136.997 166.304C136.815 166.603 136.725 166.96 136.725 167.376L136.213 167.168C136.213 166.592 136.341 166.091 136.597 165.664C136.853 165.237 137.194 164.907 137.621 164.672C138.058 164.437 138.549 164.32 139.093 164.32C139.626 164.32 140.101 164.437 140.517 164.672C140.943 164.907 141.279 165.237 141.525 165.664C141.781 166.091 141.909 166.597 141.909 167.184V172H140.773ZM145.957 172V167.392C145.957 166.773 145.77 166.283 145.397 165.92C145.023 165.547 144.549 165.36 143.973 165.36C143.599 165.36 143.253 165.445 142.933 165.616C142.623 165.776 142.373 166.005 142.181 166.304C141.999 166.603 141.909 166.96 141.909 167.376L141.237 167.168C141.269 166.592 141.418 166.091 141.685 165.664C141.962 165.237 142.319 164.907 142.757 164.672C143.205 164.437 143.695 164.32 144.229 164.32C144.762 164.32 145.242 164.437 145.669 164.672C146.106 164.907 146.447 165.237 146.693 165.664C146.949 166.091 147.077 166.597 147.077 167.184V172H145.957ZM149.183 172V164.48H150.303V172H149.183ZM154.351 172V167.392C154.351 166.773 154.164 166.283 153.791 165.92C153.418 165.547 152.948 165.36 152.383 165.36C151.999 165.36 151.647 165.445 151.327 165.616C151.018 165.776 150.767 166.005 150.575 166.304C150.394 166.603 150.303 166.96 150.303 167.376L149.791 167.168C149.791 166.592 149.919 166.091 150.175 165.664C150.431 165.237 150.772 164.907 151.199 164.672C151.636 164.437 152.127 164.32 152.671 164.32C153.204 164.32 153.679 164.437 154.095 164.672C154.522 164.907 154.858 165.237 155.103 165.664C155.359 166.091 155.487 166.597 155.487 167.184V172H154.351ZM159.535 172V167.392C159.535 166.773 159.348 166.283 158.975 165.92C158.602 165.547 158.127 165.36 157.551 165.36C157.178 165.36 156.831 165.445 156.511 165.616C156.202 165.776 155.951 166.005 155.759 166.304C155.578 166.603 155.487 166.96 155.487 167.376L154.815 167.168C154.847 166.592 154.996 166.091 155.263 165.664C155.54 165.237 155.898 164.907 156.335 164.672C156.783 164.437 157.274 164.32 157.807 164.32C158.34 164.32 158.82 164.437 159.247 164.672C159.684 164.907 160.026 165.237 160.271 165.664C160.527 166.091 160.655 166.597 160.655 167.184V172H159.535ZM165.737 172.16C165.129 172.16 164.585 172.021 164.105 171.744C163.625 171.456 163.246 171.067 162.969 170.576C162.702 170.085 162.569 169.509 162.569 168.848V164.48H163.705V168.8C163.705 169.259 163.785 169.659 163.945 170C164.116 170.341 164.356 170.608 164.665 170.8C164.974 170.992 165.332 171.088 165.737 171.088C166.366 171.088 166.862 170.88 167.225 170.464C167.598 170.048 167.785 169.493 167.785 168.8V164.48H168.905V168.848C168.905 169.499 168.772 170.075 168.505 170.576C168.238 171.077 167.865 171.467 167.385 171.744C166.905 172.021 166.356 172.16 165.737 172.16ZM176.467 172V167.584C176.467 166.923 176.27 166.389 175.875 165.984C175.491 165.568 174.979 165.36 174.339 165.36C173.902 165.36 173.518 165.456 173.187 165.648C172.857 165.84 172.595 166.101 172.403 166.432C172.211 166.763 172.115 167.141 172.115 167.568L171.603 167.28C171.603 166.715 171.737 166.208 172.003 165.76C172.27 165.312 172.627 164.96 173.075 164.704C173.534 164.448 174.057 164.32 174.643 164.32C175.219 164.32 175.731 164.459 176.179 164.736C176.627 165.013 176.974 165.387 177.219 165.856C177.475 166.325 177.603 166.837 177.603 167.392V172H176.467ZM170.995 172V164.48H172.115V172H170.995ZM179.699 172V164.48H180.835V172H179.699ZM180.259 162.848C180.045 162.848 179.864 162.773 179.715 162.624C179.565 162.464 179.491 162.277 179.491 162.064C179.491 161.84 179.565 161.653 179.715 161.504C179.864 161.355 180.045 161.28 180.259 161.28C180.493 161.28 180.68 161.355 180.819 161.504C180.968 161.653 181.043 161.84 181.043 162.064C181.043 162.277 180.968 162.464 180.819 162.624C180.68 162.773 180.493 162.848 180.259 162.848ZM186.529 172.16C185.793 172.16 185.126 171.989 184.529 171.648C183.942 171.296 183.473 170.821 183.121 170.224C182.779 169.627 182.609 168.96 182.609 168.224C182.609 167.488 182.779 166.827 183.121 166.24C183.473 165.643 183.942 165.173 184.529 164.832C185.126 164.491 185.793 164.32 186.529 164.32C187.094 164.32 187.622 164.427 188.113 164.64C188.603 164.853 189.019 165.152 189.361 165.536L188.625 166.288C188.369 166 188.059 165.781 187.697 165.632C187.334 165.472 186.945 165.392 186.529 165.392C185.995 165.392 185.521 165.515 185.105 165.76C184.689 166.005 184.363 166.341 184.129 166.768C183.894 167.184 183.777 167.669 183.777 168.224C183.777 168.768 183.894 169.259 184.129 169.696C184.363 170.123 184.689 170.459 185.105 170.704C185.521 170.949 185.995 171.072 186.529 171.072C186.955 171.072 187.35 170.997 187.713 170.848C188.075 170.688 188.385 170.464 188.641 170.176L189.393 170.928C189.041 171.323 188.614 171.627 188.113 171.84C187.622 172.053 187.094 172.16 186.529 172.16ZM194.088 172.16C193.373 172.16 192.733 171.989 192.168 171.648C191.602 171.296 191.154 170.827 190.824 170.24C190.504 169.653 190.344 168.992 190.344 168.256C190.344 167.509 190.504 166.843 190.824 166.256C191.154 165.659 191.602 165.189 192.168 164.848C192.733 164.496 193.368 164.32 194.072 164.32C194.648 164.32 195.16 164.437 195.608 164.672C196.066 164.896 196.434 165.216 196.712 165.632C197 166.037 197.176 166.512 197.24 167.056V169.408C197.176 169.952 197 170.432 196.712 170.848C196.434 171.264 196.066 171.589 195.608 171.824C195.16 172.048 194.653 172.16 194.088 172.16ZM194.264 171.088C195.042 171.088 195.666 170.827 196.136 170.304C196.616 169.781 196.856 169.093 196.856 168.24C196.856 167.675 196.744 167.179 196.52 166.752C196.306 166.315 196.002 165.979 195.608 165.744C195.224 165.499 194.77 165.376 194.248 165.376C193.714 165.376 193.24 165.499 192.824 165.744C192.418 165.989 192.093 166.331 191.848 166.768C191.613 167.195 191.496 167.685 191.496 168.24C191.496 168.795 191.613 169.285 191.848 169.712C192.093 170.139 192.424 170.475 192.84 170.72C193.256 170.965 193.73 171.088 194.264 171.088ZM196.792 172V169.984L197.016 168.128L196.792 166.32V164.48H197.911V172H196.792ZM201.288 172V161.312H202.408V172H201.288ZM199.384 165.488V164.48H204.296V165.488H199.384ZM205.839 172V164.48H206.975V172H205.839ZM206.399 162.848C206.186 162.848 206.004 162.773 205.855 162.624C205.706 162.464 205.631 162.277 205.631 162.064C205.631 161.84 205.706 161.653 205.855 161.504C206.004 161.355 206.186 161.28 206.399 161.28C206.634 161.28 206.82 161.355 206.959 161.504C207.108 161.653 207.183 161.84 207.183 162.064C207.183 162.277 207.108 162.464 206.959 162.624C206.82 162.773 206.634 162.848 206.399 162.848ZM212.653 172.16C211.928 172.16 211.267 171.984 210.669 171.632C210.083 171.28 209.613 170.805 209.261 170.208C208.92 169.611 208.749 168.944 208.749 168.208C208.749 167.483 208.92 166.827 209.261 166.24C209.613 165.653 210.083 165.189 210.669 164.848C211.267 164.496 211.928 164.32 212.653 164.32C213.389 164.32 214.051 164.491 214.637 164.832C215.224 165.173 215.688 165.643 216.029 166.24C216.381 166.827 216.557 167.483 216.557 168.208C216.557 168.955 216.381 169.627 216.029 170.224C215.688 170.811 215.224 171.28 214.637 171.632C214.051 171.984 213.389 172.16 212.653 172.16ZM212.653 171.072C213.187 171.072 213.656 170.949 214.061 170.704C214.477 170.459 214.803 170.117 215.037 169.68C215.283 169.243 215.405 168.752 215.405 168.208C215.405 167.664 215.283 167.184 215.037 166.768C214.803 166.341 214.477 166.005 214.061 165.76C213.656 165.515 213.187 165.392 212.653 165.392C212.131 165.392 211.661 165.515 211.245 165.76C210.829 166.005 210.504 166.341 210.269 166.768C210.035 167.184 209.917 167.664 209.917 168.208C209.917 168.763 210.035 169.259 210.269 169.696C210.504 170.123 210.829 170.459 211.245 170.704C211.661 170.949 212.131 171.072 212.653 171.072ZM223.811 172V167.584C223.811 166.923 223.614 166.389 223.219 165.984C222.835 165.568 222.323 165.36 221.683 165.36C221.246 165.36 220.862 165.456 220.531 165.648C220.2 165.84 219.939 166.101 219.747 166.432C219.555 166.763 219.459 167.141 219.459 167.568L218.947 167.28C218.947 166.715 219.08 166.208 219.347 165.76C219.614 165.312 219.971 164.96 220.419 164.704C220.878 164.448 221.4 164.32 221.987 164.32C222.563 164.32 223.075 164.459 223.523 164.736C223.971 165.013 224.318 165.387 224.563 165.856C224.819 166.325 224.947 166.837 224.947 167.392V172H223.811ZM218.339 172V164.48H219.459V172H218.339ZM227.202 173.648L228.114 171.872L228.514 171.776C228.472 171.872 228.413 171.952 228.338 172.016C228.264 172.091 228.173 172.128 228.066 172.128C227.864 172.128 227.677 172.048 227.506 171.888C227.346 171.717 227.266 171.509 227.266 171.264C227.266 171.008 227.357 170.789 227.538 170.608C227.72 170.416 227.938 170.32 228.194 170.32C228.44 170.32 228.653 170.416 228.834 170.608C229.026 170.789 229.122 171.008 229.122 171.264C229.122 171.371 229.101 171.499 229.058 171.648C229.026 171.787 228.952 171.973 228.834 172.208L227.874 174.016L227.202 173.648ZM44.4 192.16C43.6853 192.16 43.0453 191.989 42.48 191.648C41.9147 191.296 41.4667 190.827 41.136 190.24C40.816 189.653 40.656 188.992 40.656 188.256C40.656 187.509 40.816 186.843 41.136 186.256C41.4667 185.659 41.9147 185.189 42.48 184.848C43.0453 184.496 43.68 184.32 44.384 184.32C44.96 184.32 45.472 184.437 45.92 184.672C46.3787 184.896 46.7467 185.216 47.024 185.632C47.312 186.037 47.488 186.512 47.552 187.056V189.408C47.488 189.952 47.312 190.432 47.024 190.848C46.7467 191.264 46.3787 191.589 45.92 191.824C45.472 192.048 44.9653 192.16 44.4 192.16ZM44.576 191.088C45.3547 191.088 45.9787 190.827 46.448 190.304C46.928 189.781 47.168 189.093 47.168 188.24C47.168 187.675 47.056 187.179 46.832 186.752C46.6187 186.315 46.3147 185.979 45.92 185.744C45.536 185.499 45.0827 185.376 44.56 185.376C44.0267 185.376 43.552 185.499 43.136 185.744C42.7307 185.989 42.4053 186.331 42.16 186.768C41.9253 187.195 41.808 187.685 41.808 188.24C41.808 188.795 41.9253 189.285 42.16 189.712C42.4053 190.139 42.736 190.475 43.152 190.72C43.568 190.965 44.0427 191.088 44.576 191.088ZM47.104 192V189.984L47.328 188.128L47.104 186.32V184.48H48.224V192H47.104ZM55.9674 192V187.584C55.9674 186.923 55.77 186.389 55.3754 185.984C54.9914 185.568 54.4794 185.36 53.8394 185.36C53.402 185.36 53.018 185.456 52.6874 185.648C52.3567 185.84 52.0954 186.101 51.9034 186.432C51.7114 186.763 51.6154 187.141 51.6154 187.568L51.1034 187.28C51.1034 186.715 51.2367 186.208 51.5034 185.76C51.77 185.312 52.1274 184.96 52.5754 184.704C53.034 184.448 53.5567 184.32 54.1434 184.32C54.7194 184.32 55.2314 184.459 55.6794 184.736C56.1274 185.013 56.474 185.387 56.7194 185.856C56.9754 186.325 57.1034 186.837 57.1034 187.392V192H55.9674ZM50.4954 192V184.48H51.6154V192H50.4954ZM62.3985 192.16C61.7052 192.16 61.0812 191.989 60.5265 191.648C59.9718 191.307 59.5292 190.843 59.1985 190.256C58.8785 189.659 58.7185 188.992 58.7185 188.256C58.7185 187.509 58.8785 186.843 59.1985 186.256C59.5292 185.659 59.9718 185.189 60.5265 184.848C61.0812 184.496 61.7052 184.32 62.3985 184.32C62.9638 184.32 63.4758 184.432 63.9345 184.656C64.3932 184.88 64.7718 185.2 65.0705 185.616C65.3798 186.021 65.5612 186.501 65.6145 187.056V189.408C65.5505 189.952 65.3692 190.432 65.0705 190.848C64.7825 191.253 64.4092 191.573 63.9505 191.808C63.4918 192.043 62.9745 192.16 62.3985 192.16ZM62.5905 191.088C63.1132 191.088 63.5718 190.971 63.9665 190.736C64.3612 190.491 64.6705 190.155 64.8945 189.728C65.1185 189.291 65.2305 188.795 65.2305 188.24C65.2305 187.675 65.1132 187.179 64.8785 186.752C64.6545 186.325 64.3452 185.989 63.9505 185.744C63.5558 185.499 63.0972 185.376 62.5745 185.376C62.0518 185.376 61.5878 185.499 61.1825 185.744C60.7772 185.989 60.4572 186.331 60.2225 186.768C59.9985 187.195 59.8865 187.685 59.8865 188.24C59.8865 188.795 59.9985 189.291 60.2225 189.728C60.4572 190.155 60.7772 190.491 61.1825 190.736C61.5985 190.971 62.0678 191.088 62.5905 191.088ZM66.2865 192H65.1665V189.984L65.3905 188.128L65.1665 186.32V180.672H66.2865V192ZM71.9954 192V184.48H73.1154V192H71.9954ZM77.1634 192V187.392C77.1634 186.773 76.9767 186.283 76.6034 185.92C76.23 185.547 75.7607 185.36 75.1954 185.36C74.8114 185.36 74.4594 185.445 74.1394 185.616C73.83 185.776 73.5794 186.005 73.3874 186.304C73.206 186.603 73.1154 186.96 73.1154 187.376L72.6034 187.168C72.6034 186.592 72.7314 186.091 72.9874 185.664C73.2434 185.237 73.5847 184.907 74.0114 184.672C74.4487 184.437 74.9394 184.32 75.4834 184.32C76.0167 184.32 76.4914 184.437 76.9074 184.672C77.334 184.907 77.67 185.237 77.9154 185.664C78.1714 186.091 78.2994 186.597 78.2994 187.184V192H77.1634ZM82.3474 192V187.392C82.3474 186.773 82.1607 186.283 81.7874 185.92C81.414 185.547 80.9394 185.36 80.3634 185.36C79.99 185.36 79.6434 185.445 79.3234 185.616C79.014 185.776 78.7634 186.005 78.5714 186.304C78.39 186.603 78.2994 186.96 78.2994 187.376L77.6274 187.168C77.6594 186.592 77.8087 186.091 78.0754 185.664C78.3527 185.237 78.71 184.907 79.1474 184.672C79.5954 184.437 80.086 184.32 80.6194 184.32C81.1527 184.32 81.6327 184.437 82.0594 184.672C82.4967 184.907 82.838 185.237 83.0834 185.664C83.3394 186.091 83.4674 186.597 83.4674 187.184V192H82.3474ZM88.9815 192.16C88.2562 192.16 87.5948 191.984 86.9975 191.632C86.4108 191.28 85.9415 190.805 85.5895 190.208C85.2482 189.611 85.0775 188.944 85.0775 188.208C85.0775 187.483 85.2482 186.827 85.5895 186.24C85.9415 185.653 86.4108 185.189 86.9975 184.848C87.5948 184.496 88.2562 184.32 88.9815 184.32C89.7175 184.32 90.3788 184.491 90.9655 184.832C91.5522 185.173 92.0162 185.643 92.3575 186.24C92.7095 186.827 92.8855 187.483 92.8855 188.208C92.8855 188.955 92.7095 189.627 92.3575 190.224C92.0162 190.811 91.5522 191.28 90.9655 191.632C90.3788 191.984 89.7175 192.16 88.9815 192.16ZM88.9815 191.072C89.5148 191.072 89.9842 190.949 90.3895 190.704C90.8055 190.459 91.1308 190.117 91.3655 189.68C91.6108 189.243 91.7335 188.752 91.7335 188.208C91.7335 187.664 91.6108 187.184 91.3655 186.768C91.1308 186.341 90.8055 186.005 90.3895 185.76C89.9842 185.515 89.5148 185.392 88.9815 185.392C88.4588 185.392 87.9895 185.515 87.5735 185.76C87.1575 186.005 86.8322 186.341 86.5975 186.768C86.3628 187.184 86.2455 187.664 86.2455 188.208C86.2455 188.763 86.3628 189.259 86.5975 189.696C86.8322 190.123 87.1575 190.459 87.5735 190.704C87.9895 190.949 88.4588 191.072 88.9815 191.072ZM94.6673 192V184.48H95.7873V192H94.6673ZM95.7873 187.616L95.3233 187.408C95.3233 186.459 95.5526 185.707 96.0113 185.152C96.4806 184.597 97.1206 184.32 97.9313 184.32C98.3046 184.32 98.6459 184.389 98.9553 184.528C99.2646 184.656 99.5526 184.864 99.8193 185.152L99.0833 185.936C98.9019 185.733 98.6993 185.589 98.4753 185.504C98.2619 185.419 98.0166 185.376 97.7393 185.376C97.1633 185.376 96.6939 185.568 96.3313 185.952C95.9686 186.325 95.7873 186.88 95.7873 187.616ZM104.217 192.16C103.46 192.16 102.783 191.989 102.185 191.648C101.588 191.307 101.113 190.837 100.761 190.24C100.42 189.643 100.249 188.971 100.249 188.224C100.249 187.488 100.42 186.827 100.761 186.24C101.103 185.643 101.567 185.173 102.153 184.832C102.74 184.491 103.396 184.32 104.121 184.32C104.804 184.32 105.407 184.475 105.929 184.784C106.463 185.093 106.879 185.525 107.177 186.08C107.487 186.624 107.641 187.253 107.641 187.968C107.641 188.053 107.636 188.155 107.625 188.272C107.615 188.379 107.593 188.507 107.561 188.656H101.049V187.696H106.953L106.553 188.048C106.564 187.493 106.468 187.019 106.265 186.624C106.073 186.219 105.791 185.909 105.417 185.696C105.055 185.472 104.612 185.36 104.089 185.36C103.545 185.36 103.071 185.477 102.665 185.712C102.26 185.947 101.94 186.277 101.705 186.704C101.481 187.12 101.369 187.616 101.369 188.192C101.369 188.768 101.487 189.275 101.721 189.712C101.967 190.149 102.303 190.491 102.729 190.736C103.167 190.981 103.668 191.104 104.233 191.104C104.692 191.104 105.113 191.024 105.497 190.864C105.881 190.693 106.207 190.443 106.473 190.112L107.193 190.848C106.841 191.264 106.404 191.589 105.881 191.824C105.369 192.048 104.815 192.16 104.217 192.16ZM110.539 192.16C110.272 192.16 110.053 192.069 109.883 191.888C109.712 191.707 109.627 191.488 109.627 191.232C109.627 190.976 109.712 190.763 109.883 190.592C110.053 190.411 110.272 190.32 110.539 190.32C110.795 190.32 111.008 190.411 111.179 190.592C111.349 190.763 111.435 190.976 111.435 191.232C111.435 191.488 111.349 191.707 111.179 191.888C111.008 192.069 110.795 192.16 110.539 192.16Z" fill="#060606"/>
<g clip-path="url(#clip0_1151_2788)">
<path d="M133.51 248.35C126.719 245.739 119.188 245.815 112.45 248.56L109.45 249.96C103.109 253.392 98.2953 259.09 95.9696 265.915C93.644 272.74 93.9774 280.191 96.9032 286.781C99.8291 293.371 105.132 298.616 111.755 301.468C118.377 304.321 125.831 304.571 132.63 302.17L135.63 300.92C140.668 298.489 144.884 294.636 147.759 289.838C150.634 285.039 152.042 279.504 151.809 273.915C151.576 268.326 149.713 262.928 146.449 258.385C143.185 253.842 138.663 250.354 133.44 248.35H133.51Z" fill="white"/>
<path d="M134.44 246.1C127.577 243.448 119.996 243.311 113.041 245.712C106.086 248.114 100.205 252.899 96.44 259.22H86.7801C86.4144 259.219 86.0571 259.329 85.7552 259.536C85.4533 259.742 85.221 260.035 85.089 260.376C84.9569 260.717 84.9312 261.09 85.0153 261.446C85.0994 261.802 85.2893 262.124 85.5601 262.37L92.7001 268.87C91.5101 274.681 92.0061 280.711 94.1295 286.249C96.2529 291.787 99.9153 296.603 104.685 300.129C109.455 303.654 115.133 305.743 121.051 306.149C126.968 306.554 132.878 305.259 138.084 302.417C143.29 299.575 147.576 295.304 150.435 290.107C153.294 284.911 154.608 279.005 154.222 273.086C153.835 267.167 151.765 261.482 148.255 256.701C144.745 251.92 139.941 248.241 134.41 246.1H134.44ZM149.96 285.49C147.338 292.277 142.223 297.807 135.66 300.95L132.66 302.21C125.86 304.58 118.417 304.303 111.811 301.435C105.206 298.566 99.9223 293.316 97.0119 286.729C94.1015 280.142 93.7776 272.701 96.1046 265.886C98.4316 259.071 103.239 253.381 109.57 249.95L112.57 248.55C117.752 246.479 123.425 245.965 128.894 247.071C134.363 248.177 139.391 250.855 143.361 254.777C147.33 258.699 150.069 263.694 151.241 269.149C152.413 274.605 151.968 280.284 149.96 285.49Z" fill="#35938D"/>
<path d="M118.89 291.6C118.276 291.6 117.669 291.475 117.105 291.232C116.541 290.99 116.032 290.635 115.61 290.19L105.39 279.32C104.633 278.441 104.244 277.305 104.305 276.146C104.365 274.988 104.871 273.898 105.715 273.104C106.56 272.309 107.679 271.872 108.839 271.882C109.999 271.892 111.109 272.35 111.94 273.16L118.58 280.16L134.2 260.29C134.564 259.826 135.017 259.438 135.531 259.148C136.045 258.859 136.611 258.674 137.197 258.603C137.783 258.532 138.377 258.578 138.946 258.737C139.514 258.896 140.046 259.165 140.51 259.53C140.974 259.894 141.362 260.347 141.651 260.861C141.941 261.375 142.126 261.942 142.197 262.527C142.267 263.113 142.222 263.708 142.063 264.276C141.904 264.844 141.634 265.376 141.27 265.84L122.42 289.84C122.019 290.349 121.513 290.767 120.937 291.063C120.361 291.36 119.727 291.529 119.08 291.56L118.89 291.6Z" fill="#F7B501"/>
</g>
<defs>
<clipPath id="clip0_1151_2788">
<rect width="69.32" height="62.23" fill="white" transform="translate(85 244)"/>
</clipPath>
</defs>
</svg>
