<svg width="298" height="355" viewBox="0 0 298 355" fill="none" xmlns="http://www.w3.org/2000/svg">
<rect x="1" y="1" width="296" height="353" rx="15" fill="#FBFBFB"/>
<rect x="1" y="1" width="296" height="353" rx="15" stroke="#F3F3F3" stroke-width="2"/>
<path d="M50.976 65.28C49.632 65.28 48.3627 65.0187 47.168 64.496C45.9733 63.9733 44.928 63.2547 44.032 62.34C43.136 61.4067 42.4267 60.3333 41.904 59.12C41.4 57.888 41.148 56.572 41.148 55.172C41.148 53.772 41.4 52.4653 41.904 51.252C42.4267 50.0387 43.136 48.9747 44.032 48.06C44.9467 47.1267 46.0107 46.408 47.224 45.904C48.456 45.3813 49.7813 45.12 51.2 45.12C52.7493 45.12 54.1867 45.4187 55.512 46.016C56.8373 46.6133 57.948 47.4627 58.844 48.564L56.66 50.748C56.0813 49.9267 55.3067 49.3013 54.336 48.872C53.3653 48.424 52.32 48.2 51.2 48.2C49.856 48.2 48.6707 48.4987 47.644 49.096C46.636 49.6747 45.852 50.4867 45.292 51.532C44.732 52.5773 44.452 53.7907 44.452 55.172C44.452 56.5533 44.732 57.776 45.292 58.84C45.8707 59.8853 46.6453 60.7067 47.616 61.304C48.5867 61.9013 49.688 62.2 50.92 62.2C52.2267 62.2 53.3467 61.9667 54.28 61.5C55.232 61.0147 55.96 60.3053 56.464 59.372C56.968 58.42 57.22 57.2533 57.22 55.872L59.236 57.328H50.864V54.388H60.552V54.836C60.552 57.1693 60.132 59.1107 59.292 60.66C58.4707 62.2093 57.3413 63.3667 55.904 64.132C54.4667 64.8973 52.824 65.28 50.976 65.28ZM63.3369 65V51.56H66.4169V65H63.3369ZM66.4169 57.524L65.3529 56.992C65.3529 55.2933 65.7262 53.9213 66.4729 52.876C67.2382 51.812 68.3862 51.28 69.9169 51.28C70.5889 51.28 71.1956 51.4013 71.7369 51.644C72.2782 51.8867 72.7822 52.2787 73.2489 52.82L71.2329 54.892C70.9902 54.6307 70.7196 54.444 70.4209 54.332C70.1222 54.22 69.7769 54.164 69.3849 54.164C68.5262 54.164 67.8169 54.4347 67.2569 54.976C66.6969 55.5173 66.4169 56.3667 66.4169 57.524ZM80.4891 65.28C79.1824 65.28 77.9971 64.972 76.9331 64.356C75.8691 63.7213 75.0198 62.872 74.3851 61.808C73.7691 60.744 73.4611 59.5587 73.4611 58.252C73.4611 56.9453 73.7691 55.7693 74.3851 54.724C75.0198 53.6787 75.8691 52.848 76.9331 52.232C77.9971 51.5973 79.1824 51.28 80.4891 51.28C81.8144 51.28 83.0091 51.588 84.0731 52.204C85.1371 52.82 85.9771 53.66 86.5931 54.724C87.2278 55.7693 87.5451 56.9453 87.5451 58.252C87.5451 59.5587 87.2278 60.744 86.5931 61.808C85.9771 62.872 85.1371 63.7213 84.0731 64.356C83.0091 64.972 81.8144 65.28 80.4891 65.28ZM80.4891 62.312C81.2544 62.312 81.9264 62.144 82.5051 61.808C83.1024 61.4533 83.5598 60.968 83.8771 60.352C84.2131 59.736 84.3811 59.036 84.3811 58.252C84.3811 57.468 84.2131 56.7773 83.8771 56.18C83.5411 55.5827 83.0838 55.116 82.5051 54.78C81.9264 54.4253 81.2544 54.248 80.4891 54.248C79.7424 54.248 79.0704 54.4253 78.4731 54.78C77.8944 55.116 77.4371 55.5827 77.1011 56.18C76.7838 56.7773 76.6251 57.468 76.6251 58.252C76.6251 59.036 76.7838 59.736 77.1011 60.352C77.4371 60.968 77.8944 61.4533 78.4731 61.808C79.0704 62.144 79.7424 62.312 80.4891 62.312ZM93.6983 65L88.2943 51.56H91.4863L95.1263 61.332L94.1743 61.36L97.7303 51.56H99.5223L103.078 61.36L102.126 61.332L105.766 51.56H108.958L103.554 65H101.762L98.1223 55.704H99.1303L95.4903 65H93.6983ZM129.541 65L120.245 54.836C119.554 54.0707 119.032 53.3427 118.677 52.652C118.341 51.9613 118.173 51.196 118.173 50.356C118.173 49.3667 118.416 48.48 118.901 47.696C119.386 46.8933 120.049 46.2587 120.889 45.792C121.729 45.3253 122.69 45.092 123.773 45.092C124.594 45.092 125.341 45.232 126.013 45.512C126.685 45.7733 127.273 46.128 127.777 46.576C128.3 47.0053 128.729 47.4813 129.065 48.004L126.853 49.964C126.442 49.404 125.994 48.9467 125.509 48.592C125.042 48.2373 124.464 48.06 123.773 48.06C123.064 48.06 122.466 48.2747 121.981 48.704C121.496 49.1147 121.253 49.6373 121.253 50.272C121.253 50.9067 121.384 51.4293 121.645 51.84C121.906 52.2507 122.27 52.7267 122.737 53.268L133.237 65H129.541ZM122.849 65.28C121.505 65.28 120.329 65.028 119.321 64.524C118.332 64.0013 117.557 63.292 116.997 62.396C116.456 61.4813 116.185 60.4453 116.185 59.288C116.185 58.112 116.502 57.0573 117.137 56.124C117.79 55.1907 118.742 54.4347 119.993 53.856L121.421 55.732C120.73 56.1053 120.198 56.572 119.825 57.132C119.452 57.6733 119.265 58.364 119.265 59.204C119.265 59.876 119.414 60.4453 119.713 60.912C120.03 61.3787 120.469 61.7427 121.029 62.004C121.589 62.2467 122.233 62.368 122.961 62.368C123.913 62.368 124.697 62.172 125.313 61.78C125.948 61.388 126.424 60.9213 126.741 60.38L128.757 62.732C128.365 63.2173 127.861 63.656 127.245 64.048C126.629 64.4213 125.948 64.72 125.201 64.944C124.454 65.168 123.67 65.28 122.849 65.28ZM47.588 95.28C46.0387 95.28 44.7227 95 43.64 94.44C42.5573 93.88 41.5867 93.0587 40.728 91.976L42.912 89.792C43.4533 90.576 44.0973 91.192 44.844 91.64C45.5907 92.0693 46.5427 92.284 47.7 92.284C48.7827 92.284 49.6413 92.06 50.276 91.612C50.9293 91.164 51.256 90.548 51.256 89.764C51.256 89.1107 51.088 88.5787 50.752 88.168C50.416 87.7573 49.968 87.4213 49.408 87.16C48.8667 86.88 48.26 86.6373 47.588 86.432C46.9347 86.208 46.272 85.9653 45.6 85.704C44.9467 85.424 44.34 85.0787 43.78 84.668C43.2387 84.2573 42.8 83.7253 42.464 83.072C42.128 82.4187 41.96 81.588 41.96 80.58C41.96 79.4227 42.24 78.4427 42.8 77.64C43.3787 76.8187 44.1533 76.1933 45.124 75.764C46.0947 75.3347 47.1773 75.12 48.372 75.12C49.66 75.12 50.808 75.372 51.816 75.876C52.8427 76.38 53.6733 77.024 54.308 77.808L52.124 79.992C51.564 79.3573 50.976 78.8907 50.36 78.592C49.7627 78.2747 49.072 78.116 48.288 78.116C47.3173 78.116 46.552 78.312 45.992 78.704C45.4507 79.096 45.18 79.6467 45.18 80.356C45.18 80.9533 45.348 81.4387 45.684 81.812C46.02 82.1667 46.4587 82.4747 47 82.736C47.56 82.9787 48.1667 83.212 48.82 83.436C49.492 83.66 50.1547 83.912 50.808 84.192C51.48 84.472 52.0867 84.836 52.628 85.284C53.188 85.7133 53.636 86.2733 53.972 86.964C54.308 87.6547 54.476 88.5227 54.476 89.568C54.476 91.3227 53.8507 92.7133 52.6 93.74C51.368 94.7667 49.6973 95.28 47.588 95.28ZM63.2905 95.28C61.9652 95.28 60.7612 94.972 59.6785 94.356C58.6145 93.74 57.7745 92.9 57.1585 91.836C56.5425 90.772 56.2345 89.5867 56.2345 88.28C56.2345 86.9547 56.5425 85.7693 57.1585 84.724C57.7745 83.66 58.6145 82.82 59.6785 82.204C60.7612 81.588 61.9652 81.28 63.2905 81.28C64.3359 81.28 65.3065 81.4853 66.2025 81.896C67.1172 82.288 67.8919 82.8573 68.5265 83.604L66.5105 85.648C66.1185 85.1813 65.6425 84.836 65.0825 84.612C64.5412 84.3693 63.9439 84.248 63.2905 84.248C62.5252 84.248 61.8439 84.4253 61.2465 84.78C60.6679 85.116 60.2105 85.5827 59.8745 86.18C59.5572 86.7773 59.3985 87.4773 59.3985 88.28C59.3985 89.064 59.5572 89.764 59.8745 90.38C60.2105 90.9773 60.6679 91.4533 61.2465 91.808C61.8439 92.144 62.5252 92.312 63.2905 92.312C63.9439 92.312 64.5412 92.2 65.0825 91.976C65.6425 91.7333 66.1185 91.3787 66.5105 90.912L68.5265 92.956C67.8919 93.7027 67.1172 94.2813 66.2025 94.692C65.3065 95.084 64.3359 95.28 63.2905 95.28ZM76.1016 95.28C74.8883 95.28 73.787 94.972 72.7976 94.356C71.827 93.74 71.0523 92.9093 70.4736 91.864C69.9136 90.8 69.6336 89.6147 69.6336 88.308C69.6336 86.9827 69.9136 85.7973 70.4736 84.752C71.0523 83.688 71.827 82.848 72.7976 82.232C73.787 81.5973 74.8883 81.28 76.1016 81.28C77.1283 81.28 78.0336 81.504 78.8176 81.952C79.6203 82.3813 80.255 82.9787 80.7216 83.744C81.1883 84.5093 81.4216 85.3773 81.4216 86.348V90.212C81.4216 91.1827 81.1883 92.0507 80.7216 92.816C80.2736 93.5813 79.6483 94.188 78.8456 94.636C78.043 95.0653 77.1283 95.28 76.1016 95.28ZM76.6056 92.368C77.7443 92.368 78.659 91.9853 79.3496 91.22C80.059 90.4547 80.4136 89.4747 80.4136 88.28C80.4136 87.4773 80.255 86.768 79.9376 86.152C79.6203 85.536 79.1723 85.06 78.5936 84.724C78.0336 84.3693 77.371 84.192 76.6056 84.192C75.859 84.192 75.1963 84.3693 74.6176 84.724C74.0576 85.06 73.6096 85.536 73.2736 86.152C72.9563 86.768 72.7976 87.4773 72.7976 88.28C72.7976 89.0827 72.9563 89.792 73.2736 90.408C73.6096 91.024 74.0576 91.5093 74.6176 91.864C75.1963 92.2 75.859 92.368 76.6056 92.368ZM80.2176 95V91.388L80.7496 88.112L80.2176 84.864V81.56H83.2976V95H80.2176ZM86.7158 95V74.84H89.7958V95H86.7158ZM99.4676 95.28C98.1236 95.28 96.9103 94.9813 95.8276 94.384C94.7636 93.768 93.9143 92.928 93.2796 91.864C92.6636 90.8 92.3556 89.6053 92.3556 88.28C92.3556 86.9547 92.6636 85.7693 93.2796 84.724C93.8956 83.66 94.7263 82.82 95.7716 82.204C96.8356 81.588 98.0116 81.28 99.2996 81.28C100.55 81.28 101.652 81.5693 102.604 82.148C103.574 82.7267 104.33 83.52 104.872 84.528C105.432 85.536 105.712 86.684 105.712 87.972C105.712 88.196 105.693 88.4293 105.656 88.672C105.637 88.896 105.6 89.148 105.544 89.428H94.5116V86.908H103.948L102.8 87.916C102.762 87.0947 102.604 86.404 102.324 85.844C102.044 85.284 101.642 84.8547 101.12 84.556C100.616 84.2573 99.9903 84.108 99.2436 84.108C98.4596 84.108 97.7783 84.276 97.1996 84.612C96.621 84.948 96.173 85.424 95.8556 86.04C95.5383 86.6373 95.3796 87.356 95.3796 88.196C95.3796 89.036 95.5476 89.7733 95.8836 90.408C96.2196 91.0427 96.6956 91.5373 97.3116 91.892C97.9276 92.228 98.637 92.396 99.4396 92.396C100.13 92.396 100.765 92.2747 101.344 92.032C101.941 91.7893 102.445 91.4347 102.856 90.968L104.816 92.956C104.162 93.7213 103.369 94.3 102.436 94.692C101.502 95.084 100.513 95.28 99.4676 95.28Z" fill="#101010"/>
<path d="M188 0H298V110H288C232.772 110 188 65.2285 188 10V0Z" fill="#35938D"/>
<path d="M258.792 65.52C256.365 65.52 254.164 65.0867 252.188 64.22C250.247 63.3187 248.6 62.0187 247.248 60.32L251.304 56.264C252.032 57.3733 253.055 58.2573 254.372 58.916C255.689 59.5747 257.128 59.904 258.688 59.904C260.179 59.904 261.461 59.6267 262.536 59.072C263.611 58.5173 264.443 57.7373 265.032 56.732C265.656 55.7267 265.968 54.5653 265.968 53.248C265.968 51.8613 265.656 50.6827 265.032 49.712C264.443 48.7413 263.576 47.996 262.432 47.476C261.323 46.9213 259.971 46.644 258.376 46.644C257.752 46.644 257.111 46.696 256.452 46.8C255.793 46.8693 255.204 46.9907 254.684 47.164L257.336 43.732C258.064 43.4547 258.827 43.2293 259.624 43.056C260.456 42.848 261.253 42.744 262.016 42.744C263.888 42.744 265.569 43.1947 267.06 44.096C268.585 44.9973 269.781 46.2627 270.648 47.892C271.549 49.4867 272 51.376 272 53.56C272 55.9173 271.445 57.9973 270.336 59.8C269.227 61.6027 267.684 63.0067 265.708 64.012C263.732 65.0173 261.427 65.52 258.792 65.52ZM254.684 47.164V43.628L264.408 32.292L271.584 32.136L261.444 43.784L254.684 47.164ZM249.068 33.956V28.6H271.584V32.136L266.436 33.956H249.068Z" fill="#101010"/>
<path d="M44.448 132.16C43.5947 132.16 42.8587 132 42.24 131.68C41.6213 131.349 41.0773 130.891 40.608 130.304L41.424 129.504C41.7973 130.027 42.2293 130.416 42.72 130.672C43.2213 130.928 43.8133 131.056 44.496 131.056C45.2 131.056 45.7707 130.896 46.208 130.576C46.6453 130.256 46.864 129.813 46.864 129.248C46.864 128.811 46.7627 128.453 46.56 128.176C46.3573 127.888 46.0907 127.659 45.76 127.488C45.44 127.307 45.0827 127.147 44.688 127.008C44.2933 126.869 43.8987 126.725 43.504 126.576C43.12 126.416 42.7627 126.219 42.432 125.984C42.1013 125.749 41.8347 125.451 41.632 125.088C41.44 124.725 41.344 124.261 41.344 123.696C41.344 123.099 41.488 122.587 41.776 122.16C42.064 121.733 42.4587 121.408 42.96 121.184C43.4613 120.949 44.032 120.832 44.672 120.832C45.3867 120.832 46.0213 120.971 46.576 121.248C47.1413 121.525 47.6107 121.899 47.984 122.368L47.184 123.168C46.8427 122.763 46.4693 122.453 46.064 122.24C45.6587 122.027 45.184 121.92 44.64 121.92C44 121.92 43.488 122.069 43.104 122.368C42.72 122.667 42.528 123.083 42.528 123.616C42.528 124.032 42.624 124.368 42.816 124.624C43.0187 124.88 43.2853 125.093 43.616 125.264C43.9467 125.435 44.304 125.589 44.688 125.728C45.0827 125.856 45.4773 126 45.872 126.16C46.2667 126.32 46.624 126.523 46.944 126.768C47.2747 127.013 47.5413 127.328 47.744 127.712C47.9467 128.085 48.048 128.565 48.048 129.152C48.048 130.101 47.7227 130.843 47.072 131.376C46.432 131.899 45.5573 132.16 44.448 132.16ZM53.1188 132.16C52.4041 132.16 51.7641 131.989 51.1988 131.648C50.6334 131.296 50.1854 130.827 49.8548 130.24C49.5348 129.653 49.3748 128.992 49.3748 128.256C49.3748 127.509 49.5348 126.843 49.8548 126.256C50.1854 125.659 50.6334 125.189 51.1988 124.848C51.7641 124.496 52.3988 124.32 53.1028 124.32C53.6788 124.32 54.1908 124.437 54.6388 124.672C55.0974 124.896 55.4654 125.216 55.7428 125.632C56.0308 126.037 56.2068 126.512 56.2708 127.056V129.408C56.2068 129.952 56.0308 130.432 55.7428 130.848C55.4654 131.264 55.0974 131.589 54.6388 131.824C54.1908 132.048 53.6841 132.16 53.1188 132.16ZM53.2948 131.088C54.0734 131.088 54.6974 130.827 55.1668 130.304C55.6468 129.781 55.8868 129.093 55.8868 128.24C55.8868 127.675 55.7748 127.179 55.5508 126.752C55.3374 126.315 55.0334 125.979 54.6388 125.744C54.2548 125.499 53.8014 125.376 53.2788 125.376C52.7454 125.376 52.2708 125.499 51.8548 125.744C51.4494 125.989 51.1241 126.331 50.8788 126.768C50.6441 127.195 50.5268 127.685 50.5268 128.24C50.5268 128.795 50.6441 129.285 50.8788 129.712C51.1241 130.139 51.4548 130.475 51.8708 130.72C52.2868 130.965 52.7614 131.088 53.2948 131.088ZM55.8228 132V129.984L56.0468 128.128L55.8228 126.32V124.48H56.9427V132H55.8228ZM61.8381 132L58.3661 124.48H59.6141L62.5421 131.056H61.8381L64.7821 124.48H65.9981L62.4941 132H61.8381ZM70.5455 132.16C69.7882 132.16 69.1108 131.989 68.5135 131.648C67.9162 131.307 67.4415 130.837 67.0895 130.24C66.7482 129.643 66.5775 128.971 66.5775 128.224C66.5775 127.488 66.7482 126.827 67.0895 126.24C67.4308 125.643 67.8948 125.173 68.4815 124.832C69.0682 124.491 69.7242 124.32 70.4495 124.32C71.1322 124.32 71.7348 124.475 72.2575 124.784C72.7908 125.093 73.2068 125.525 73.5055 126.08C73.8148 126.624 73.9695 127.253 73.9695 127.968C73.9695 128.053 73.9642 128.155 73.9535 128.272C73.9428 128.379 73.9215 128.507 73.8895 128.656H67.3775V127.696H73.2815L72.8815 128.048C72.8922 127.493 72.7962 127.019 72.5935 126.624C72.4015 126.219 72.1188 125.909 71.7455 125.696C71.3828 125.472 70.9402 125.36 70.4175 125.36C69.8735 125.36 69.3988 125.477 68.9935 125.712C68.5882 125.947 68.2682 126.277 68.0335 126.704C67.8095 127.12 67.6975 127.616 67.6975 128.192C67.6975 128.768 67.8148 129.275 68.0495 129.712C68.2948 130.149 68.6308 130.491 69.0575 130.736C69.4948 130.981 69.9962 131.104 70.5615 131.104C71.0202 131.104 71.4415 131.024 71.8255 130.864C72.2095 130.693 72.5348 130.443 72.8015 130.112L73.5215 130.848C73.1695 131.264 72.7322 131.589 72.2095 131.824C71.6975 132.048 71.1428 132.16 70.5455 132.16ZM80.2884 132V121.312H81.4084V132H80.2884ZM78.3844 125.488V124.48H83.2964V125.488H78.3844ZM84.8391 132V124.48H85.9751V132H84.8391ZM85.3991 122.848C85.1858 122.848 85.0045 122.773 84.8551 122.624C84.7058 122.464 84.6311 122.277 84.6311 122.064C84.6311 121.84 84.7058 121.653 84.8551 121.504C85.0045 121.355 85.1858 121.28 85.3991 121.28C85.6338 121.28 85.8205 121.355 85.9591 121.504C86.1085 121.653 86.1831 121.84 86.1831 122.064C86.1831 122.277 86.1085 122.464 85.9591 122.624C85.8205 122.773 85.6338 122.848 85.3991 122.848ZM88.2454 132V124.48H89.3654V132H88.2454ZM93.4134 132V127.392C93.4134 126.773 93.2267 126.283 92.8534 125.92C92.48 125.547 92.0107 125.36 91.4454 125.36C91.0614 125.36 90.7094 125.445 90.3894 125.616C90.08 125.776 89.8294 126.005 89.6374 126.304C89.456 126.603 89.3654 126.96 89.3654 127.376L88.8534 127.168C88.8534 126.592 88.9814 126.091 89.2374 125.664C89.4934 125.237 89.8347 124.907 90.2614 124.672C90.6987 124.437 91.1894 124.32 91.7334 124.32C92.2667 124.32 92.7414 124.437 93.1574 124.672C93.584 124.907 93.92 125.237 94.1654 125.664C94.4214 126.091 94.5494 126.597 94.5494 127.184V132H93.4134ZM98.5974 132V127.392C98.5974 126.773 98.4107 126.283 98.0374 125.92C97.664 125.547 97.1894 125.36 96.6134 125.36C96.24 125.36 95.8934 125.445 95.5734 125.616C95.264 125.776 95.0134 126.005 94.8214 126.304C94.64 126.603 94.5494 126.96 94.5494 127.376L93.8774 127.168C93.9094 126.592 94.0587 126.091 94.3254 125.664C94.6027 125.237 94.96 124.907 95.3974 124.672C95.8454 124.437 96.336 124.32 96.8694 124.32C97.4027 124.32 97.8827 124.437 98.3094 124.672C98.7467 124.907 99.088 125.237 99.3334 125.664C99.5894 126.091 99.7174 126.597 99.7174 127.184V132H98.5974ZM105.296 132.16C104.538 132.16 103.861 131.989 103.264 131.648C102.666 131.307 102.192 130.837 101.84 130.24C101.498 129.643 101.328 128.971 101.328 128.224C101.328 127.488 101.498 126.827 101.84 126.24C102.181 125.643 102.645 125.173 103.232 124.832C103.818 124.491 104.474 124.32 105.2 124.32C105.882 124.32 106.485 124.475 107.008 124.784C107.541 125.093 107.957 125.525 108.256 126.08C108.565 126.624 108.72 127.253 108.72 127.968C108.72 128.053 108.714 128.155 108.704 128.272C108.693 128.379 108.672 128.507 108.64 128.656H102.128V127.696H108.032L107.632 128.048C107.642 127.493 107.546 127.019 107.344 126.624C107.152 126.219 106.869 125.909 106.496 125.696C106.133 125.472 105.69 125.36 105.168 125.36C104.624 125.36 104.149 125.477 103.744 125.712C103.338 125.947 103.018 126.277 102.784 126.704C102.56 127.12 102.448 127.616 102.448 128.192C102.448 128.768 102.565 129.275 102.799 129.712C103.045 130.149 103.381 130.491 103.808 130.736C104.245 130.981 104.746 131.104 105.312 131.104C105.77 131.104 106.192 131.024 106.576 130.864C106.96 130.693 107.285 130.443 107.552 130.112L108.272 130.848C107.92 131.264 107.482 131.589 106.96 131.824C106.448 132.048 105.893 132.16 105.296 132.16ZM110.593 133.648L111.505 131.872L111.905 131.776C111.862 131.872 111.804 131.952 111.729 132.016C111.654 132.091 111.564 132.128 111.457 132.128C111.254 132.128 111.068 132.048 110.897 131.888C110.737 131.717 110.657 131.509 110.657 131.264C110.657 131.008 110.748 130.789 110.929 130.608C111.11 130.416 111.329 130.32 111.585 130.32C111.83 130.32 112.044 130.416 112.225 130.608C112.417 130.789 112.513 131.008 112.513 131.264C112.513 131.371 112.492 131.499 112.449 131.648C112.417 131.787 112.342 131.973 112.225 132.208L111.265 134.016L110.593 133.648ZM118.261 132V124.48H119.397V132H118.261ZM118.821 122.848C118.608 122.848 118.426 122.773 118.277 122.624C118.128 122.464 118.053 122.277 118.053 122.064C118.053 121.84 118.128 121.653 118.277 121.504C118.426 121.355 118.608 121.28 118.821 121.28C119.056 121.28 119.242 121.355 119.381 121.504C119.53 121.653 119.605 121.84 119.605 122.064C119.605 122.277 119.53 122.464 119.381 122.624C119.242 122.773 119.056 122.848 118.821 122.848ZM121.667 132V124.48H122.787V132H121.667ZM126.835 132V127.392C126.835 126.773 126.649 126.283 126.275 125.92C125.902 125.547 125.433 125.36 124.867 125.36C124.483 125.36 124.131 125.445 123.811 125.616C123.502 125.776 123.251 126.005 123.059 126.304C122.878 126.603 122.787 126.96 122.787 127.376L122.275 127.168C122.275 126.592 122.403 126.091 122.659 125.664C122.915 125.237 123.257 124.907 123.683 124.672C124.121 124.437 124.611 124.32 125.155 124.32C125.689 124.32 126.163 124.437 126.579 124.672C127.006 124.907 127.342 125.237 127.587 125.664C127.843 126.091 127.971 126.597 127.971 127.184V132H126.835ZM132.019 132V127.392C132.019 126.773 131.833 126.283 131.459 125.92C131.086 125.547 130.611 125.36 130.035 125.36C129.662 125.36 129.315 125.445 128.995 125.616C128.686 125.776 128.435 126.005 128.243 126.304C128.062 126.603 127.971 126.96 127.971 127.376L127.299 127.168C127.331 126.592 127.481 126.091 127.747 125.664C128.025 125.237 128.382 124.907 128.819 124.672C129.267 124.437 129.758 124.32 130.291 124.32C130.825 124.32 131.305 124.437 131.731 124.672C132.169 124.907 132.51 125.237 132.755 125.664C133.011 126.091 133.139 126.597 133.139 127.184V132H132.019ZM139.133 132.16C138.557 132.16 138.04 132.043 137.581 131.808C137.123 131.573 136.744 131.253 136.445 130.848C136.157 130.432 135.981 129.952 135.917 129.408V127.056C135.981 126.501 136.163 126.021 136.461 125.616C136.76 125.2 137.139 124.88 137.597 124.656C138.067 124.432 138.579 124.32 139.133 124.32C139.827 124.32 140.451 124.496 141.005 124.848C141.56 125.189 141.997 125.659 142.317 126.256C142.648 126.843 142.813 127.509 142.813 128.256C142.813 128.992 142.653 129.653 142.333 130.24C142.013 130.827 141.571 131.296 141.005 131.648C140.451 131.989 139.827 132.16 139.133 132.16ZM135.245 135.168V124.48H136.365V126.4L136.141 128.224L136.365 130.064V135.168H135.245ZM138.941 131.088C139.475 131.088 139.944 130.971 140.349 130.736C140.755 130.491 141.069 130.155 141.293 129.728C141.528 129.291 141.645 128.795 141.645 128.24C141.645 127.675 141.528 127.179 141.293 126.752C141.069 126.325 140.755 125.989 140.349 125.744C139.944 125.499 139.48 125.376 138.957 125.376C138.435 125.376 137.971 125.499 137.565 125.744C137.171 125.989 136.861 126.325 136.637 126.752C136.413 127.179 136.301 127.675 136.301 128.24C136.301 128.795 136.413 129.291 136.637 129.728C136.861 130.155 137.171 130.491 137.565 130.736C137.96 130.971 138.419 131.088 138.941 131.088ZM144.605 132V124.48H145.725V132H144.605ZM145.725 127.616L145.261 127.408C145.261 126.459 145.49 125.707 145.949 125.152C146.418 124.597 147.058 124.32 147.869 124.32C148.242 124.32 148.583 124.389 148.893 124.528C149.202 124.656 149.49 124.864 149.757 125.152L149.021 125.936C148.839 125.733 148.637 125.589 148.413 125.504C148.199 125.419 147.954 125.376 147.677 125.376C147.101 125.376 146.631 125.568 146.269 125.952C145.906 126.325 145.725 126.88 145.725 127.616ZM154.091 132.16C153.366 132.16 152.704 131.984 152.107 131.632C151.52 131.28 151.051 130.805 150.699 130.208C150.358 129.611 150.187 128.944 150.187 128.208C150.187 127.483 150.358 126.827 150.699 126.24C151.051 125.653 151.52 125.189 152.107 124.848C152.704 124.496 153.366 124.32 154.091 124.32C154.827 124.32 155.488 124.491 156.075 124.832C156.662 125.173 157.126 125.643 157.467 126.24C157.819 126.827 157.995 127.483 157.995 128.208C157.995 128.955 157.819 129.627 157.467 130.224C157.126 130.811 156.662 131.28 156.075 131.632C155.488 131.984 154.827 132.16 154.091 132.16ZM154.091 131.072C154.624 131.072 155.094 130.949 155.499 130.704C155.915 130.459 156.24 130.117 156.475 129.68C156.72 129.243 156.843 128.752 156.843 128.208C156.843 127.664 156.72 127.184 156.475 126.768C156.24 126.341 155.915 126.005 155.499 125.76C155.094 125.515 154.624 125.392 154.091 125.392C153.568 125.392 153.099 125.515 152.683 125.76C152.267 126.005 151.942 126.341 151.707 126.768C151.472 127.184 151.355 127.664 151.355 128.208C151.355 128.763 151.472 129.259 151.707 129.696C151.942 130.123 152.267 130.459 152.683 130.704C153.099 130.949 153.568 131.072 154.091 131.072ZM162.073 132L158.601 124.48H159.849L162.777 131.056H162.073L165.017 124.48H166.233L162.729 132H162.073ZM170.78 132.16C170.023 132.16 169.345 131.989 168.748 131.648C168.151 131.307 167.676 130.837 167.324 130.24C166.983 129.643 166.812 128.971 166.812 128.224C166.812 127.488 166.983 126.827 167.324 126.24C167.665 125.643 168.129 125.173 168.716 124.832C169.303 124.491 169.959 124.32 170.684 124.32C171.367 124.32 171.969 124.475 172.492 124.784C173.025 125.093 173.441 125.525 173.74 126.08C174.049 126.624 174.204 127.253 174.204 127.968C174.204 128.053 174.199 128.155 174.188 128.272C174.177 128.379 174.156 128.507 174.124 128.656H167.612V127.696H173.516L173.116 128.048C173.127 127.493 173.031 127.019 172.828 126.624C172.636 126.219 172.353 125.909 171.98 125.696C171.617 125.472 171.175 125.36 170.652 125.36C170.108 125.36 169.633 125.477 169.228 125.712C168.823 125.947 168.503 126.277 168.268 126.704C168.044 127.12 167.932 127.616 167.932 128.192C167.932 128.768 168.049 129.275 168.284 129.712C168.529 130.149 168.865 130.491 169.292 130.736C169.729 130.981 170.231 131.104 170.796 131.104C171.255 131.104 171.676 131.024 172.06 130.864C172.444 130.693 172.769 130.443 173.036 130.112L173.756 130.848C173.404 131.264 172.967 131.589 172.444 131.824C171.932 132.048 171.377 132.16 170.78 132.16ZM182.827 132.16C182.069 132.16 181.392 131.989 180.795 131.648C180.197 131.307 179.723 130.837 179.371 130.24C179.029 129.643 178.859 128.971 178.859 128.224C178.859 127.488 179.029 126.827 179.371 126.24C179.712 125.643 180.176 125.173 180.763 124.832C181.349 124.491 182.005 124.32 182.731 124.32C183.413 124.32 184.016 124.475 184.539 124.784C185.072 125.093 185.488 125.525 185.787 126.08C186.096 126.624 186.251 127.253 186.251 127.968C186.251 128.053 186.245 128.155 186.235 128.272C186.224 128.379 186.203 128.507 186.171 128.656H179.659V127.696H185.563L185.163 128.048C185.173 127.493 185.077 127.019 184.875 126.624C184.683 126.219 184.4 125.909 184.027 125.696C183.664 125.472 183.221 125.36 182.699 125.36C182.155 125.36 181.68 125.477 181.275 125.712C180.869 125.947 180.549 126.277 180.315 126.704C180.091 127.12 179.979 127.616 179.979 128.192C179.979 128.768 180.096 129.275 180.331 129.712C180.576 130.149 180.912 130.491 181.339 130.736C181.776 130.981 182.277 131.104 182.843 131.104C183.301 131.104 183.723 131.024 184.107 130.864C184.491 130.693 184.816 130.443 185.083 130.112L185.803 130.848C185.451 131.264 185.013 131.589 184.491 131.824C183.979 132.048 183.424 132.16 182.827 132.16ZM188.787 132V123.456C188.787 122.912 188.904 122.432 189.139 122.016C189.374 121.6 189.699 121.275 190.115 121.04C190.542 120.795 191.027 120.672 191.571 120.672C192.115 120.672 192.568 120.789 192.931 121.024C193.304 121.259 193.582 121.584 193.763 122C193.944 122.405 194.035 122.864 194.035 123.376H193.203C193.192 122.875 193.048 122.469 192.771 122.16C192.504 121.851 192.104 121.696 191.571 121.696C191.038 121.696 190.627 121.856 190.339 122.176C190.062 122.496 189.923 122.923 189.923 123.456V132H188.787ZM186.899 125.488V124.48H196.851V125.488H186.899ZM193.203 132V123.2C193.203 122.677 193.32 122.213 193.555 121.808C193.79 121.403 194.11 121.088 194.515 120.864C194.92 120.629 195.384 120.512 195.907 120.512C196.312 120.512 196.67 120.587 196.979 120.736C197.288 120.875 197.571 121.072 197.827 121.328L197.091 122.064C196.92 121.893 196.739 121.771 196.547 121.696C196.366 121.611 196.152 121.568 195.907 121.568C195.406 121.568 195.016 121.717 194.739 122.016C194.472 122.304 194.339 122.709 194.339 123.232V132H193.203ZM198.417 132V124.48H199.553V132H198.417ZM198.977 122.848C198.764 122.848 198.583 122.773 198.433 122.624C198.284 122.464 198.209 122.277 198.209 122.064C198.209 121.84 198.284 121.653 198.433 121.504C198.583 121.355 198.764 121.28 198.977 121.28C199.212 121.28 199.399 121.355 199.537 121.504C199.687 121.653 199.761 121.84 199.761 122.064C199.761 122.277 199.687 122.464 199.537 122.624C199.399 122.773 199.212 122.848 198.977 122.848ZM205.248 132.16C204.512 132.16 203.845 131.989 203.248 131.648C202.661 131.296 202.192 130.821 201.84 130.224C201.498 129.627 201.328 128.96 201.328 128.224C201.328 127.488 201.498 126.827 201.84 126.24C202.192 125.643 202.661 125.173 203.248 124.832C203.845 124.491 204.512 124.32 205.248 124.32C205.813 124.32 206.341 124.427 206.832 124.64C207.322 124.853 207.738 125.152 208.08 125.536L207.344 126.288C207.088 126 206.778 125.781 206.416 125.632C206.053 125.472 205.664 125.392 205.248 125.392C204.714 125.392 204.24 125.515 203.824 125.76C203.408 126.005 203.082 126.341 202.848 126.768C202.613 127.184 202.496 127.669 202.496 128.224C202.496 128.768 202.613 129.259 202.848 129.696C203.082 130.123 203.408 130.459 203.824 130.704C204.24 130.949 204.714 131.072 205.248 131.072C205.674 131.072 206.069 130.997 206.432 130.848C206.794 130.688 207.104 130.464 207.36 130.176L208.112 130.928C207.76 131.323 207.333 131.627 206.832 131.84C206.341 132.053 205.813 132.16 205.248 132.16ZM209.683 132V124.48H210.819V132H209.683ZM210.243 122.848C210.03 122.848 209.848 122.773 209.699 122.624C209.55 122.464 209.475 122.277 209.475 122.064C209.475 121.84 209.55 121.653 209.699 121.504C209.848 121.355 210.03 121.28 210.243 121.28C210.478 121.28 210.664 121.355 210.803 121.504C210.952 121.653 211.027 121.84 211.027 122.064C211.027 122.277 210.952 122.464 210.803 122.624C210.664 122.773 210.478 122.848 210.243 122.848ZM216.561 132.16C215.804 132.16 215.126 131.989 214.529 131.648C213.932 131.307 213.457 130.837 213.105 130.24C212.764 129.643 212.593 128.971 212.593 128.224C212.593 127.488 212.764 126.827 213.105 126.24C213.446 125.643 213.91 125.173 214.497 124.832C215.084 124.491 215.74 124.32 216.465 124.32C217.148 124.32 217.75 124.475 218.273 124.784C218.806 125.093 219.222 125.525 219.521 126.08C219.83 126.624 219.985 127.253 219.985 127.968C219.985 128.053 219.98 128.155 219.969 128.272C219.958 128.379 219.937 128.507 219.905 128.656H213.393V127.696H219.297L218.897 128.048C218.908 127.493 218.812 127.019 218.609 126.624C218.417 126.219 218.134 125.909 217.761 125.696C217.398 125.472 216.956 125.36 216.433 125.36C215.889 125.36 215.414 125.477 215.009 125.712C214.604 125.947 214.284 126.277 214.049 126.704C213.825 127.12 213.713 127.616 213.713 128.192C213.713 128.768 213.83 129.275 214.065 129.712C214.31 130.149 214.646 130.491 215.073 130.736C215.51 130.981 216.012 131.104 216.577 131.104C217.036 131.104 217.457 131.024 217.841 130.864C218.225 130.693 218.55 130.443 218.817 130.112L219.537 130.848C219.185 131.264 218.748 131.589 218.225 131.824C217.713 132.048 217.158 132.16 216.561 132.16ZM227.171 132V127.584C227.171 126.923 226.973 126.389 226.579 125.984C226.195 125.568 225.683 125.36 225.043 125.36C224.605 125.36 224.221 125.456 223.891 125.648C223.56 125.84 223.299 126.101 223.107 126.432C222.915 126.763 222.819 127.141 222.819 127.568L222.307 127.28C222.307 126.715 222.44 126.208 222.707 125.76C222.973 125.312 223.331 124.96 223.779 124.704C224.237 124.448 224.76 124.32 225.347 124.32C225.923 124.32 226.435 124.459 226.883 124.736C227.331 125.013 227.677 125.387 227.923 125.856C228.179 126.325 228.307 126.837 228.307 127.392V132H227.171ZM221.699 132V124.48H222.819V132H221.699ZM233.826 132.16C233.09 132.16 232.423 131.989 231.826 131.648C231.239 131.296 230.77 130.821 230.418 130.224C230.076 129.627 229.906 128.96 229.906 128.224C229.906 127.488 230.076 126.827 230.418 126.24C230.77 125.643 231.239 125.173 231.826 124.832C232.423 124.491 233.09 124.32 233.826 124.32C234.391 124.32 234.919 124.427 235.41 124.64C235.9 124.853 236.316 125.152 236.658 125.536L235.922 126.288C235.666 126 235.356 125.781 234.994 125.632C234.631 125.472 234.242 125.392 233.826 125.392C233.292 125.392 232.818 125.515 232.402 125.76C231.986 126.005 231.66 126.341 231.426 126.768C231.191 127.184 231.074 127.669 231.074 128.224C231.074 128.768 231.191 129.259 231.426 129.696C231.66 130.123 231.986 130.459 232.402 130.704C232.818 130.949 233.292 131.072 233.826 131.072C234.252 131.072 234.647 130.997 235.01 130.848C235.372 130.688 235.682 130.464 235.938 130.176L236.69 130.928C236.338 131.323 235.911 131.627 235.41 131.84C234.919 132.053 234.391 132.16 233.826 132.16ZM240.773 132.032L237.477 124.48H238.709L241.365 130.784H240.901L243.701 124.48H244.949L241.413 132.032H240.773ZM238.725 135.168L240.789 130.896L241.413 132.032L239.957 135.168H238.725ZM245.484 133.648L246.396 131.872L246.796 131.776C246.753 131.872 246.694 131.952 246.62 132.016C246.545 132.091 246.454 132.128 246.348 132.128C246.145 132.128 245.958 132.048 245.788 131.888C245.628 131.717 245.548 131.509 245.548 131.264C245.548 131.008 245.638 130.789 245.82 130.608C246.001 130.416 246.22 130.32 246.476 130.32C246.721 130.32 246.934 130.416 247.116 130.608C247.308 130.789 247.404 131.008 247.404 131.264C247.404 131.371 247.382 131.499 247.34 131.648C247.308 131.787 247.233 131.973 247.116 132.208L246.156 134.016L245.484 133.648ZM44.4 152.16C43.6853 152.16 43.0453 151.989 42.48 151.648C41.9147 151.296 41.4667 150.827 41.136 150.24C40.816 149.653 40.656 148.992 40.656 148.256C40.656 147.509 40.816 146.843 41.136 146.256C41.4667 145.659 41.9147 145.189 42.48 144.848C43.0453 144.496 43.68 144.32 44.384 144.32C44.96 144.32 45.472 144.437 45.92 144.672C46.3787 144.896 46.7467 145.216 47.024 145.632C47.312 146.037 47.488 146.512 47.552 147.056V149.408C47.488 149.952 47.312 150.432 47.024 150.848C46.7467 151.264 46.3787 151.589 45.92 151.824C45.472 152.048 44.9653 152.16 44.4 152.16ZM44.576 151.088C45.3547 151.088 45.9787 150.827 46.448 150.304C46.928 149.781 47.168 149.093 47.168 148.24C47.168 147.675 47.056 147.179 46.832 146.752C46.6187 146.315 46.3147 145.979 45.92 145.744C45.536 145.499 45.0827 145.376 44.56 145.376C44.0267 145.376 43.552 145.499 43.136 145.744C42.7307 145.989 42.4053 146.331 42.16 146.768C41.9253 147.195 41.808 147.685 41.808 148.24C41.808 148.795 41.9253 149.285 42.16 149.712C42.4053 150.139 42.736 150.475 43.152 150.72C43.568 150.965 44.0427 151.088 44.576 151.088ZM47.104 152V149.984L47.328 148.128L47.104 146.32V144.48H48.224V152H47.104ZM55.9674 152V147.584C55.9674 146.923 55.77 146.389 55.3754 145.984C54.9914 145.568 54.4794 145.36 53.8394 145.36C53.402 145.36 53.018 145.456 52.6874 145.648C52.3567 145.84 52.0954 146.101 51.9034 146.432C51.7114 146.763 51.6154 147.141 51.6154 147.568L51.1034 147.28C51.1034 146.715 51.2367 146.208 51.5034 145.76C51.77 145.312 52.1274 144.96 52.5754 144.704C53.034 144.448 53.5567 144.32 54.1434 144.32C54.7194 144.32 55.2314 144.459 55.6794 144.736C56.1274 145.013 56.474 145.387 56.7194 145.856C56.9754 146.325 57.1034 146.837 57.1034 147.392V152H55.9674ZM50.4954 152V144.48H51.6154V152H50.4954ZM62.3985 152.16C61.7052 152.16 61.0812 151.989 60.5265 151.648C59.9718 151.307 59.5292 150.843 59.1985 150.256C58.8785 149.659 58.7185 148.992 58.7185 148.256C58.7185 147.509 58.8785 146.843 59.1985 146.256C59.5292 145.659 59.9718 145.189 60.5265 144.848C61.0812 144.496 61.7052 144.32 62.3985 144.32C62.9638 144.32 63.4758 144.432 63.9345 144.656C64.3932 144.88 64.7718 145.2 65.0705 145.616C65.3798 146.021 65.5612 146.501 65.6145 147.056V149.408C65.5505 149.952 65.3692 150.432 65.0705 150.848C64.7825 151.253 64.4092 151.573 63.9505 151.808C63.4918 152.043 62.9745 152.16 62.3985 152.16ZM62.5905 151.088C63.1132 151.088 63.5718 150.971 63.9665 150.736C64.3612 150.491 64.6705 150.155 64.8945 149.728C65.1185 149.291 65.2305 148.795 65.2305 148.24C65.2305 147.675 65.1132 147.179 64.8785 146.752C64.6545 146.325 64.3452 145.989 63.9505 145.744C63.5558 145.499 63.0972 145.376 62.5745 145.376C62.0518 145.376 61.5878 145.499 61.1825 145.744C60.7772 145.989 60.4572 146.331 60.2225 146.768C59.9985 147.195 59.8865 147.685 59.8865 148.24C59.8865 148.795 59.9985 149.291 60.2225 149.728C60.4572 150.155 60.7772 150.491 61.1825 150.736C61.5985 150.971 62.0678 151.088 62.5905 151.088ZM66.2865 152H65.1665V149.984L65.3905 148.128L65.1665 146.32V140.672H66.2865V152ZM73.0994 152V143.2C73.0994 142.677 73.2114 142.213 73.4354 141.808C73.67 141.403 73.99 141.088 74.3954 140.864C74.8114 140.629 75.2807 140.512 75.8034 140.512C76.2087 140.512 76.566 140.587 76.8754 140.736C77.1847 140.875 77.4674 141.072 77.7234 141.328L76.9874 142.064C76.8167 141.893 76.6354 141.771 76.4434 141.696C76.262 141.611 76.0487 141.568 75.8034 141.568C75.302 141.568 74.9127 141.717 74.6354 142.016C74.3687 142.304 74.2354 142.709 74.2354 143.232V152H73.0994ZM71.2114 145.488V144.48H76.7474V145.488H71.2114ZM81.2159 152.16C80.4905 152.16 79.8292 151.984 79.2319 151.632C78.6452 151.28 78.1759 150.805 77.8239 150.208C77.4825 149.611 77.3119 148.944 77.3119 148.208C77.3119 147.483 77.4825 146.827 77.8239 146.24C78.1759 145.653 78.6452 145.189 79.2319 144.848C79.8292 144.496 80.4905 144.32 81.2159 144.32C81.9519 144.32 82.6132 144.491 83.1999 144.832C83.7865 145.173 84.2505 145.643 84.5919 146.24C84.9439 146.827 85.1199 147.483 85.1199 148.208C85.1199 148.955 84.9439 149.627 84.5919 150.224C84.2505 150.811 83.7865 151.28 83.1999 151.632C82.6132 151.984 81.9519 152.16 81.2159 152.16ZM81.2159 151.072C81.7492 151.072 82.2185 150.949 82.6239 150.704C83.0399 150.459 83.3652 150.117 83.5999 149.68C83.8452 149.243 83.9679 148.752 83.9679 148.208C83.9679 147.664 83.8452 147.184 83.5999 146.768C83.3652 146.341 83.0399 146.005 82.6239 145.76C82.2185 145.515 81.7492 145.392 81.2159 145.392C80.6932 145.392 80.2239 145.515 79.8079 145.76C79.3919 146.005 79.0665 146.341 78.8319 146.768C78.5972 147.184 78.4799 147.664 78.4799 148.208C78.4799 148.763 78.5972 149.259 78.8319 149.696C79.0665 150.123 79.3919 150.459 79.8079 150.704C80.2239 150.949 80.6932 151.072 81.2159 151.072ZM90.3256 152.16C89.5896 152.16 88.923 151.989 88.3256 151.648C87.739 151.296 87.2696 150.821 86.9176 150.224C86.5763 149.627 86.4056 148.96 86.4056 148.224C86.4056 147.488 86.5763 146.827 86.9176 146.24C87.2696 145.643 87.739 145.173 88.3256 144.832C88.923 144.491 89.5896 144.32 90.3256 144.32C90.891 144.32 91.419 144.427 91.9096 144.64C92.4003 144.853 92.8163 145.152 93.1576 145.536L92.4216 146.288C92.1656 146 91.8563 145.781 91.4936 145.632C91.131 145.472 90.7416 145.392 90.3256 145.392C89.7923 145.392 89.3176 145.515 88.9016 145.76C88.4856 146.005 88.1603 146.341 87.9256 146.768C87.691 147.184 87.5736 147.669 87.5736 148.224C87.5736 148.768 87.691 149.259 87.9256 149.696C88.1603 150.123 88.4856 150.459 88.9016 150.704C89.3176 150.949 89.7923 151.072 90.3256 151.072C90.7523 151.072 91.147 150.997 91.5096 150.848C91.8723 150.688 92.1816 150.464 92.4376 150.176L93.1896 150.928C92.8376 151.323 92.411 151.627 91.9096 151.84C91.419 152.053 90.891 152.16 90.3256 152.16ZM97.737 152.16C97.129 152.16 96.585 152.021 96.105 151.744C95.625 151.456 95.2463 151.067 94.969 150.576C94.7023 150.085 94.569 149.509 94.569 148.848V144.48H95.705V148.8C95.705 149.259 95.785 149.659 95.945 150C96.1157 150.341 96.3557 150.608 96.665 150.8C96.9743 150.992 97.3317 151.088 97.737 151.088C98.3663 151.088 98.8623 150.88 99.225 150.464C99.5983 150.048 99.785 149.493 99.785 148.8V144.48H100.905V148.848C100.905 149.499 100.772 150.075 100.505 150.576C100.238 151.077 99.865 151.467 99.385 151.744C98.905 152.021 98.3557 152.16 97.737 152.16ZM105.299 152.16C104.894 152.16 104.505 152.107 104.131 152C103.758 151.883 103.417 151.723 103.107 151.52C102.809 151.317 102.547 151.077 102.323 150.8L103.043 150.064C103.342 150.427 103.678 150.699 104.051 150.88C104.435 151.051 104.862 151.136 105.331 151.136C105.833 151.136 106.222 151.04 106.499 150.848C106.787 150.656 106.931 150.389 106.931 150.048C106.931 149.728 106.83 149.477 106.627 149.296C106.425 149.115 106.163 148.971 105.843 148.864C105.534 148.757 105.203 148.656 104.851 148.56C104.499 148.453 104.163 148.325 103.843 148.176C103.523 148.016 103.262 147.797 103.059 147.52C102.867 147.243 102.771 146.88 102.771 146.432C102.771 146.005 102.873 145.637 103.075 145.328C103.289 145.008 103.587 144.763 103.971 144.592C104.366 144.411 104.83 144.32 105.363 144.32C105.929 144.32 106.441 144.421 106.899 144.624C107.358 144.827 107.726 145.125 108.003 145.52L107.283 146.24C107.059 145.952 106.777 145.733 106.435 145.584C106.105 145.424 105.731 145.344 105.315 145.344C104.835 145.344 104.467 145.44 104.211 145.632C103.966 145.813 103.843 146.053 103.843 146.352C103.843 146.64 103.945 146.869 104.147 147.04C104.35 147.2 104.606 147.333 104.915 147.44C105.235 147.536 105.571 147.637 105.923 147.744C106.275 147.84 106.611 147.973 106.931 148.144C107.251 148.304 107.507 148.528 107.699 148.816C107.902 149.093 108.003 149.472 108.003 149.952C108.003 150.624 107.758 151.163 107.267 151.568C106.787 151.963 106.131 152.16 105.299 152.16ZM116.622 152.16C115.897 152.16 115.235 151.984 114.638 151.632C114.051 151.28 113.582 150.805 113.23 150.208C112.889 149.611 112.718 148.944 112.718 148.208C112.718 147.483 112.889 146.827 113.23 146.24C113.582 145.653 114.051 145.189 114.638 144.848C115.235 144.496 115.897 144.32 116.622 144.32C117.358 144.32 118.019 144.491 118.606 144.832C119.193 145.173 119.657 145.643 119.998 146.24C120.35 146.827 120.526 147.483 120.526 148.208C120.526 148.955 120.35 149.627 119.998 150.224C119.657 150.811 119.193 151.28 118.606 151.632C118.019 151.984 117.358 152.16 116.622 152.16ZM116.622 151.072C117.155 151.072 117.625 150.949 118.03 150.704C118.446 150.459 118.771 150.117 119.006 149.68C119.251 149.243 119.374 148.752 119.374 148.208C119.374 147.664 119.251 147.184 119.006 146.768C118.771 146.341 118.446 146.005 118.03 145.76C117.625 145.515 117.155 145.392 116.622 145.392C116.099 145.392 115.63 145.515 115.214 145.76C114.798 146.005 114.473 146.341 114.238 146.768C114.003 147.184 113.886 147.664 113.886 148.208C113.886 148.763 114.003 149.259 114.238 149.696C114.473 150.123 114.798 150.459 115.214 150.704C115.63 150.949 116.099 151.072 116.622 151.072ZM127.78 152V147.584C127.78 146.923 127.583 146.389 127.188 145.984C126.804 145.568 126.292 145.36 125.652 145.36C125.215 145.36 124.831 145.456 124.5 145.648C124.169 145.84 123.908 146.101 123.716 146.432C123.524 146.763 123.428 147.141 123.428 147.568L122.916 147.28C122.916 146.715 123.049 146.208 123.316 145.76C123.583 145.312 123.94 144.96 124.388 144.704C124.847 144.448 125.369 144.32 125.956 144.32C126.532 144.32 127.044 144.459 127.492 144.736C127.94 145.013 128.287 145.387 128.532 145.856C128.788 146.325 128.916 146.837 128.916 147.392V152H127.78ZM122.308 152V144.48H123.428V152H122.308ZM136.545 152L133.649 144.48H134.817L137.105 150.72L136.689 150.736L138.961 144.48H139.617L141.889 150.736L141.473 150.72L143.745 144.48H144.929L142.017 152H141.361L139.041 145.84H139.521L137.217 152H136.545ZM151.858 152V147.584C151.858 146.923 151.661 146.389 151.266 145.984C150.882 145.568 150.37 145.36 149.73 145.36C149.293 145.36 148.909 145.456 148.578 145.648C148.247 145.84 147.986 146.101 147.794 146.432C147.602 146.763 147.506 147.141 147.506 147.568L146.994 147.28C146.994 146.715 147.127 146.208 147.394 145.76C147.661 145.312 148.018 144.96 148.466 144.704C148.925 144.448 149.447 144.32 150.034 144.32C150.61 144.32 151.122 144.453 151.57 144.72C152.018 144.976 152.365 145.333 152.61 145.792C152.866 146.251 152.994 146.784 152.994 147.392V152H151.858ZM146.386 152V140.672H147.506V152H146.386ZM158.353 152.16C157.638 152.16 156.998 151.989 156.433 151.648C155.868 151.296 155.42 150.827 155.089 150.24C154.769 149.653 154.609 148.992 154.609 148.256C154.609 147.509 154.769 146.843 155.089 146.256C155.42 145.659 155.868 145.189 156.433 144.848C156.998 144.496 157.633 144.32 158.337 144.32C158.913 144.32 159.425 144.437 159.873 144.672C160.332 144.896 160.7 145.216 160.977 145.632C161.265 146.037 161.441 146.512 161.505 147.056V149.408C161.441 149.952 161.265 150.432 160.977 150.848C160.7 151.264 160.332 151.589 159.873 151.824C159.425 152.048 158.918 152.16 158.353 152.16ZM158.529 151.088C159.308 151.088 159.932 150.827 160.401 150.304C160.881 149.781 161.121 149.093 161.121 148.24C161.121 147.675 161.009 147.179 160.785 146.752C160.572 146.315 160.268 145.979 159.873 145.744C159.489 145.499 159.036 145.376 158.513 145.376C157.98 145.376 157.505 145.499 157.089 145.744C156.684 145.989 156.358 146.331 156.113 146.768C155.878 147.195 155.761 147.685 155.761 148.24C155.761 148.795 155.878 149.285 156.113 149.712C156.358 150.139 156.689 150.475 157.105 150.72C157.521 150.965 157.996 151.088 158.529 151.088ZM161.057 152V149.984L161.281 148.128L161.057 146.32V144.48H162.177V152H161.057ZM165.554 152V141.312H166.674V152H165.554ZM163.65 145.488V144.48H168.562V145.488H163.65ZM173.542 152V144.48H174.662V152H173.542ZM178.71 152V147.392C178.71 146.773 178.524 146.283 178.15 145.92C177.777 145.547 177.308 145.36 176.742 145.36C176.358 145.36 176.006 145.445 175.686 145.616C175.377 145.776 175.126 146.005 174.934 146.304C174.753 146.603 174.662 146.96 174.662 147.376L174.15 147.168C174.15 146.592 174.278 146.091 174.534 145.664C174.79 145.237 175.132 144.907 175.558 144.672C175.996 144.437 176.486 144.32 177.03 144.32C177.564 144.32 178.038 144.437 178.454 144.672C178.881 144.907 179.217 145.237 179.462 145.664C179.718 146.091 179.846 146.597 179.846 147.184V152H178.71ZM183.894 152V147.392C183.894 146.773 183.708 146.283 183.334 145.92C182.961 145.547 182.486 145.36 181.91 145.36C181.537 145.36 181.19 145.445 180.87 145.616C180.561 145.776 180.31 146.005 180.118 146.304C179.937 146.603 179.846 146.96 179.846 147.376L179.174 147.168C179.206 146.592 179.356 146.091 179.622 145.664C179.9 145.237 180.257 144.907 180.694 144.672C181.142 144.437 181.633 144.32 182.166 144.32C182.7 144.32 183.18 144.437 183.606 144.672C184.044 144.907 184.385 145.237 184.63 145.664C184.886 146.091 185.014 146.597 185.014 147.184V152H183.894ZM190.384 152.16C189.67 152.16 189.03 151.989 188.464 151.648C187.899 151.296 187.451 150.827 187.12 150.24C186.8 149.653 186.64 148.992 186.64 148.256C186.64 147.509 186.8 146.843 187.12 146.256C187.451 145.659 187.899 145.189 188.464 144.848C189.03 144.496 189.664 144.32 190.368 144.32C190.944 144.32 191.456 144.437 191.904 144.672C192.363 144.896 192.731 145.216 193.008 145.632C193.296 146.037 193.472 146.512 193.536 147.056V149.408C193.472 149.952 193.296 150.432 193.008 150.848C192.731 151.264 192.363 151.589 191.904 151.824C191.456 152.048 190.95 152.16 190.384 152.16ZM190.56 151.088C191.339 151.088 191.963 150.827 192.432 150.304C192.912 149.781 193.152 149.093 193.152 148.24C193.152 147.675 193.04 147.179 192.816 146.752C192.603 146.315 192.299 145.979 191.904 145.744C191.52 145.499 191.067 145.376 190.544 145.376C190.011 145.376 189.536 145.499 189.12 145.744C188.715 145.989 188.39 146.331 188.144 146.768C187.91 147.195 187.792 147.685 187.792 148.24C187.792 148.795 187.91 149.285 188.144 149.712C188.39 150.139 188.72 150.475 189.136 150.72C189.552 150.965 190.027 151.088 190.56 151.088ZM193.088 152V149.984L193.312 148.128L193.088 146.32V144.48H194.208V152H193.088ZM197.648 152V141.312H198.784V152H197.648ZM195.744 145.488V144.48H205.088V145.488H195.744ZM202.064 152V141.312H203.2V152H202.064ZM209.827 152.16C209.069 152.16 208.392 151.989 207.795 151.648C207.197 151.307 206.723 150.837 206.371 150.24C206.029 149.643 205.859 148.971 205.859 148.224C205.859 147.488 206.029 146.827 206.371 146.24C206.712 145.643 207.176 145.173 207.763 144.832C208.349 144.491 209.005 144.32 209.731 144.32C210.413 144.32 211.016 144.475 211.539 144.784C212.072 145.093 212.488 145.525 212.787 146.08C213.096 146.624 213.251 147.253 213.251 147.968C213.251 148.053 213.245 148.155 213.235 148.272C213.224 148.379 213.203 148.507 213.171 148.656H206.659V147.696H212.563L212.163 148.048C212.173 147.493 212.077 147.019 211.875 146.624C211.683 146.219 211.4 145.909 211.027 145.696C210.664 145.472 210.221 145.36 209.699 145.36C209.155 145.36 208.68 145.477 208.275 145.712C207.869 145.947 207.549 146.277 207.315 146.704C207.091 147.12 206.979 147.616 206.979 148.192C206.979 148.768 207.096 149.275 207.331 149.712C207.576 150.149 207.912 150.491 208.339 150.736C208.776 150.981 209.277 151.104 209.843 151.104C210.301 151.104 210.723 151.024 211.107 150.864C211.491 150.693 211.816 150.443 212.083 150.112L212.803 150.848C212.451 151.264 212.013 151.589 211.491 151.824C210.979 152.048 210.424 152.16 209.827 152.16ZM214.964 152V144.48H216.084V152H214.964ZM216.084 147.616L215.62 147.408C215.62 146.459 215.849 145.707 216.308 145.152C216.777 144.597 217.417 144.32 218.228 144.32C218.601 144.32 218.943 144.389 219.252 144.528C219.561 144.656 219.849 144.864 220.116 145.152L219.38 145.936C219.199 145.733 218.996 145.589 218.772 145.504C218.559 145.419 218.313 145.376 218.036 145.376C217.46 145.376 216.991 145.568 216.628 145.952C216.265 146.325 216.084 146.88 216.084 147.616ZM223.44 152.16C223.035 152.16 222.645 152.107 222.272 152C221.899 151.883 221.557 151.723 221.248 151.52C220.949 151.317 220.688 151.077 220.464 150.8L221.184 150.064C221.483 150.427 221.819 150.699 222.192 150.88C222.576 151.051 223.003 151.136 223.472 151.136C223.973 151.136 224.363 151.04 224.64 150.848C224.928 150.656 225.072 150.389 225.072 150.048C225.072 149.728 224.971 149.477 224.768 149.296C224.565 149.115 224.304 148.971 223.984 148.864C223.675 148.757 223.344 148.656 222.992 148.56C222.64 148.453 222.304 148.325 221.984 148.176C221.664 148.016 221.403 147.797 221.2 147.52C221.008 147.243 220.912 146.88 220.912 146.432C220.912 146.005 221.013 145.637 221.216 145.328C221.429 145.008 221.728 144.763 222.112 144.592C222.507 144.411 222.971 144.32 223.504 144.32C224.069 144.32 224.581 144.421 225.04 144.624C225.499 144.827 225.867 145.125 226.144 145.52L225.424 146.24C225.2 145.952 224.917 145.733 224.576 145.584C224.245 145.424 223.872 145.344 223.456 145.344C222.976 145.344 222.608 145.44 222.352 145.632C222.107 145.813 221.984 146.053 221.984 146.352C221.984 146.64 222.085 146.869 222.288 147.04C222.491 147.2 222.747 147.333 223.056 147.44C223.376 147.536 223.712 147.637 224.064 147.744C224.416 147.84 224.752 147.973 225.072 148.144C225.392 148.304 225.648 148.528 225.84 148.816C226.043 149.093 226.144 149.472 226.144 149.952C226.144 150.624 225.899 151.163 225.408 151.568C224.928 151.963 224.272 152.16 223.44 152.16ZM41.136 172V164.48H42.256V172H41.136ZM46.304 172V167.392C46.304 166.773 46.1173 166.283 45.744 165.92C45.3707 165.547 44.9013 165.36 44.336 165.36C43.952 165.36 43.6 165.445 43.28 165.616C42.9707 165.776 42.72 166.005 42.528 166.304C42.3467 166.603 42.256 166.96 42.256 167.376L41.744 167.168C41.744 166.592 41.872 166.091 42.128 165.664C42.384 165.237 42.7253 164.907 43.152 164.672C43.5893 164.437 44.08 164.32 44.624 164.32C45.1573 164.32 45.632 164.437 46.048 164.672C46.4747 164.907 46.8107 165.237 47.056 165.664C47.312 166.091 47.44 166.597 47.44 167.184V172H46.304ZM51.488 172V167.392C51.488 166.773 51.3013 166.283 50.928 165.92C50.5547 165.547 50.08 165.36 49.504 165.36C49.1307 165.36 48.784 165.445 48.464 165.616C48.1547 165.776 47.904 166.005 47.712 166.304C47.5307 166.603 47.44 166.96 47.44 167.376L46.768 167.168C46.8 166.592 46.9493 166.091 47.216 165.664C47.4933 165.237 47.8507 164.907 48.288 164.672C48.736 164.437 49.2267 164.32 49.76 164.32C50.2933 164.32 50.7733 164.437 51.2 164.672C51.6373 164.907 51.9787 165.237 52.224 165.664C52.48 166.091 52.608 166.597 52.608 167.184V172H51.488ZM58.1221 172.16C57.3968 172.16 56.7355 171.984 56.1381 171.632C55.5515 171.28 55.0821 170.805 54.7301 170.208C54.3888 169.611 54.2181 168.944 54.2181 168.208C54.2181 167.483 54.3888 166.827 54.7301 166.24C55.0821 165.653 55.5515 165.189 56.1381 164.848C56.7355 164.496 57.3968 164.32 58.1221 164.32C58.8581 164.32 59.5195 164.491 60.1061 164.832C60.6928 165.173 61.1568 165.643 61.4981 166.24C61.8501 166.827 62.0261 167.483 62.0261 168.208C62.0261 168.955 61.8501 169.627 61.4981 170.224C61.1568 170.811 60.6928 171.28 60.1061 171.632C59.5195 171.984 58.8581 172.16 58.1221 172.16ZM58.1221 171.072C58.6555 171.072 59.1248 170.949 59.5301 170.704C59.9461 170.459 60.2715 170.117 60.5061 169.68C60.7515 169.243 60.8741 168.752 60.8741 168.208C60.8741 167.664 60.7515 167.184 60.5061 166.768C60.2715 166.341 59.9461 166.005 59.5301 165.76C59.1248 165.515 58.6555 165.392 58.1221 165.392C57.5995 165.392 57.1301 165.515 56.7141 165.76C56.2981 166.005 55.9728 166.341 55.7381 166.768C55.5035 167.184 55.3861 167.664 55.3861 168.208C55.3861 168.763 55.5035 169.259 55.7381 169.696C55.9728 170.123 56.2981 170.459 56.7141 170.704C57.1301 170.949 57.5995 171.072 58.1221 171.072ZM66.1119 172.16C65.7065 172.16 65.3172 172.107 64.9439 172C64.5705 171.883 64.2292 171.723 63.9199 171.52C63.6212 171.317 63.3599 171.077 63.1359 170.8L63.8559 170.064C64.1545 170.427 64.4905 170.699 64.8639 170.88C65.2479 171.051 65.6745 171.136 66.1439 171.136C66.6452 171.136 67.0345 171.04 67.3119 170.848C67.5999 170.656 67.7439 170.389 67.7439 170.048C67.7439 169.728 67.6425 169.477 67.4399 169.296C67.2372 169.115 66.9759 168.971 66.6559 168.864C66.3465 168.757 66.0159 168.656 65.6639 168.56C65.3119 168.453 64.9759 168.325 64.6559 168.176C64.3359 168.016 64.0745 167.797 63.8719 167.52C63.6799 167.243 63.5839 166.88 63.5839 166.432C63.5839 166.005 63.6852 165.637 63.8879 165.328C64.1012 165.008 64.3999 164.763 64.7839 164.592C65.1785 164.411 65.6425 164.32 66.1759 164.32C66.7412 164.32 67.2532 164.421 67.7119 164.624C68.1705 164.827 68.5385 165.125 68.8159 165.52L68.0959 166.24C67.8719 165.952 67.5892 165.733 67.2479 165.584C66.9172 165.424 66.5439 165.344 66.1279 165.344C65.6479 165.344 65.2799 165.44 65.0239 165.632C64.7785 165.813 64.6559 166.053 64.6559 166.352C64.6559 166.64 64.7572 166.869 64.9599 167.04C65.1625 167.2 65.4185 167.333 65.7279 167.44C66.0479 167.536 66.3839 167.637 66.7359 167.744C67.0879 167.84 67.4239 167.973 67.7439 168.144C68.0639 168.304 68.3199 168.528 68.5119 168.816C68.7145 169.093 68.8159 169.472 68.8159 169.952C68.8159 170.624 68.5705 171.163 68.0799 171.568C67.5999 171.963 66.9439 172.16 66.1119 172.16ZM71.7571 172V161.312H72.8771V172H71.7571ZM69.8531 165.488V164.48H74.7651V165.488H69.8531ZM76.945 172.16C76.6783 172.16 76.4597 172.069 76.289 171.888C76.1183 171.707 76.033 171.488 76.033 171.232C76.033 170.976 76.1183 170.763 76.289 170.592C76.4597 170.411 76.6783 170.32 76.945 170.32C77.201 170.32 77.4143 170.411 77.585 170.592C77.7557 170.763 77.841 170.976 77.841 171.232C77.841 171.488 77.7557 171.707 77.585 171.888C77.4143 172.069 77.201 172.16 76.945 172.16Z" fill="#060606"/>
<g clip-path="url(#clip0_1151_2817)">
<path d="M120.26 283.37C117.124 280.39 114.635 276.795 112.95 272.81" stroke="#F7B501" stroke-linecap="round" stroke-linejoin="round"/>
<path d="M149.06 229.93C154.049 231.096 158.679 233.46 162.549 236.817C166.419 240.175 169.412 244.425 171.27 249.2" stroke="#F7B501" stroke-linecap="round" stroke-linejoin="round"/>
<path d="M151.71 252.59V243.59L145 243.01C144.61 241.615 144.053 240.272 143.34 239.01L147.68 233.86L141.34 227.52L136.15 231.87C134.885 231.165 133.543 230.608 132.15 230.21L131.57 223.5H122.57L121.99 230.21C120.597 230.607 119.255 231.164 117.99 231.87L112.84 227.54L106.51 233.88L110.84 239.03C110.132 240.294 109.575 241.636 109.18 243.03L102.47 243.61V252.61L109.18 253.19C109.579 254.583 110.136 255.925 110.84 257.19L106.51 262.34L112.84 268.68L117.99 264.34C119.253 265.05 120.596 265.607 121.99 266L122.57 272.72H131.57L132.15 266C133.546 265.596 134.888 265.029 136.15 264.31L141.3 268.65L147.64 262.31L143.3 257.16C144.009 255.897 144.566 254.554 144.96 253.16L151.71 252.59ZM127.15 258.52C125.779 258.525 124.421 258.26 123.153 257.739C121.884 257.219 120.732 256.453 119.76 255.486C118.788 254.519 118.017 253.369 117.49 252.104C116.963 250.838 116.692 249.481 116.69 248.11C116.692 246.739 116.963 245.382 117.49 244.116C118.017 242.851 118.788 241.701 119.76 240.734C120.732 239.767 121.884 239.001 123.153 238.481C124.421 237.96 125.779 237.695 127.15 237.7C129.904 237.711 132.542 238.812 134.485 240.763C136.429 242.714 137.52 245.356 137.52 248.11C137.52 250.864 136.429 253.506 134.485 255.457C132.542 257.408 129.904 258.509 127.15 258.52Z" fill="#35938D" stroke="#263238" stroke-linecap="round" stroke-linejoin="round"/>
<path d="M181.36 272.59V266.22L176.59 265.81C176.307 264.811 175.911 263.849 175.41 262.94L178.49 259.28L173.98 254.77L170.32 257.85C169.411 257.349 168.449 256.953 167.45 256.67L167.04 251.89H160.67L160.25 256.67C159.256 256.955 158.296 257.35 157.39 257.85L153.73 254.77L149.22 259.31L152.3 262.97C151.807 263.868 151.421 264.822 151.15 265.81L146.37 266.22V272.59L151.15 273.01C151.431 274.006 151.827 274.966 152.33 275.87L149.25 279.53L153.76 284.04L157.42 280.96C158.326 281.459 159.286 281.855 160.28 282.14L160.7 286.92H167.07L167.48 282.14C168.479 281.857 169.441 281.461 170.35 280.96L174.01 284.04L178.52 279.53L175.44 275.87C175.94 274.964 176.335 274.004 176.62 273.01L181.36 272.59ZM163.85 276.82C161.885 276.82 160 276.039 158.61 274.65C157.221 273.26 156.44 271.375 156.44 269.41C156.44 267.445 157.221 265.56 158.61 264.17C160 262.781 161.885 262 163.85 262C164.824 261.999 165.788 262.189 166.687 262.561C167.587 262.933 168.404 263.479 169.093 264.167C169.781 264.856 170.327 265.673 170.699 266.573C171.071 267.472 171.261 268.436 171.26 269.41C171.26 271.375 170.479 273.26 169.09 274.65C167.7 276.039 165.815 276.82 163.85 276.82Z" fill="#35938D"/>
<mask id="mask0_1151_2817" style="mask-type:luminance" maskUnits="userSpaceOnUse" x="146" y="251" width="36" height="36">
<path d="M181.36 272.59V266.22L176.59 265.81C176.307 264.811 175.911 263.849 175.41 262.94L178.49 259.28L173.98 254.77L170.32 257.85C169.411 257.349 168.449 256.953 167.45 256.67L167.04 251.89H160.67L160.25 256.67C159.256 256.955 158.296 257.35 157.39 257.85L153.73 254.77L149.22 259.31L152.3 262.97C151.807 263.868 151.421 264.822 151.15 265.81L146.37 266.22V272.59L151.15 273.01C151.431 274.006 151.827 274.966 152.33 275.87L149.25 279.53L153.76 284.04L157.42 280.96C158.326 281.459 159.286 281.855 160.28 282.14L160.7 286.92H167.07L167.48 282.14C168.479 281.857 169.441 281.461 170.35 280.96L174.01 284.04L178.52 279.53L175.44 275.87C175.94 274.964 176.335 274.004 176.62 273.01L181.36 272.59ZM163.85 276.82C161.885 276.82 160 276.039 158.61 274.65C157.221 273.26 156.44 271.375 156.44 269.41C156.44 267.445 157.221 265.56 158.61 264.17C160 262.781 161.885 262 163.85 262C164.824 261.999 165.788 262.189 166.687 262.561C167.587 262.933 168.404 263.479 169.093 264.167C169.781 264.856 170.327 265.673 170.699 266.573C171.071 267.472 171.261 268.436 171.26 269.41C171.26 271.375 170.479 273.26 169.09 274.65C167.7 276.039 165.815 276.82 163.85 276.82Z" fill="white"/>
</mask>
<g mask="url(#mask0_1151_2817)">
<path opacity="0.3" d="M181.36 272.59V266.22L176.59 265.81C176.307 264.811 175.911 263.849 175.41 262.94L178.49 259.28L173.98 254.77L170.32 257.85C169.411 257.349 168.449 256.953 167.45 256.67L167.04 251.89H160.67L160.25 256.67C159.256 256.955 158.296 257.35 157.39 257.85L153.73 254.77L149.22 259.31L152.3 262.97C151.807 263.868 151.421 264.822 151.15 265.81L146.37 266.22V272.59L151.15 273.01C151.431 274.006 151.827 274.966 152.33 275.87L149.25 279.53L153.76 284.04L157.42 280.96C158.326 281.459 159.286 281.855 160.28 282.14L160.7 286.92H167.07L167.48 282.14C168.479 281.857 169.441 281.461 170.35 280.96L174.01 284.04L178.52 279.53L175.44 275.87C175.94 274.964 176.335 274.004 176.62 273.01L181.36 272.59ZM163.85 276.82C161.885 276.82 160 276.039 158.61 274.65C157.221 273.26 156.44 271.375 156.44 269.41C156.44 267.445 157.221 265.56 158.61 264.17C160 262.781 161.885 262 163.85 262C164.824 261.999 165.788 262.189 166.687 262.561C167.587 262.933 168.404 263.479 169.093 264.167C169.781 264.856 170.327 265.673 170.699 266.573C171.071 267.472 171.261 268.436 171.26 269.41C171.26 271.375 170.479 273.26 169.09 274.65C167.7 276.039 165.815 276.82 163.85 276.82Z" fill="white"/>
</g>
<path d="M181.36 272.59V266.22L176.59 265.81C176.307 264.811 175.911 263.849 175.41 262.94L178.49 259.28L173.98 254.77L170.32 257.85C169.411 257.349 168.449 256.953 167.45 256.67L167.04 251.89H160.67L160.25 256.67C159.256 256.955 158.296 257.35 157.39 257.85L153.73 254.77L149.22 259.31L152.3 262.97C151.807 263.868 151.421 264.822 151.15 265.81L146.37 266.22V272.59L151.15 273.01C151.431 274.006 151.827 274.966 152.33 275.87L149.25 279.53L153.76 284.04L157.42 280.96C158.326 281.459 159.286 281.855 160.28 282.14L160.7 286.92H167.07L167.48 282.14C168.479 281.857 169.441 281.461 170.35 280.96L174.01 284.04L178.52 279.53L175.44 275.87C175.94 274.964 176.335 274.004 176.62 273.01L181.36 272.59ZM163.85 276.82C161.885 276.82 160 276.039 158.61 274.65C157.221 273.26 156.44 271.375 156.44 269.41C156.44 267.445 157.221 265.56 158.61 264.17C160 262.781 161.885 262 163.85 262C164.824 261.999 165.788 262.189 166.687 262.561C167.587 262.933 168.404 263.479 169.093 264.167C169.781 264.856 170.327 265.673 170.699 266.573C171.071 267.472 171.261 268.436 171.26 269.41C171.26 271.375 170.479 273.26 169.09 274.65C167.7 276.039 165.815 276.82 163.85 276.82Z" stroke="#263238" stroke-linecap="round" stroke-linejoin="round"/>
<path d="M150.15 287.45V282.91L146.75 282.62C146.551 281.922 146.269 281.251 145.91 280.62L148.11 278.01L144.9 274.8L142.29 277C141.659 276.642 140.988 276.36 140.29 276.16L140 272.76H135.46L135.17 276.16C134.472 276.36 133.801 276.642 133.17 277L130.56 274.8L127.36 278.01L129.55 280.62C129.192 281.251 128.91 281.922 128.71 282.62L125.31 282.91V287.45L128.71 287.74C128.91 288.438 129.192 289.109 129.55 289.74L127.36 292.34L130.56 295.55L133.15 293.4C133.781 293.758 134.452 294.04 135.15 294.24L135.44 297.64H139.98L140.27 294.24C140.968 294.04 141.639 293.758 142.27 293.4L144.88 295.59L148.15 292.38L145.95 289.78C146.309 289.149 146.591 288.478 146.79 287.78L150.15 287.45ZM137.69 290.45C136.292 290.45 134.952 289.895 133.964 288.906C132.975 287.918 132.42 286.578 132.42 285.18C132.42 283.781 132.975 282.44 133.963 281.45C134.951 280.46 136.291 279.903 137.69 279.9C139.089 279.903 140.429 280.46 141.417 281.45C142.405 282.44 142.96 283.781 142.96 285.18C142.96 286.574 142.408 287.912 141.424 288.899C140.44 289.887 139.104 290.445 137.71 290.45H137.69Z" fill="#35938D"/>
<mask id="mask1_1151_2817" style="mask-type:luminance" maskUnits="userSpaceOnUse" x="125" y="272" width="26" height="26">
<path d="M150.15 287.45V282.91L146.75 282.62C146.551 281.922 146.269 281.251 145.91 280.62L148.11 278.01L144.9 274.8L142.29 277C141.659 276.642 140.988 276.36 140.29 276.16L140 272.76H135.46L135.17 276.16C134.472 276.36 133.801 276.642 133.17 277L130.56 274.8L127.36 278.01L129.55 280.62C129.192 281.251 128.91 281.922 128.71 282.62L125.31 282.91V287.45L128.71 287.74C128.91 288.438 129.192 289.109 129.55 289.74L127.36 292.34L130.56 295.55L133.15 293.4C133.781 293.758 134.452 294.04 135.15 294.24L135.44 297.64H139.98L140.27 294.24C140.968 294.04 141.639 293.758 142.27 293.4L144.88 295.59L148.15 292.38L145.95 289.78C146.309 289.149 146.591 288.478 146.79 287.78L150.15 287.45ZM137.69 290.45C136.292 290.45 134.952 289.895 133.964 288.906C132.975 287.918 132.42 286.578 132.42 285.18C132.42 283.781 132.975 282.44 133.963 281.45C134.951 280.46 136.291 279.903 137.69 279.9C139.089 279.903 140.429 280.46 141.417 281.45C142.405 282.44 142.96 283.781 142.96 285.18C142.96 286.574 142.408 287.912 141.424 288.899C140.44 289.887 139.104 290.445 137.71 290.45H137.69Z" fill="white"/>
</mask>
<g mask="url(#mask1_1151_2817)">
<path opacity="0.5" d="M150.15 287.45V282.91L146.75 282.62C146.551 281.922 146.269 281.251 145.91 280.62L148.11 278.01L144.9 274.8L142.29 277C141.659 276.642 140.988 276.36 140.29 276.16L140 272.76H135.46L135.17 276.16C134.472 276.36 133.801 276.642 133.17 277L130.56 274.8L127.36 278.01L129.55 280.62C129.192 281.251 128.91 281.922 128.71 282.62L125.31 282.91V287.45L128.71 287.74C128.91 288.438 129.192 289.109 129.55 289.74L127.36 292.34L130.56 295.55L133.15 293.4C133.781 293.758 134.452 294.04 135.15 294.24L135.44 297.64H139.98L140.27 294.24C140.968 294.04 141.639 293.758 142.27 293.4L144.88 295.59L148.15 292.38L145.95 289.78C146.309 289.149 146.591 288.478 146.79 287.78L150.15 287.45ZM137.69 290.45C136.292 290.45 134.952 289.895 133.964 288.906C132.975 287.918 132.42 286.578 132.42 285.18C132.42 283.781 132.975 282.44 133.963 281.45C134.951 280.46 136.291 279.903 137.69 279.9C139.089 279.903 140.429 280.46 141.417 281.45C142.405 282.44 142.96 283.781 142.96 285.18C142.96 286.574 142.408 287.912 141.424 288.899C140.44 289.887 139.104 290.445 137.71 290.45H137.69Z" fill="white"/>
</g>
<path d="M150.15 287.45V282.91L146.75 282.62C146.551 281.922 146.269 281.251 145.91 280.62L148.11 278.01L144.9 274.8L142.29 277C141.659 276.642 140.988 276.36 140.29 276.16L140 272.76H135.46L135.17 276.16C134.472 276.36 133.801 276.642 133.17 277L130.56 274.8L127.36 278.01L129.55 280.62C129.192 281.251 128.91 281.922 128.71 282.62L125.31 282.91V287.45L128.71 287.74C128.91 288.438 129.192 289.109 129.55 289.74L127.36 292.34L130.56 295.55L133.15 293.4C133.781 293.758 134.452 294.04 135.15 294.24L135.44 297.64H139.98L140.27 294.24C140.968 294.04 141.639 293.758 142.27 293.4L144.88 295.59L148.15 292.38L145.95 289.78C146.309 289.149 146.591 288.478 146.79 287.78L150.15 287.45ZM137.69 290.45C136.292 290.45 134.952 289.895 133.964 288.906C132.975 287.918 132.42 286.578 132.42 285.18C132.42 283.781 132.975 282.44 133.963 281.45C134.951 280.46 136.291 279.903 137.69 279.9C139.089 279.903 140.429 280.46 141.417 281.45C142.405 282.44 142.96 283.781 142.96 285.18C142.96 286.574 142.408 287.912 141.424 288.899C140.44 289.887 139.104 290.445 137.71 290.45H137.69Z" stroke="#263238" stroke-linecap="round" stroke-linejoin="round"/>
<path d="M168.86 248.11L171.27 249.2L172.22 247.02" stroke="#F7B501" stroke-linecap="round" stroke-linejoin="round"/>
<path d="M115.31 273.8L112.89 272.72L111.94 274.9" stroke="#F7B501" stroke-linecap="round" stroke-linejoin="round"/>
</g>
<defs>
<clipPath id="clip0_1151_2817">
<rect width="79.87" height="75.14" fill="white" transform="translate(102 223)"/>
</clipPath>
</defs>
</svg>
