<svg width="776" height="599" viewBox="0 0 776 599" fill="none" xmlns="http://www.w3.org/2000/svg">
<g clip-path="url(#clip0_1142_2954)">
<path d="M28.6704 212.751C88.069 192.145 150.417 181.309 213.285 180.664" stroke="#B3261E" stroke-width="4" stroke-miterlimit="10" stroke-linecap="round"/>
<path d="M386.843 203.326C340.396 194.761 270.033 203.326 201.523 226.907C185.549 232.409 152.874 253.669 156.033 267.899C161.655 293.186 239.345 291.399 271.16 286.438C322.331 278.444 396.914 260.906 414.92 237.993C418.324 233.655 423.078 222.213 418.287 208.383C412.354 191.424 381.637 181.947 340.789 188.732" stroke="#B3261E" stroke-width="4" stroke-miterlimit="10" stroke-linecap="round"/>
<path d="M453.795 74.4831C466.143 77.1526 484.853 82.4992 502.57 94.0894C524.93 108.735 522.193 117.871 537.596 124.307C567.416 136.81 592.942 108.735 637.268 116.15C661.978 120.273 694.023 135.668 695.588 157.817C696.648 172.826 683.507 187.931 662.772 197.987" stroke="#B3261E" stroke-width="4" stroke-miterlimit="10" stroke-linecap="round"/>
<path d="M675.031 176.467C675.195 176.571 675.338 176.707 675.45 176.866C675.562 177.026 675.642 177.205 675.684 177.395C675.727 177.585 675.732 177.782 675.699 177.974C675.666 178.166 675.595 178.349 675.49 178.514L663.35 197.72L685.858 200.612C686.251 200.662 686.609 200.866 686.851 201.18C687.094 201.494 687.202 201.891 687.152 202.284C687.102 202.677 686.898 203.035 686.584 203.277C686.27 203.52 685.873 203.628 685.48 203.578L660.658 200.389C660.411 200.357 660.175 200.263 659.973 200.116C659.771 199.969 659.61 199.773 659.504 199.546C659.398 199.32 659.352 199.071 659.368 198.821C659.384 198.572 659.463 198.331 659.598 198.12L672.947 176.986C673.093 176.744 673.311 176.553 673.57 176.438C673.795 176.316 674.048 176.255 674.304 176.26C674.56 176.265 674.81 176.337 675.031 176.467Z" fill="#B3261E"/>
<path d="M610.556 281.595C641.547 287.735 658.589 303.323 661.526 319.562C664.952 338.538 657.729 357.381 635.303 349.817C627.568 347.207 624.513 332.932 630.853 322.187C645.826 296.738 688.891 306.615 701.543 333.095C709.1 348.89 702.159 366.242 698.577 373.435" stroke="#B3261E" stroke-width="4" stroke-miterlimit="10" stroke-linecap="round"/>
<path d="M695.417 348.838C695.612 348.823 695.807 348.846 695.992 348.907C696.178 348.967 696.349 349.063 696.497 349.19C696.645 349.317 696.767 349.472 696.855 349.645C696.943 349.819 696.997 350.009 697.012 350.203L698.829 372.82L718.548 361.6C718.89 361.404 719.296 361.351 719.678 361.454C720.059 361.557 720.383 361.807 720.58 362.149C720.777 362.491 720.829 362.898 720.726 363.279C720.623 363.66 720.373 363.984 720.031 364.181L698.272 376.542C698.054 376.662 697.809 376.724 697.56 376.724C697.312 376.724 697.067 376.662 696.848 376.542C696.627 376.426 696.44 376.255 696.302 376.046C696.165 375.838 696.082 375.598 696.062 375.348L694.075 350.477C694.053 350.195 694.112 349.911 694.245 349.661C694.355 349.437 694.521 349.243 694.725 349.099C694.93 348.955 695.168 348.866 695.417 348.838Z" fill="#B3261E"/>
<path d="M318.378 358.093C311.978 378.233 290.746 388.896 272.799 383.239C245.62 374.659 229.134 341.423 251.293 332.947C275.566 323.685 278.287 355.193 275.914 374.859C272.948 399.523 232.716 428.866 169.042 423.571" stroke="#B3261E" stroke-width="4" stroke-miterlimit="10" stroke-linecap="round"/>
<path d="M445.519 457.155C427.179 440.723 315.894 402.155 295.033 472.335C285.117 505.704 346.003 539.073 439.193 517.85" stroke="#B3261E" stroke-width="4" stroke-miterlimit="10" stroke-linecap="round"/>
<path d="M41.0257 190.356L36.3906 165.322L40.5065 164.58L45.1712 189.563L41.0257 190.356ZM43.8512 189.837L43.1911 186.256L50.3773 184.928C50.9286 184.859 51.4578 184.669 51.9271 184.372C52.3963 184.075 52.794 183.677 53.0915 183.208C53.6321 182.339 53.8229 181.298 53.6255 180.294C53.5065 179.62 53.2239 178.986 52.8023 178.447C52.3796 177.912 51.8177 177.504 51.1782 177.268C50.4626 177.022 49.6933 176.976 48.9534 177.135L41.7598 178.462L41.0998 174.888L47.6778 173.664C48.6178 173.543 49.4806 173.081 50.1029 172.367C50.6036 171.596 50.7896 170.663 50.6227 169.759C50.4558 168.855 49.9485 168.05 49.2055 167.509C48.3686 167.065 47.3982 166.941 46.4764 167.161L39.8984 168.377L39.231 164.803L45.9054 163.564C47.3577 163.24 48.8686 163.291 50.2957 163.713C51.4071 164.05 52.4027 164.69 53.1714 165.561C53.9401 166.432 54.4517 167.499 54.6489 168.644C54.9102 169.895 54.7539 171.198 54.204 172.352C53.5735 173.586 52.6233 174.628 51.4526 175.37L51.5342 174.028C53.0875 174.311 54.5339 175.014 55.7168 176.059C56.8131 177.083 57.5383 178.442 57.7785 179.923C58.0196 181.163 57.917 182.445 57.4819 183.631C57.0189 184.862 56.2198 185.938 55.1755 186.738C53.8978 187.692 52.4056 188.318 50.8297 188.562L43.8512 189.837Z" fill="#1B4A47"/>
<path d="M70.6677 185.24C69.0778 185.557 67.4316 185.434 65.9066 184.884C64.4205 184.353 63.0988 183.443 62.0725 182.244C61.0104 181.019 60.3049 179.526 60.0331 177.928C59.7134 176.348 59.8392 174.71 60.3965 173.197C60.939 171.727 61.8477 170.421 63.0366 169.4C64.267 168.342 65.7612 167.638 67.3601 167.361C68.9607 167.043 70.6171 167.158 72.1583 167.695C73.6398 168.212 74.9594 169.11 75.985 170.298C77.0244 171.534 77.7253 173.019 78.0191 174.607C78.3128 176.196 78.1895 177.833 77.661 179.359C77.1241 180.873 76.1929 182.216 74.9636 183.25C73.7342 184.283 72.2512 184.97 70.6677 185.24ZM69.9706 181.45C70.8823 181.301 71.7361 180.907 72.4401 180.308C73.1046 179.734 73.5931 178.983 73.8492 178.143C74.1234 177.236 74.1667 176.275 73.9752 175.347C73.8231 174.422 73.4349 173.551 72.848 172.819C72.2946 172.148 71.5728 171.636 70.7567 171.336C69.8907 171.048 68.9659 170.984 68.0686 171.15C67.1713 171.316 66.3305 171.706 65.6248 172.285C64.9654 172.853 64.4753 173.592 64.2083 174.421C63.931 175.314 63.885 176.263 64.0748 177.179C64.2303 178.114 64.615 178.995 65.1946 179.745C65.7346 180.438 66.4595 180.965 67.286 181.265C68.1474 181.57 69.0755 181.634 69.9706 181.45Z" fill="#1B4A47"/>
<path d="M90.8022 181.517C89.2124 181.834 87.5661 181.711 86.0411 181.161C84.5564 180.627 83.2354 179.718 82.207 178.521C81.1449 177.296 80.4395 175.804 80.1676 174.205C79.8475 172.625 79.9733 170.987 80.531 169.474C81.0714 168.004 81.9805 166.696 83.1711 165.678C84.3993 164.616 85.8945 163.911 87.4947 163.638C89.0662 163.325 90.6928 163.434 92.2082 163.955C93.7236 164.477 95.0734 165.391 96.1195 166.605C97.1788 167.825 97.8818 169.313 98.1515 170.906C98.4687 172.495 98.3456 174.141 97.7955 175.666C97.2643 177.15 96.3572 178.471 95.1629 179.5C93.9185 180.554 92.4114 181.251 90.8022 181.517ZM90.1051 177.728C91.0152 177.573 91.8677 177.179 92.5747 176.586C93.2376 176.01 93.7258 175.26 93.9837 174.421C94.2601 173.514 94.306 172.553 94.1172 171.625C93.9672 170.697 93.5759 169.825 92.9825 169.096C92.4291 168.425 91.7074 167.914 90.8912 167.613C90.0276 167.307 89.0966 167.243 88.1992 167.428C87.2989 167.58 86.4562 167.972 85.7593 168.562C85.1002 169.128 84.6101 169.864 84.3429 170.691C84.0655 171.586 84.0196 172.538 84.2094 173.457C84.3648 174.391 84.7496 175.273 85.3292 176.022C85.8735 176.703 86.5982 177.217 87.4205 177.505C88.2811 177.813 89.2094 177.879 90.1051 177.698V177.728Z" fill="#1B4A47"/>
<path d="M103.016 178.892L98.2554 153.138L102.186 152.397L106.954 178.143L103.016 178.892ZM113.925 176.875L105.026 169.46L110.692 159.723L115.379 158.856L108.831 169.83L108.586 167.547L118.909 175.956L113.925 176.875Z" fill="#1B4A47"/>
<path d="M118.879 154.948C118.571 155.011 118.253 155.01 117.946 154.945C117.638 154.88 117.348 154.752 117.092 154.57C116.582 154.192 116.235 153.636 116.119 153.013C116.004 152.389 116.129 151.745 116.469 151.21C116.835 150.691 117.391 150.336 118.016 150.221C118.641 150.106 119.286 150.24 119.813 150.595C120.067 150.779 120.282 151.011 120.447 151.278C120.611 151.546 120.721 151.842 120.77 152.152C120.897 152.773 120.778 153.42 120.436 153.954C120.261 154.219 120.031 154.445 119.763 154.616C119.495 154.787 119.194 154.9 118.879 154.948ZM120.674 175.622L117.492 158.455L121.43 157.714L124.604 174.88L120.674 175.622Z" fill="#1B4A47"/>
<path d="M128.973 174.079L125.828 156.935L129.759 156.194L132.94 173.36L128.973 174.079ZM140.742 171.899L138.91 162C138.833 161.475 138.649 160.972 138.371 160.521C138.094 160.07 137.727 159.68 137.293 159.375C136.86 159.073 136.368 158.865 135.85 158.763C135.332 158.661 134.798 158.667 134.282 158.781C133.569 158.901 132.899 159.205 132.339 159.664C131.811 160.097 131.415 160.67 131.197 161.318C130.974 162.005 130.933 162.738 131.079 163.446L129.38 162.867C129.131 161.656 129.205 160.4 129.595 159.226C129.967 158.121 130.633 157.139 131.524 156.386C132.462 155.618 133.584 155.107 134.779 154.903C135.994 154.66 137.253 154.781 138.398 155.252C139.499 155.71 140.47 156.433 141.224 157.358C141.977 158.237 142.488 159.298 142.707 160.435L144.695 171.195L140.742 171.899Z" fill="#1B4A47"/>
<path d="M155.618 168.8C154.167 169.089 152.663 168.963 151.28 168.436C149.907 167.902 148.706 167.002 147.809 165.833C146.865 164.606 146.226 163.172 145.944 161.65C145.662 160.128 145.744 158.56 146.185 157.076C146.631 155.691 147.437 154.45 148.521 153.479C149.625 152.493 150.985 151.838 152.444 151.588C153.675 151.335 154.949 151.391 156.152 151.752C157.244 152.084 158.22 152.716 158.97 153.576C159.752 154.494 160.265 155.61 160.453 156.802L161.24 161.021C161.478 162.197 161.389 163.415 160.98 164.543C160.591 165.632 159.908 166.592 159.007 167.317C158.018 168.084 156.853 168.594 155.618 168.8ZM157.25 176.638C155.616 176.974 153.928 176.938 152.311 176.534C150.879 176.153 149.57 175.407 148.514 174.369L150.612 171.313C151.394 172.005 152.322 172.512 153.327 172.797C154.408 173.065 155.537 173.083 156.627 172.848C157.975 172.677 159.21 172.008 160.09 170.972C160.465 170.476 160.726 169.903 160.855 169.294C160.983 168.685 160.975 168.056 160.832 167.45L160.046 163.231V159.315L158.651 155.608L157.798 151.003L161.736 150.261L164.777 166.716C165.092 168.223 164.974 169.789 164.436 171.232C163.889 172.612 162.97 173.814 161.781 174.702C160.445 175.693 158.891 176.352 157.25 176.623V176.638ZM155.715 164.936C156.593 164.794 157.419 164.423 158.11 163.861C158.742 163.337 159.211 162.642 159.46 161.859C159.697 160.99 159.736 160.078 159.571 159.192C159.407 158.306 159.044 157.468 158.51 156.742C157.997 156.1 157.31 155.619 156.53 155.355C155.689 155.076 154.788 155.025 153.92 155.207C153.037 155.352 152.207 155.722 151.51 156.282C150.869 156.81 150.389 157.506 150.123 158.292C149.846 159.155 149.8 160.075 149.989 160.962C150.136 161.85 150.506 162.687 151.065 163.394C151.592 164.041 152.291 164.527 153.082 164.795C153.934 165.063 154.841 165.107 155.715 164.921V164.936Z" fill="#1B4A47"/>
<path d="M174.952 165.945C174.021 166.122 173.07 166.167 172.127 166.078C171.223 166.003 170.335 165.793 169.494 165.455C168.686 165.132 167.935 164.681 167.269 164.121L169.316 161.154C169.997 161.722 170.798 162.125 171.659 162.333C172.556 162.527 173.484 162.527 174.381 162.333C175.077 162.256 175.741 162 176.309 161.592C176.501 161.448 176.647 161.252 176.73 161.027C176.813 160.802 176.829 160.558 176.776 160.324C176.741 160.081 176.642 159.852 176.489 159.659C176.337 159.467 176.137 159.317 175.909 159.226C175.335 158.997 174.73 158.854 174.114 158.804C173.372 158.722 172.631 158.648 171.852 158.574C171.065 158.5 170.289 158.338 169.538 158.092C168.802 157.853 168.135 157.438 167.595 156.883C166.998 156.215 166.613 155.383 166.49 154.495C166.281 153.504 166.366 152.473 166.735 151.529C167.121 150.624 167.763 149.851 168.582 149.305C169.564 148.649 170.677 148.216 171.845 148.037C173.099 147.777 174.395 147.795 175.642 148.088C176.796 148.381 177.854 148.969 178.712 149.794L176.673 152.76C176.101 152.244 175.414 151.873 174.67 151.677C173.926 151.481 173.145 151.466 172.393 151.633C171.759 151.712 171.155 151.949 170.636 152.323C170.458 152.453 170.321 152.63 170.241 152.835C170.161 153.04 170.141 153.264 170.184 153.479C170.222 153.707 170.321 153.92 170.472 154.095C170.622 154.27 170.817 154.401 171.036 154.473C171.613 154.674 172.214 154.798 172.824 154.844C173.565 154.911 174.307 154.985 175.085 155.074C175.877 155.157 176.657 155.333 177.407 155.6C178.149 155.862 178.817 156.296 179.357 156.868C179.957 157.557 180.345 158.404 180.477 159.308C180.645 160.054 180.641 160.829 180.463 161.573C180.286 162.318 179.941 163.011 179.454 163.602C178.283 164.897 176.685 165.729 174.952 165.945Z" fill="#1B4A47"/>
<path d="M211.936 266.186L207.301 241.152L211.417 240.41L216.044 265.437L211.936 266.186ZM213.011 256.22L212.351 252.646L218.61 251.489C219.4 251.357 220.146 251.033 220.783 250.547C221.367 250.097 221.812 249.49 222.066 248.797C222.314 248.046 222.368 247.245 222.224 246.467C222.08 245.69 221.743 244.961 221.243 244.348C220.755 243.791 220.12 243.383 219.411 243.169C218.643 242.941 217.83 242.908 217.045 243.072L210.786 244.229L210.126 240.655L216.601 239.454C218.065 239.158 219.579 239.222 221.013 239.639C222.349 240.028 223.553 240.777 224.491 241.804C225.435 242.926 226.072 244.274 226.338 245.715C226.605 247.157 226.492 248.643 226.011 250.028C225.506 251.325 224.651 252.457 223.542 253.298C222.351 254.201 220.959 254.802 219.485 255.048L213.011 256.22Z" fill="#1B4A47"/>
<path d="M239.397 261.492C237.906 261.787 236.361 261.646 234.948 261.085C233.546 260.531 232.316 259.618 231.381 258.437C230.407 257.161 229.748 255.674 229.457 254.096C229.165 252.517 229.25 250.893 229.705 249.353C230.154 247.913 230.972 246.614 232.078 245.586C233.184 244.553 234.568 243.865 236.06 243.606C237.271 243.36 238.525 243.429 239.701 243.807C240.796 244.166 241.776 244.808 242.542 245.668C243.319 246.564 243.832 247.657 244.025 248.827L244.937 253.758C245.175 254.924 245.085 256.133 244.678 257.251C244.28 258.333 243.592 259.284 242.69 260.002C241.734 260.765 240.602 261.277 239.397 261.492ZM239.353 257.651C240.016 257.556 240.651 257.316 241.212 256.95C241.773 256.584 242.247 256.099 242.601 255.53C243.323 254.331 243.554 252.899 243.246 251.533C243.096 250.585 242.714 249.689 242.134 248.923C241.612 248.232 240.905 247.702 240.094 247.396C239.237 247.085 238.309 247.021 237.417 247.21C236.542 247.346 235.724 247.727 235.056 248.308C234.388 248.889 233.898 249.648 233.643 250.495C233.39 251.419 233.349 252.387 233.524 253.329C233.699 254.27 234.084 255.159 234.651 255.931C235.184 256.618 235.894 257.146 236.705 257.458C237.554 257.762 238.471 257.823 239.353 257.636V257.651ZM244.589 260.158L243.736 255.56L243.639 251.252L242.193 247.225L241.407 242.954L245.345 242.212L248.519 259.379L244.589 260.158Z" fill="#1B4A47"/>
<path d="M258.457 257.785L247.918 241.797L252.249 240.996L259.606 252.801L258.36 253.031L261.327 239.32L265.687 238.512L260.919 257.332L258.457 257.785ZM254.637 265.704L257.93 253.743L260.897 257.332L259.005 264.896L254.637 265.704Z" fill="#1B4A47"/>
<path d="M270.982 255.263L267.801 238.097L271.739 237.355L274.913 254.522L270.982 255.263ZM282.388 253.15L280.497 242.954C280.433 242.453 280.26 241.972 279.989 241.545C279.719 241.118 279.358 240.756 278.932 240.484C278.081 239.984 277.073 239.82 276.107 240.025C275.443 240.139 274.815 240.408 274.275 240.811C273.772 241.19 273.386 241.704 273.163 242.294C272.923 242.946 272.874 243.654 273.022 244.333L271.323 243.762C271.072 242.577 271.152 241.346 271.553 240.203C271.942 239.16 272.602 238.241 273.467 237.541C274.374 236.809 275.454 236.321 276.604 236.124C277.748 235.898 278.93 235.959 280.045 236.302C281.102 236.638 282.048 237.256 282.781 238.089C283.566 239.025 284.079 240.159 284.264 241.367L286.319 252.453L282.388 253.15ZM293.794 251.037L291.903 240.811C291.84 240.31 291.668 239.83 291.397 239.404C291.126 238.978 290.765 238.618 290.338 238.349C289.491 237.844 288.484 237.68 287.52 237.889C286.861 238 286.238 238.267 285.703 238.668C285.195 239.047 284.802 239.561 284.568 240.151C284.33 240.806 284.281 241.516 284.428 242.197L282.054 241.745C281.911 240.517 282.09 239.272 282.574 238.134C283.03 237.079 283.741 236.155 284.643 235.442C285.572 234.708 286.671 234.218 287.839 234.018C289.004 233.787 290.208 233.843 291.347 234.181C292.425 234.51 293.394 235.125 294.15 235.961C294.961 236.88 295.491 238.013 295.678 239.224L297.732 250.31L293.794 251.037Z" fill="#1B4A47"/>
<path d="M309.813 248.449C308.199 248.769 306.53 248.664 304.97 248.145C303.478 247.635 302.149 246.737 301.121 245.542C300.33 244.635 299.725 243.581 299.342 242.44C298.959 241.299 298.805 240.094 298.888 238.893C298.972 237.693 299.291 236.52 299.828 235.443C300.365 234.366 301.11 233.406 302.018 232.617C303.235 231.575 304.711 230.88 306.29 230.607C307.774 230.303 309.314 230.413 310.74 230.926C312.099 231.434 313.295 232.3 314.203 233.432C315.173 234.652 315.817 236.099 316.072 237.637C316.126 237.929 316.16 238.223 316.176 238.519C316.176 238.831 316.176 239.165 316.176 239.535L302.085 242.146L301.492 238.927L313.543 236.703L312.312 238.26C312.127 237.347 311.753 236.483 311.214 235.724C310.753 235.1 310.118 234.626 309.39 234.359C308.577 234.1 307.71 234.059 306.876 234.241C305.959 234.387 305.099 234.776 304.384 235.368C303.726 235.925 303.244 236.662 302.997 237.489C302.753 238.442 302.723 239.438 302.909 240.405C303.095 241.371 303.492 242.285 304.073 243.08C304.627 243.794 305.38 244.328 306.238 244.615C307.155 244.913 308.133 244.969 309.078 244.778C309.92 244.629 310.723 244.317 311.444 243.859C312.122 243.423 312.691 242.837 313.105 242.146L316.072 244.222C315.429 245.344 314.53 246.297 313.447 247.003C312.342 247.718 311.107 248.21 309.813 248.449Z" fill="#1B4A47"/>
<path d="M320.87 246.031L317.696 228.864L321.626 228.123L324.808 245.29L320.87 246.031ZM332.639 243.851L330.807 233.944C330.729 233.421 330.545 232.92 330.267 232.47C329.989 232.02 329.623 231.631 329.191 231.326C328.757 231.026 328.265 230.817 327.747 230.715C327.229 230.613 326.695 230.619 326.18 230.733C325.464 230.853 324.792 231.157 324.229 231.616C323.703 232.049 323.309 232.622 323.095 233.269C322.869 233.956 322.825 234.689 322.969 235.397L321.278 234.819C321.03 233.608 321.101 232.353 321.485 231.178C321.862 230.074 322.531 229.092 323.421 228.338C324.356 227.565 325.48 227.054 326.677 226.855C327.891 226.612 329.15 226.733 330.296 227.203C331.396 227.659 332.367 228.38 333.121 229.302C333.871 230.184 334.382 231.243 334.604 232.379L336.592 243.147L332.639 243.851Z" fill="#1B4A47"/>
<path d="M336.562 229.072L335.895 225.498L348.057 223.273L348.717 226.855L336.562 229.072ZM343.185 241.901L338.691 217.586L342.621 216.844L347.123 241.159L343.185 241.901Z" fill="#1B4A47"/>
<path d="M359.419 239.246C358.488 239.423 357.536 239.468 356.593 239.38C355.693 239.297 354.809 239.087 353.968 238.757C353.157 238.436 352.405 237.983 351.743 237.414L353.782 234.448C354.467 235.01 355.267 235.412 356.126 235.627C357.026 235.817 357.955 235.817 358.855 235.627C359.55 235.547 360.213 235.291 360.783 234.886C360.971 234.738 361.114 234.542 361.196 234.318C361.279 234.094 361.297 233.852 361.25 233.618C361.204 233.381 361.096 233.16 360.939 232.977C360.782 232.794 360.58 232.654 360.353 232.572C359.776 232.343 359.169 232.198 358.551 232.142L356.289 231.92C355.505 231.841 354.732 231.68 353.983 231.438C353.244 231.201 352.576 230.783 352.04 230.222C351.44 229.557 351.055 228.728 350.935 227.841C350.712 226.867 350.793 225.848 351.165 224.92C351.537 223.992 352.184 223.201 353.019 222.65C354.004 222.002 355.117 221.57 356.282 221.382C357.539 221.125 358.837 221.146 360.086 221.442C361.24 221.734 362.298 222.322 363.156 223.147L361.117 226.113C360.546 225.61 359.869 225.24 359.137 225.031C358.384 224.842 357.598 224.824 356.838 224.979C356.204 225.063 355.6 225.303 355.08 225.676C354.903 225.806 354.766 225.984 354.686 226.188C354.605 226.393 354.585 226.617 354.628 226.833C354.664 227.059 354.763 227.271 354.912 227.445C355.061 227.619 355.255 227.748 355.473 227.819C356.049 228.026 356.65 228.151 357.261 228.19C358.002 228.256 358.744 228.331 359.53 228.42C360.319 228.508 361.095 228.688 361.844 228.953C362.587 229.217 363.257 229.651 363.801 230.222C364.403 230.909 364.789 231.757 364.914 232.661C365.086 233.407 365.083 234.182 364.907 234.927C364.731 235.671 364.386 236.365 363.898 236.955C362.723 238.225 361.136 239.037 359.419 239.246Z" fill="#1B4A47"/>
<path d="M597.214 411.15C595.706 411.068 594.254 410.553 593.031 409.667C591.813 408.783 590.848 407.594 590.235 406.219C589.603 404.743 589.329 403.138 589.436 401.536C589.543 399.934 590.028 398.38 590.851 397.002C591.644 395.72 592.755 394.665 594.077 393.939C595.404 393.212 596.914 392.887 598.423 393.005C599.659 393.063 600.859 393.439 601.908 394.095C602.88 394.714 603.67 395.578 604.2 396.601C604.745 397.659 604.981 398.849 604.882 400.034L604.548 405.04C604.497 406.208 604.123 407.34 603.469 408.31C602.814 409.279 601.905 410.049 600.84 410.535C599.703 411.044 598.455 411.255 597.214 411.15ZM598.119 407.442C598.791 407.516 599.471 407.442 600.111 407.226C600.752 407.009 601.337 406.656 601.827 406.189C602.821 405.207 603.398 403.879 603.436 402.482C603.521 401.526 603.374 400.564 603.006 399.679C602.67 398.88 602.115 398.194 601.404 397.699C600.642 397.199 599.763 396.905 598.854 396.844C597.945 396.783 597.035 396.957 596.213 397.35C595.443 397.755 594.799 398.363 594.351 399.108C593.872 399.935 593.588 400.86 593.52 401.813C593.452 402.767 593.602 403.723 593.958 404.61C594.307 405.405 594.866 406.089 595.575 406.59C596.329 407.097 597.21 407.385 598.119 407.42V407.442ZM602.568 411.15L602.88 406.464L603.851 402.267L603.443 398.01L603.725 393.731L607.722 393.998L606.566 411.41L602.568 411.15Z" fill="#1B4A47"/>
<path d="M618.12 412.544C616.743 412.473 615.408 412.043 614.248 411.298C613.159 410.59 612.291 409.591 611.742 408.414C611.163 407.153 610.923 405.762 611.045 404.38L611.757 394.228L615.746 394.488L615.086 404.432C615.011 405.172 615.105 405.92 615.361 406.619C615.578 407.21 615.978 407.717 616.503 408.065C617.074 408.43 617.732 408.637 618.409 408.666C618.901 408.73 619.402 408.687 619.876 408.538C620.349 408.39 620.785 408.14 621.153 407.806C621.872 407.014 622.271 405.983 622.273 404.914L622.881 394.97L626.87 395.237L626.196 405.359C626.136 406.757 625.714 408.117 624.972 409.304C624.278 410.391 623.291 411.26 622.124 411.81C620.876 412.4 619.496 412.653 618.12 412.544Z" fill="#1B4A47"/>
<path d="M629.155 399.063L629.392 395.429L641.732 396.253L641.488 399.879L629.155 399.063ZM632.403 413.152L634.049 388.474L638.039 388.741L636.4 413.419L632.403 413.152Z" fill="#1B4A47"/>
<path d="M651.433 414.761C649.814 414.674 648.249 414.146 646.909 413.234C645.599 412.354 644.541 411.147 643.839 409.734C643.116 408.283 642.803 406.663 642.934 405.047C643.015 403.438 643.541 401.882 644.454 400.554C645.343 399.262 646.548 398.22 647.955 397.528C649.405 396.805 651.025 396.49 652.641 396.616C654.27 396.692 655.847 397.204 657.21 398.099C658.516 398.968 659.572 400.165 660.273 401.569C660.998 403.014 661.313 404.63 661.185 406.241C661.095 407.858 660.57 409.421 659.664 410.765C658.77 412.1 657.536 413.172 656.089 413.871C654.642 414.57 653.034 414.869 651.433 414.739V414.761ZM651.692 410.913C652.613 410.994 653.539 410.822 654.369 410.416C655.154 410.022 655.811 409.416 656.268 408.666C656.757 407.855 657.037 406.935 657.084 405.989C657.166 405.054 657.003 404.113 656.609 403.26C656.242 402.474 655.671 401.801 654.955 401.31C654.193 400.799 653.306 400.507 652.389 400.465C651.48 400.384 650.567 400.556 649.749 400.961C648.968 401.346 648.309 401.939 647.843 402.674C647.353 403.474 647.075 404.385 647.035 405.322C646.951 406.265 647.107 407.213 647.487 408.08C647.838 408.887 648.412 409.576 649.141 410.067C649.898 410.577 650.781 410.869 651.692 410.913Z" fill="#1B4A47"/>
<path d="M663.906 415.229L665.063 397.81L669.06 398.077L667.896 415.488L663.906 415.229ZM675.483 415.97L676.172 405.589C676.235 405.088 676.186 404.58 676.03 404.101C675.874 403.621 675.613 403.182 675.268 402.815C674.568 402.117 673.63 401.709 672.642 401.673C671.97 401.615 671.293 401.719 670.67 401.977C670.09 402.222 669.592 402.626 669.231 403.141C668.834 403.714 668.61 404.388 668.586 405.084L667.103 404.106C667.152 402.897 667.531 401.725 668.2 400.717C668.832 399.8 669.701 399.072 670.714 398.611C671.774 398.123 672.941 397.916 674.103 398.01C675.266 398.076 676.394 398.427 677.389 399.033C678.339 399.615 679.109 400.45 679.613 401.443C680.148 402.541 680.368 403.765 680.251 404.981L679.51 416.23L675.483 415.97ZM687.059 416.712L687.749 406.33C687.813 405.83 687.765 405.321 687.609 404.842C687.452 404.362 687.191 403.923 686.844 403.557C686.145 402.857 685.207 402.449 684.219 402.415C683.554 402.359 682.885 402.463 682.268 402.719C681.672 402.955 681.156 403.36 680.785 403.883C680.389 404.456 680.166 405.13 680.14 405.826L677.915 404.803C678.083 403.581 678.561 402.422 679.302 401.436C680.006 400.523 680.926 399.799 681.979 399.33C683.063 398.853 684.247 398.652 685.428 398.744C686.614 398.805 687.768 399.157 688.787 399.767C689.748 400.353 690.534 401.185 691.064 402.178C691.621 403.271 691.855 404.5 691.739 405.722L690.997 416.971L687.059 416.712Z" fill="#1B4A47"/>
<path d="M702.425 418.158C700.916 418.073 699.462 417.559 698.235 416.675C697.017 415.791 696.052 414.601 695.439 413.226C694.807 411.751 694.533 410.146 694.64 408.544C694.747 406.942 695.232 405.388 696.055 404.009C696.849 402.723 697.963 401.665 699.288 400.939C700.614 400.217 702.121 399.895 703.627 400.012C704.863 400.071 706.063 400.446 707.112 401.102C708.087 401.714 708.879 402.577 709.404 403.601C709.952 404.661 710.188 405.854 710.086 407.042L709.752 412.047C709.693 413.234 709.309 414.381 708.64 415.362C707.985 416.311 707.086 417.064 706.037 417.542C704.904 418.049 703.662 418.261 702.425 418.158ZM703.33 414.45C704.002 414.528 704.682 414.456 705.323 414.241C705.964 414.026 706.55 413.672 707.038 413.204C708.032 412.221 708.611 410.894 708.655 409.497C708.738 408.541 708.588 407.579 708.217 406.694C707.882 405.897 707.329 405.211 706.623 404.714C705.868 404.199 704.984 403.906 704.072 403.868C703.175 403.786 702.272 403.958 701.469 404.365C700.696 404.767 700.049 405.376 699.6 406.123C699.108 406.946 698.828 407.878 698.784 408.837C698.698 409.792 698.854 410.753 699.236 411.632C699.578 412.433 700.138 413.122 700.853 413.619C701.589 414.111 702.446 414.388 703.33 414.42V414.45ZM707.78 418.158L708.091 413.471L709.063 409.274L708.655 405.018L708.944 400.739L712.934 400.998L711.777 418.425L707.78 418.158Z" fill="#1B4A47"/>
<path d="M715.582 404.817L715.819 401.191L728.159 402.007L727.922 405.64L715.582 404.817ZM718.837 418.907L720.476 394.228L724.473 394.495L722.827 419.174L718.837 418.907Z" fill="#1B4A47"/>
<path d="M729.954 419.626L731.118 402.207L735.108 402.474L733.943 419.893L729.954 419.626ZM733.321 399.145C733.006 399.134 732.698 399.058 732.415 398.92C732.133 398.782 731.883 398.585 731.682 398.344C731.281 397.852 731.082 397.226 731.125 396.593C731.167 395.96 731.448 395.367 731.911 394.933C732.394 394.52 733.018 394.313 733.651 394.354C734.284 394.396 734.876 394.683 735.301 395.155C735.691 395.651 735.884 396.274 735.843 396.903C735.802 397.533 735.529 398.125 735.078 398.566C734.844 398.783 734.566 398.947 734.262 399.047C733.959 399.147 733.638 399.18 733.321 399.145Z" fill="#1B4A47"/>
<path d="M738.408 420.182L739.572 402.763L743.562 403.03L742.405 420.449L738.408 420.182ZM750.348 420.976L751.023 410.92C751.08 410.389 751.027 409.852 750.869 409.342C750.711 408.832 750.45 408.36 750.103 407.954C749.757 407.555 749.332 407.232 748.854 407.006C748.377 406.78 747.858 406.656 747.33 406.642C746.608 406.576 745.882 406.701 745.224 407.005C744.617 407.304 744.104 407.763 743.74 408.332C743.353 408.942 743.13 409.642 743.095 410.364L741.612 409.385C741.672 408.149 742.056 406.949 742.724 405.907C743.36 404.931 744.249 404.146 745.298 403.638C746.392 403.109 747.608 402.881 748.82 402.978C750.057 403.041 751.247 403.469 752.239 404.209C753.195 404.924 753.959 405.864 754.464 406.946C754.964 407.986 755.189 409.138 755.117 410.29L754.375 421.213L750.348 420.976Z" fill="#1B4A47"/>
<path d="M765.158 429.622C763.491 429.549 761.863 429.098 760.397 428.302C759.099 427.584 758.013 426.538 757.245 425.269L760.033 422.829C760.61 423.692 761.369 424.416 762.258 424.95C763.241 425.48 764.332 425.777 765.447 425.818C766.797 425.983 768.16 425.637 769.266 424.846C769.755 424.461 770.153 423.971 770.43 423.413C770.707 422.856 770.856 422.243 770.868 421.621L771.15 417.342L772.099 413.538L771.669 409.608L771.981 404.929L775.971 405.196L774.91 421.888C774.835 423.431 774.32 424.921 773.427 426.181C772.561 427.387 771.374 428.324 770.001 428.888C768.467 429.512 766.808 429.763 765.158 429.622ZM765.507 421.628C764.028 421.549 762.602 421.056 761.391 420.204C760.196 419.359 759.253 418.206 758.662 416.867C758.039 415.443 757.784 413.885 757.92 412.337C757.998 410.791 758.468 409.291 759.285 407.976C760.058 406.747 761.142 405.744 762.429 405.07C763.745 404.39 765.224 404.092 766.701 404.209C767.963 404.266 769.191 404.635 770.275 405.285C771.249 405.879 772.038 406.735 772.552 407.754C773.077 408.836 773.298 410.041 773.19 411.239L772.908 415.518C772.849 416.717 772.461 417.876 771.788 418.87C771.138 419.819 770.237 420.569 769.185 421.035C768.03 421.548 766.766 421.765 765.507 421.665V421.628ZM766.56 417.92C767.444 418.001 768.334 417.848 769.14 417.476C769.883 417.12 770.509 416.559 770.943 415.859C771.391 415.077 771.656 414.203 771.716 413.304C771.777 412.404 771.631 411.503 771.291 410.668C770.951 409.917 770.403 409.279 769.711 408.829C768.951 408.371 768.091 408.102 767.205 408.042C766.319 407.983 765.432 408.136 764.617 408.488C763.865 408.842 763.228 409.4 762.777 410.097C762.298 410.868 762.024 411.749 761.984 412.655C761.913 413.551 762.066 414.451 762.429 415.273C762.776 416.033 763.335 416.677 764.038 417.127C764.798 417.599 765.666 417.868 766.56 417.906V417.92Z" fill="#1B4A47"/>
<path d="M602.338 454.864L603.503 437.445L607.493 437.712L606.336 455.131L602.338 454.864ZM613.915 455.606L614.612 445.224C614.673 444.723 614.622 444.215 614.465 443.736C614.307 443.256 614.046 442.818 613.7 442.451C613.001 441.755 612.067 441.348 611.082 441.309C610.409 441.255 609.733 441.362 609.109 441.62C608.531 441.866 608.03 442.266 607.663 442.777C607.273 443.352 607.052 444.025 607.025 444.72L605.542 443.748C605.593 442.539 605.975 441.366 606.647 440.359C607.279 439.444 608.145 438.715 609.154 438.246C610.22 437.782 611.382 437.579 612.543 437.654C613.704 437.729 614.83 438.079 615.828 438.676C616.776 439.257 617.546 440.089 618.053 441.079C618.584 442.18 618.804 443.406 618.691 444.623L617.949 455.872L613.915 455.606ZM625.499 456.347L626.188 445.965C626.25 445.463 626.2 444.954 626.042 444.474C625.884 443.993 625.623 443.553 625.276 443.185C624.578 442.489 623.643 442.082 622.658 442.043C621.99 441.992 621.32 442.099 620.701 442.354C620.108 442.595 619.595 442.995 619.217 443.511C618.827 444.086 618.606 444.759 618.58 445.454L616.355 444.438C616.525 443.213 617.005 442.052 617.749 441.064C618.452 440.155 619.369 439.434 620.419 438.965C621.502 438.487 622.686 438.283 623.867 438.372C625.054 438.437 626.207 438.791 627.227 439.403C628.191 439.986 628.98 440.819 629.511 441.813C630.068 442.906 630.302 444.136 630.186 445.357L629.444 456.607L625.499 456.347Z" fill="#1B4A47"/>
<path d="M641.658 457.845C640.014 457.768 638.42 457.256 637.038 456.362C635.713 455.507 634.646 454.308 633.953 452.891C633.212 451.462 632.865 449.861 632.948 448.253C633.032 446.645 633.543 445.088 634.428 443.744C635.314 442.399 636.542 441.314 637.986 440.602C639.43 439.89 641.038 439.576 642.645 439.692C644.157 439.767 645.62 440.257 646.872 441.108C648.061 441.936 649.006 443.068 649.608 444.386C650.234 445.812 650.489 447.373 650.35 448.924C650.331 449.22 650.293 449.515 650.239 449.807C650.179 450.111 650.105 450.437 650.009 450.793L635.74 449.844L635.955 446.574L648.184 447.389L646.612 448.598C646.656 447.668 646.507 446.739 646.175 445.869C645.88 445.152 645.383 444.536 644.743 444.097C644.019 443.641 643.188 443.386 642.333 443.355C641.41 443.274 640.481 443.438 639.641 443.83C638.866 444.212 638.217 444.809 637.772 445.55C637.3 446.413 637.025 447.37 636.966 448.352C636.907 449.334 637.066 450.317 637.431 451.23C637.794 452.063 638.396 452.77 639.159 453.262C639.974 453.778 640.91 454.072 641.873 454.115C642.723 454.178 643.577 454.075 644.387 453.811C645.152 453.555 645.848 453.126 646.419 452.558L648.792 455.302C647.891 456.233 646.78 456.935 645.552 457.348C644.302 457.779 642.976 457.948 641.658 457.845Z" fill="#1B4A47"/>
<path d="M658.641 458.979C657.697 458.92 656.765 458.728 655.875 458.408C655.018 458.113 654.211 457.69 653.479 457.155C652.766 456.643 652.142 456.017 651.633 455.301L654.34 452.936C654.862 453.649 655.539 454.234 656.32 454.649C657.137 455.068 658.035 455.308 658.952 455.353C659.651 455.44 660.359 455.351 661.014 455.094C661.23 454.995 661.414 454.838 661.545 454.64C661.676 454.442 661.749 454.211 661.756 453.974C661.783 453.73 661.744 453.483 661.644 453.259C661.543 453.034 661.385 452.841 661.185 452.699C660.687 452.333 660.137 452.046 659.553 451.846L657.417 451.06C656.674 450.796 655.963 450.451 655.296 450.029C654.639 449.617 654.094 449.049 653.709 448.375C653.296 447.58 653.128 446.679 653.227 445.787C653.27 444.776 653.608 443.799 654.199 442.977C654.795 442.193 655.607 441.6 656.535 441.271C657.648 440.884 658.832 440.74 660.006 440.849C661.3 440.899 662.567 441.238 663.714 441.842C664.763 442.408 665.645 443.239 666.272 444.252L663.558 446.618C663.133 445.989 662.57 445.467 661.911 445.09C661.226 444.718 660.466 444.505 659.687 444.468C659.051 444.394 658.407 444.475 657.81 444.705C657.602 444.782 657.421 444.919 657.289 445.098C657.157 445.278 657.081 445.491 657.069 445.713C657.046 445.943 657.089 446.175 657.191 446.382C657.293 446.589 657.451 446.763 657.647 446.885C658.154 447.226 658.705 447.496 659.286 447.686L661.422 448.427C662.167 448.707 662.876 449.073 663.536 449.517C664.193 449.952 664.735 450.54 665.115 451.23C665.533 452.041 665.701 452.957 665.597 453.863C665.58 454.629 665.386 455.381 665.031 456.06C664.676 456.739 664.17 457.327 663.55 457.778C662.108 458.749 660.368 459.175 658.641 458.979Z" fill="#1B4A47"/>
<path d="M674.244 460.018C673.301 459.957 672.37 459.767 671.478 459.454C670.625 459.151 669.819 458.729 669.083 458.201C668.373 457.685 667.749 457.059 667.236 456.347L669.943 453.974C670.469 454.686 671.149 455.272 671.931 455.687C672.745 456.121 673.643 456.374 674.563 456.429C675.259 456.515 675.965 456.425 676.618 456.169C676.833 456.07 677.017 455.913 677.148 455.715C677.279 455.517 677.352 455.286 677.359 455.049C677.382 454.806 677.342 454.56 677.242 454.336C677.142 454.113 676.985 453.919 676.788 453.774C676.286 453.411 675.734 453.124 675.149 452.921L673.013 452.135C672.27 451.872 671.559 451.526 670.892 451.104C670.237 450.69 669.692 450.123 669.305 449.451C668.895 448.654 668.728 447.754 668.823 446.863C668.866 445.851 669.204 444.874 669.795 444.052C670.391 443.268 671.203 442.676 672.131 442.347C673.247 441.959 674.433 441.815 675.609 441.924C676.891 441.981 678.144 442.32 679.28 442.918C680.324 443.488 681.202 444.318 681.831 445.328L679.124 447.693C678.696 447.068 678.133 446.546 677.478 446.166C676.791 445.796 676.032 445.583 675.253 445.543C674.618 445.469 673.974 445.551 673.377 445.78C673.169 445.861 672.988 445.999 672.857 446.179C672.725 446.359 672.648 446.573 672.635 446.796C672.617 447.024 672.661 447.253 672.763 447.458C672.865 447.664 673.021 447.837 673.214 447.96C673.72 448.302 674.272 448.571 674.853 448.761L676.988 449.503C677.733 449.782 678.442 450.148 679.102 450.593C679.76 451.029 680.304 451.616 680.689 452.306C681.101 453.121 681.266 454.038 681.164 454.946C681.146 455.71 680.952 456.461 680.597 457.139C680.242 457.816 679.735 458.403 679.117 458.853C677.681 459.804 675.955 460.216 674.244 460.018Z" fill="#1B4A47"/>
<path d="M691.45 461.167C689.943 461.081 688.492 460.567 687.267 459.684C686.046 458.8 685.08 457.611 684.464 456.236C683.831 454.76 683.557 453.155 683.664 451.553C683.771 449.951 684.256 448.397 685.079 447.018C685.873 445.732 686.987 444.674 688.313 443.948C689.639 443.219 691.15 442.897 692.659 443.021C693.892 443.08 695.09 443.455 696.137 444.112C697.112 444.725 697.905 445.588 698.436 446.611C698.977 447.669 699.211 448.859 699.111 450.044L698.784 455.057C698.719 456.243 698.332 457.389 697.664 458.371C697.011 459.319 696.111 460.071 695.061 460.544C693.93 461.054 692.687 461.269 691.45 461.167ZM692.355 457.459C693.026 457.536 693.706 457.464 694.347 457.249C694.988 457.034 695.574 456.68 696.063 456.214C697.057 455.23 697.635 453.903 697.679 452.506C697.761 451.552 697.611 450.593 697.242 449.71C696.908 448.911 696.356 448.222 695.647 447.723C694.893 447.209 694.008 446.919 693.096 446.885C692.22 446.8 691.338 446.963 690.551 447.357C689.764 447.75 689.104 448.358 688.647 449.11C688.154 449.935 687.873 450.87 687.831 451.831C687.745 452.786 687.901 453.747 688.283 454.627C688.627 455.426 689.187 456.114 689.9 456.614C690.627 457.106 691.477 457.389 692.355 457.43V457.459ZM696.804 461.167L697.116 456.488L698.095 452.291L697.679 448.034L697.969 443.756L701.958 444.015L700.801 461.434L696.804 461.167Z" fill="#1B4A47"/>
<path d="M711.977 469.821C710.311 469.745 708.684 469.294 707.216 468.501C705.92 467.781 704.834 466.735 704.064 465.468L706.853 463.028C707.429 463.891 708.189 464.615 709.078 465.149C710.063 465.672 711.152 465.968 712.267 466.017C713.616 466.178 714.978 465.832 716.086 465.045C716.574 464.659 716.971 464.17 717.248 463.612C717.525 463.054 717.675 462.442 717.688 461.82L717.97 457.541L718.919 453.737L718.548 449.844L718.867 445.165L722.857 445.432L721.744 462.124C721.669 463.667 721.155 465.157 720.261 466.417C719.394 467.621 718.207 468.558 716.835 469.124C715.294 469.737 713.629 469.976 711.977 469.821ZM712.326 461.827C710.848 461.748 709.421 461.255 708.21 460.403C707.015 459.558 706.072 458.405 705.481 457.066C704.859 455.642 704.604 454.084 704.739 452.536C704.814 450.989 705.284 449.488 706.104 448.175C706.874 446.944 707.96 445.94 709.248 445.269C710.564 444.589 712.044 444.291 713.52 444.408C714.78 444.464 716.006 444.833 717.087 445.484C718.065 446.076 718.856 446.932 719.371 447.953C719.896 449.035 720.117 450.24 720.009 451.438L719.727 455.717C719.668 456.916 719.281 458.075 718.607 459.069C717.958 460.016 717.056 460.764 716.004 461.226C714.848 461.733 713.583 461.94 712.326 461.827ZM713.379 458.119C714.263 458.2 715.154 458.047 715.96 457.674C716.701 457.317 717.326 456.756 717.762 456.058C718.217 455.282 718.472 454.406 718.503 453.507C718.588 452.607 718.44 451.701 718.073 450.875C717.738 450.123 717.192 449.484 716.501 449.036C715.74 448.578 714.881 448.308 713.995 448.249C713.109 448.189 712.222 448.342 711.406 448.694C710.653 449.046 710.016 449.604 709.567 450.304C709.089 451.072 708.815 451.95 708.774 452.854C708.701 453.75 708.854 454.65 709.219 455.472C709.565 456.234 710.124 456.88 710.828 457.333C711.59 457.804 712.461 458.07 713.357 458.105L713.379 458.119Z" fill="#1B4A47"/>
<path d="M734.159 464.007C732.515 463.924 730.923 463.413 729.538 462.524C728.221 461.661 727.156 460.463 726.453 459.054C725.911 457.979 725.586 456.809 725.496 455.609C725.407 454.408 725.556 453.202 725.933 452.06C726.311 450.917 726.91 449.86 727.696 448.949C728.483 448.038 729.442 447.291 730.517 446.752C731.953 446.041 733.555 445.731 735.152 445.854C736.666 445.925 738.129 446.415 739.379 447.271C740.57 448.097 741.516 449.229 742.116 450.548C742.742 451.972 742.997 453.53 742.858 455.079C742.836 455.378 742.797 455.675 742.739 455.969C742.687 456.266 742.613 456.599 742.516 456.955L728.211 456.006L728.433 452.736L740.662 453.551L739.09 454.76C739.136 453.829 738.984 452.899 738.645 452.031C738.358 451.31 737.859 450.692 737.214 450.259C736.491 449.802 735.659 449.546 734.804 449.518C733.88 449.432 732.951 449.596 732.112 449.992C731.338 450.373 730.691 450.971 730.25 451.712C729.759 452.555 729.482 453.504 729.442 454.478C729.356 455.473 729.516 456.474 729.909 457.393C730.27 458.223 730.869 458.927 731.63 459.417C732.445 459.933 733.38 460.23 734.344 460.277C735.197 460.342 736.054 460.236 736.865 459.966C737.631 459.716 738.327 459.289 738.897 458.72L741.263 461.464C740.363 462.393 739.255 463.094 738.03 463.51C736.785 463.929 735.469 464.098 734.159 464.007Z" fill="#1B4A47"/>
<path d="M751.179 465.142C750.232 465.079 749.299 464.886 748.405 464.571C747.55 464.272 746.743 463.85 746.01 463.318C745.298 462.804 744.674 462.178 744.163 461.464L746.877 459.091C747.401 459.805 748.077 460.393 748.857 460.811C749.673 461.241 750.57 461.494 751.49 461.553C752.189 461.641 752.898 461.549 753.552 461.286C753.766 461.187 753.949 461.031 754.08 460.835C754.211 460.638 754.285 460.409 754.293 460.173C754.319 459.929 754.279 459.683 754.179 459.459C754.079 459.235 753.921 459.042 753.722 458.898C753.223 458.53 752.67 458.24 752.083 458.038L749.948 457.296C749.206 457.032 748.497 456.683 747.834 456.258C747.175 455.848 746.629 455.28 746.247 454.604C745.83 453.812 745.662 452.913 745.765 452.024C745.779 450.974 746.115 449.954 746.729 449.102C747.326 448.321 748.138 447.731 749.065 447.404C750.178 447.014 751.361 446.867 752.536 446.974C753.829 447.033 755.094 447.372 756.244 447.968C757.289 448.536 758.168 449.367 758.795 450.378L756.088 452.751C755.66 452.125 755.097 451.603 754.442 451.223C753.759 450.845 752.997 450.631 752.217 450.6C751.581 450.526 750.938 450.608 750.341 450.838C750.134 450.918 749.954 451.055 749.823 451.234C749.691 451.412 749.614 451.625 749.599 451.846C749.581 452.075 749.625 452.305 749.727 452.511C749.829 452.718 749.984 452.893 750.177 453.018C750.689 453.355 751.243 453.624 751.824 453.818C752.501 454.056 753.213 454.315 753.96 454.597C754.703 454.88 755.412 455.245 756.073 455.687C756.725 456.125 757.266 456.709 757.653 457.393C758.066 458.207 758.234 459.124 758.135 460.033C758.117 460.797 757.923 461.548 757.568 462.226C757.213 462.904 756.707 463.49 756.088 463.941C754.646 464.911 752.906 465.337 751.179 465.142Z" fill="#1B4A47"/>
<path d="M405.353 330.545C403.603 330.713 401.836 330.521 400.162 329.981C398.576 329.467 397.11 328.637 395.854 327.541C394.588 326.444 393.555 325.105 392.813 323.604C391.27 320.427 390.963 316.79 391.953 313.4C392.425 311.799 393.214 310.308 394.274 309.018C395.338 307.733 396.643 306.667 398.115 305.881C399.666 305.057 401.37 304.565 403.121 304.435C404.945 304.232 406.791 304.422 408.535 304.991C410.077 305.534 411.507 306.353 412.755 307.409L410.174 310.471C409.34 309.707 408.351 309.133 407.274 308.788C406.042 308.408 404.745 308.282 403.462 308.417C402.281 308.505 401.128 308.827 400.073 309.366C399.087 309.875 398.222 310.591 397.537 311.465C396.841 312.361 396.336 313.391 396.054 314.49C395.435 316.933 395.654 319.513 396.677 321.817C397.153 322.852 397.834 323.78 398.679 324.546C399.508 325.284 400.483 325.84 401.542 326.177C402.673 326.53 403.863 326.653 405.042 326.54C406.39 326.461 407.708 326.105 408.913 325.495C409.912 324.959 410.786 324.219 411.479 323.322L414.49 325.932C413.423 327.221 412.113 328.287 410.634 329.069C408.992 329.915 407.196 330.417 405.353 330.545Z" fill="#1B4A47"/>
<path d="M425.176 328.854C423.808 329.003 422.424 328.788 421.164 328.231C419.984 327.692 418.975 326.838 418.25 325.762C417.489 324.6 417.042 323.261 416.952 321.876L416.092 311.761L420.074 311.428L420.927 321.349C420.962 322.093 421.168 322.819 421.528 323.47C421.831 324.019 422.301 324.458 422.87 324.723C423.49 325.002 424.174 325.11 424.85 325.035C425.346 325.024 425.833 324.906 426.279 324.688C426.725 324.47 427.118 324.159 427.431 323.774C428.023 322.881 428.261 321.8 428.098 320.741L427.253 310.812L431.235 310.471L432.103 320.578C432.25 321.971 432.035 323.378 431.48 324.664C430.96 325.843 430.117 326.851 429.048 327.571C427.89 328.327 426.556 328.769 425.176 328.854Z" fill="#1B4A47"/>
<path d="M442.456 327.371C441.515 327.458 440.566 327.411 439.638 327.23C438.747 327.063 437.886 326.768 437.079 326.355C436.3 325.952 435.59 325.429 434.973 324.805L437.294 322.047C437.922 322.674 438.682 323.153 439.519 323.448C440.391 323.735 441.313 323.836 442.226 323.745C442.929 323.729 443.616 323.532 444.221 323.174C444.425 323.048 444.588 322.867 444.693 322.651C444.798 322.436 444.84 322.196 444.814 321.958C444.804 321.713 444.73 321.476 444.6 321.269C444.47 321.063 444.288 320.893 444.073 320.779C443.521 320.495 442.932 320.292 442.322 320.178L440.098 319.733C439.331 319.569 438.585 319.32 437.873 318.991C437.162 318.682 436.538 318.204 436.056 317.597C435.527 316.873 435.225 316.009 435.188 315.113C435.06 314.12 435.24 313.111 435.703 312.223C436.165 311.335 436.889 310.609 437.776 310.145C438.819 309.594 439.967 309.273 441.143 309.203C442.42 309.07 443.71 309.214 444.925 309.626C446.042 310.036 447.036 310.725 447.81 311.628L445.489 314.379C444.976 313.822 444.341 313.391 443.635 313.118C442.903 312.851 442.119 312.755 441.344 312.837C440.705 312.859 440.081 313.037 439.527 313.356C439.337 313.467 439.184 313.631 439.084 313.826C438.984 314.022 438.942 314.242 438.963 314.461C438.979 314.689 439.057 314.908 439.187 315.096C439.318 315.284 439.497 315.433 439.705 315.528C440.258 315.79 440.844 315.975 441.447 316.077C442.189 316.211 442.931 316.359 443.672 316.522C444.44 316.682 445.187 316.931 445.897 317.264C446.613 317.607 447.239 318.115 447.721 318.747C448.253 319.489 448.555 320.371 448.589 321.283C448.687 322.042 448.608 322.813 448.36 323.537C448.112 324.261 447.7 324.918 447.158 325.458C445.87 326.638 444.202 327.317 442.456 327.371Z" fill="#1B4A47"/>
<path d="M449.62 312.525L449.316 308.906L461.634 307.853L461.945 311.472L449.62 312.525ZM454.967 325.94L452.861 301.298L456.851 300.957L458.986 325.599L454.967 325.94Z" fill="#1B4A47"/>
<path d="M474.026 324.679C472.411 324.834 470.784 324.549 469.317 323.856C467.895 323.19 466.668 322.169 465.757 320.89C464.832 319.552 464.286 317.989 464.178 316.366C464.021 314.763 464.306 313.148 465.001 311.695C465.679 310.29 466.699 309.079 467.967 308.172C469.295 307.24 470.851 306.685 472.469 306.563C474.091 306.407 475.726 306.683 477.208 307.364C478.632 308.027 479.859 309.049 480.767 310.33C481.697 311.639 482.251 313.178 482.369 314.779C482.53 316.392 482.248 318.017 481.553 319.481C480.877 320.909 479.842 322.138 478.55 323.048C477.217 323.991 475.654 324.555 474.026 324.679ZM473.692 320.838C474.615 320.775 475.504 320.465 476.266 319.941C476.982 319.433 477.543 318.734 477.882 317.924C478.244 317.047 478.382 316.094 478.283 315.15C478.223 314.213 477.919 313.308 477.4 312.525C476.92 311.804 476.254 311.225 475.472 310.849C474.64 310.457 473.717 310.3 472.802 310.397C471.892 310.466 471.017 310.775 470.266 311.294C469.556 311.793 468.996 312.478 468.649 313.274C468.285 314.137 468.147 315.079 468.249 316.01C468.31 316.956 468.605 317.871 469.109 318.673C469.581 319.414 470.252 320.008 471.045 320.386C471.872 320.767 472.787 320.915 473.692 320.816V320.838Z" fill="#1B4A47"/>
<path d="M486.426 323.255L484.942 305.859L488.932 305.518L490.415 322.914L486.426 323.255ZM497.98 322.299L497.097 311.917C497.084 311.411 496.959 310.915 496.731 310.464C496.502 310.012 496.177 309.617 495.777 309.307C494.985 308.718 493.999 308.453 493.018 308.565C492.344 308.608 491.69 308.814 491.113 309.166C490.577 309.497 490.143 309.969 489.859 310.53C489.561 311.158 489.445 311.857 489.525 312.547L487.894 311.806C487.756 310.602 487.953 309.382 488.465 308.284C488.952 307.283 489.701 306.433 490.63 305.822C491.616 305.201 492.736 304.824 493.897 304.722C495.058 304.62 496.226 304.796 497.305 305.236C498.323 305.67 499.203 306.375 499.849 307.275C500.542 308.284 500.947 309.464 501.02 310.686L501.999 321.92L497.98 322.299ZM509.541 321.312L508.659 310.931C508.644 310.426 508.518 309.93 508.29 309.478C508.062 309.027 507.737 308.632 507.339 308.321C506.543 307.734 505.555 307.47 504.573 307.579C503.906 307.628 503.261 307.834 502.689 308.18C502.147 308.511 501.708 308.986 501.421 309.552C501.123 310.179 501.005 310.878 501.08 311.569L498.766 310.886C498.742 309.653 499.039 308.434 499.626 307.349C500.186 306.342 500.986 305.489 501.955 304.865C502.953 304.231 504.091 303.851 505.27 303.76C506.453 303.645 507.647 303.821 508.748 304.272C509.791 304.699 510.696 305.405 511.366 306.311C512.084 307.304 512.501 308.483 512.567 309.707L513.531 320.942L509.541 321.312Z" fill="#1B4A47"/>
<path d="M525.731 320.259C524.091 320.424 522.436 320.156 520.932 319.481C519.498 318.829 518.263 317.805 517.358 316.515C516.445 315.168 515.891 313.61 515.75 311.989C515.608 310.368 515.883 308.737 516.55 307.253C517.224 305.823 518.266 304.597 519.569 303.701C520.872 302.805 522.389 302.27 523.966 302.151C525.438 301.985 526.928 302.232 528.268 302.864C529.608 303.497 530.745 304.49 531.552 305.733C532.407 307.04 532.917 308.543 533.035 310.1C533.054 310.399 533.054 310.699 533.035 310.998C533.035 311.302 533.035 311.635 532.961 312.006L518.685 313.222L518.404 309.967L530.61 308.951L529.238 310.382C529.141 309.455 528.851 308.558 528.386 307.75C527.99 307.084 527.407 306.55 526.71 306.215C525.924 305.873 525.061 305.746 524.21 305.844C523.284 305.901 522.39 306.206 521.622 306.726C520.914 307.22 520.363 307.907 520.035 308.706C519.7 309.631 519.573 310.618 519.664 311.598C519.755 312.577 520.062 313.524 520.562 314.372C521.044 315.139 521.744 315.745 522.571 316.114C523.454 316.502 524.423 316.653 525.382 316.552C526.232 316.484 527.06 316.253 527.822 315.869C528.54 315.502 529.165 314.974 529.646 314.327L532.405 316.678C531.654 317.733 530.663 318.595 529.513 319.192C528.335 319.795 527.05 320.158 525.731 320.259Z" fill="#1B4A47"/>
<path d="M536.973 318.932L535.49 301.535L539.48 301.194L540.963 318.591L536.973 318.932ZM540.133 308.951L538.701 308.38C538.45 306.497 538.803 304.584 539.71 302.915C540.16 302.184 540.786 301.579 541.531 301.154C542.276 300.729 543.116 300.498 543.974 300.482C544.783 300.404 545.599 300.497 546.37 300.757C547.159 301.049 547.873 301.512 548.461 302.114L546.08 305.013C545.763 304.721 545.382 304.505 544.968 304.383C544.523 304.264 544.061 304.229 543.603 304.279C543.096 304.303 542.599 304.429 542.142 304.65C541.684 304.87 541.276 305.18 540.941 305.562C540.585 306.043 540.33 306.592 540.191 307.174C540.052 307.756 540.032 308.361 540.133 308.951Z" fill="#1B4A47"/>
<path d="M380.532 355.371C380.219 355.405 379.903 355.374 379.603 355.279C379.303 355.185 379.026 355.029 378.789 354.823C378.319 354.397 378.028 353.809 377.975 353.178C377.921 352.546 378.109 351.918 378.5 351.419C378.916 350.939 379.503 350.64 380.136 350.586C380.769 350.532 381.398 350.727 381.889 351.13C382.358 351.554 382.643 352.145 382.683 352.776C382.753 353.405 382.572 354.037 382.178 354.533C381.978 354.781 381.728 354.983 381.444 355.127C381.161 355.272 380.85 355.355 380.532 355.371ZM380.295 376.135L378.811 358.745L382.801 358.404L384.284 375.793L380.295 376.135Z" fill="#1B4A47"/>
<path d="M388.742 375.4L387.258 358.004L391.241 357.67L392.724 375.059L388.742 375.4ZM400.666 374.384L399.806 364.344C399.78 363.816 399.647 363.298 399.415 362.823C399.183 362.347 398.857 361.924 398.457 361.578C398.051 361.232 397.578 360.975 397.067 360.823C396.556 360.671 396.019 360.628 395.49 360.696C394.768 360.744 394.07 360.979 393.466 361.378C392.899 361.757 392.451 362.289 392.175 362.913C391.88 363.576 391.765 364.305 391.841 365.026L390.21 364.285C390.078 363.055 390.272 361.812 390.773 360.681C391.262 359.618 392.031 358.708 392.998 358.048C394.002 357.358 395.172 356.948 396.387 356.862C397.617 356.735 398.856 356.977 399.947 357.559C401.002 358.122 401.901 358.937 402.565 359.932C403.216 360.884 403.612 361.987 403.714 363.135L404.641 374.043L400.666 374.384Z" fill="#1B4A47"/>
<path d="M406.014 360.058L405.702 356.432L418.02 355.379L418.332 359.005L406.014 360.058ZM411.353 373.465L409.247 348.831L413.237 348.49L415.343 373.124L411.353 373.465Z" fill="#1B4A47"/>
<path d="M430.524 372.197C428.884 372.362 427.229 372.093 425.725 371.418C424.291 370.766 423.056 369.742 422.151 368.452C421.238 367.105 420.684 365.547 420.542 363.926C420.401 362.305 420.676 360.675 421.342 359.19C422.017 357.76 423.059 356.535 424.362 355.639C425.665 354.742 427.182 354.207 428.759 354.089C430.265 353.922 431.788 354.179 433.156 354.83C434.455 355.469 435.559 356.444 436.353 357.655C437.198 358.965 437.695 360.468 437.799 362.023C437.821 362.322 437.821 362.622 437.799 362.92C437.799 363.224 437.762 363.558 437.725 363.929L423.441 365.145L423.167 361.89L435.396 360.859L434.017 362.29C433.919 361.364 433.631 360.467 433.171 359.658C432.773 358.991 432.188 358.458 431.488 358.123C430.704 357.781 429.845 357.653 428.996 357.752C428.07 357.809 427.176 358.114 426.408 358.634C425.699 359.128 425.148 359.815 424.821 360.614C424.484 361.538 424.356 362.525 424.446 363.505C424.536 364.484 424.841 365.432 425.34 366.28C425.827 367.045 426.528 367.651 427.357 368.022C428.24 368.41 429.209 368.561 430.168 368.46C431.018 368.396 431.847 368.164 432.607 367.777C433.326 367.41 433.95 366.882 434.432 366.235L437.183 368.586C436.437 369.643 435.448 370.505 434.298 371.1C433.125 371.712 431.842 372.086 430.524 372.197Z" fill="#1B4A47"/>
<path d="M441.759 370.87L440.276 353.473L444.258 353.139L445.741 370.528L441.759 370.87ZM444.896 360.859L443.457 360.288C443.212 358.405 443.568 356.492 444.473 354.823C444.923 354.092 445.55 353.487 446.295 353.062C447.04 352.637 447.88 352.406 448.738 352.39C449.546 352.312 450.363 352.405 451.133 352.665C451.921 352.955 452.633 353.419 453.217 354.022L450.829 356.914C450.514 356.618 450.132 356.402 449.716 356.283C449.002 356.108 448.254 356.125 447.548 356.332C446.842 356.539 446.204 356.929 445.697 357.462C445.342 357.945 445.087 358.495 444.95 359.079C444.812 359.662 444.794 360.268 444.896 360.859Z" fill="#1B4A47"/>
<path d="M463.317 369.394C461.814 369.542 460.3 369.253 458.957 368.563C457.621 367.879 456.488 366.856 455.671 365.597C454.825 364.236 454.312 362.695 454.176 361.098C454.039 359.501 454.282 357.894 454.885 356.41C455.475 355.019 456.415 353.806 457.614 352.887C458.817 351.972 460.26 351.426 461.767 351.315C462.996 351.183 464.238 351.372 465.371 351.864C466.428 352.325 467.342 353.06 468.019 353.992C468.72 354.955 469.134 356.096 469.213 357.285L469.643 362.283C469.76 363.465 469.552 364.657 469.042 365.731C468.545 366.764 467.776 367.643 466.818 368.274C465.765 368.938 464.56 369.323 463.317 369.394ZM463.644 365.568C464.313 365.537 464.969 365.361 465.564 365.053C466.159 364.744 466.681 364.31 467.092 363.78C467.926 362.654 468.295 361.249 468.123 359.858C468.062 358.902 467.77 357.976 467.27 357.159C466.819 356.42 466.169 355.824 465.394 355.438C464.568 355.045 463.649 354.889 462.739 354.986C461.841 355.043 460.978 355.352 460.247 355.876C459.541 356.386 458.994 357.085 458.667 357.893C458.323 358.786 458.186 359.747 458.267 360.701C458.348 361.656 458.645 362.579 459.135 363.402C459.6 364.135 460.257 364.727 461.033 365.115C461.844 365.506 462.748 365.662 463.644 365.568ZM468.612 368.578L468.212 363.899L468.538 359.606L467.492 355.46L467.144 351.219L471.126 350.878L472.61 368.274L468.612 368.578Z" fill="#1B4A47"/>
<path d="M485.061 367.533C483.432 367.695 481.789 367.421 480.3 366.739C478.872 366.082 477.644 365.059 476.74 363.773C475.822 362.44 475.274 360.886 475.153 359.272C474.988 357.654 475.265 356.021 475.954 354.548C476.617 353.134 477.64 351.919 478.921 351.026C480.27 350.099 481.842 349.549 483.474 349.432C484.777 349.31 486.091 349.464 487.33 349.884C488.524 350.293 489.609 350.967 490.505 351.856L488.124 354.726C487.58 354.179 486.914 353.767 486.181 353.525C485.412 353.282 484.603 353.197 483.8 353.273C482.879 353.333 481.992 353.643 481.235 354.17C480.52 354.667 479.958 355.352 479.61 356.15C479.265 357.027 479.128 357.972 479.209 358.911C479.29 359.851 479.587 360.758 480.078 361.563C480.548 362.302 481.22 362.891 482.013 363.261C482.85 363.654 483.779 363.808 484.698 363.706C485.501 363.649 486.283 363.427 486.997 363.054C487.675 362.699 488.262 362.191 488.71 361.571L491.543 363.996C490.806 365.023 489.848 365.872 488.74 366.48C487.601 367.084 486.347 367.443 485.061 367.533Z" fill="#1B4A47"/>
<path d="M491.973 352.702L491.662 349.076L503.98 348.023L504.291 351.649L491.973 352.702ZM497.313 366.116L495.207 341.475L499.196 341.134L501.302 365.775L497.313 366.116Z" fill="#1B4A47"/>
<path d="M508.674 344.419C508.362 344.457 508.045 344.428 507.745 344.335C507.444 344.242 507.167 344.086 506.931 343.878C506.462 343.452 506.171 342.864 506.117 342.233C506.063 341.601 506.251 340.973 506.642 340.474C507.056 339.991 507.643 339.69 508.277 339.635C508.911 339.581 509.541 339.779 510.031 340.185C510.5 340.609 510.785 341.2 510.825 341.831C510.896 342.46 510.714 343.092 510.32 343.588C510.121 343.836 509.871 344.039 509.587 344.182C509.303 344.325 508.992 344.406 508.674 344.419ZM508.437 365.182L506.953 347.793L510.943 347.452L512.426 364.841L508.437 365.182Z" fill="#1B4A47"/>
<path d="M524.848 364.136C523.236 364.291 521.611 364.006 520.147 363.313C518.724 362.648 517.498 361.626 516.587 360.347C515.652 359.021 515.096 357.465 514.978 355.846C514.814 354.243 515.099 352.625 515.801 351.174C516.474 349.767 517.495 348.555 518.767 347.652C520.092 346.719 521.645 346.163 523.261 346.043C524.886 345.886 526.524 346.162 528.008 346.844C529.43 347.507 530.654 348.529 531.56 349.81C532.488 351.121 533.044 352.658 533.169 354.259C533.324 355.874 533.039 357.501 532.346 358.968C531.666 360.426 530.609 361.675 529.285 362.588C527.96 363.5 526.416 364.043 524.811 364.159L524.848 364.136ZM524.522 360.295C525.444 360.231 526.333 359.921 527.095 359.398C527.812 358.892 528.37 358.192 528.705 357.381C529.066 356.504 529.206 355.552 529.113 354.608C529.049 353.671 528.745 352.767 528.23 351.983C527.733 351.24 527.041 350.65 526.229 350.276C525.418 349.902 524.519 349.758 523.632 349.862C522.722 349.923 521.845 350.231 521.096 350.752C520.386 351.251 519.826 351.936 519.479 352.732C519.112 353.594 518.972 354.536 519.071 355.468C519.138 356.413 519.436 357.327 519.939 358.13C520.407 358.875 521.079 359.469 521.875 359.843C522.699 360.232 523.615 360.388 524.522 360.295Z" fill="#1B4A47"/>
<path d="M537.248 362.713L535.765 345.316L539.747 344.975L541.23 362.372L537.248 362.713ZM549.173 361.689L548.313 351.656C548.287 351.127 548.154 350.608 547.922 350.131C547.69 349.655 547.364 349.23 546.963 348.883C546.557 348.538 546.083 348.282 545.572 348.132C545.061 347.981 544.525 347.939 543.996 348.008C543.273 348.053 542.575 348.289 541.972 348.69C541.405 349.069 540.958 349.602 540.681 350.225C540.387 350.886 540.272 351.612 540.348 352.331L538.716 351.59C538.588 350.357 538.783 349.113 539.28 347.978C539.771 346.916 540.539 346.007 541.505 345.346C542.508 344.655 543.679 344.247 544.894 344.167C546.126 344.036 547.369 344.279 548.461 344.864C549.512 345.427 550.408 346.239 551.071 347.229C551.723 348.181 552.118 349.284 552.221 350.433L553.17 361.348L549.173 361.689Z" fill="#1B4A47"/>
<path d="M562.937 360.859C561.993 360.943 561.042 360.895 560.111 360.718C559.223 360.547 558.364 360.25 557.56 359.835C556.777 359.439 556.065 358.916 555.454 358.286L557.775 355.535C558.403 356.16 559.164 356.636 560 356.929C560.87 357.223 561.794 357.324 562.707 357.225C563.41 357.208 564.096 357.012 564.702 356.654C564.904 356.527 565.067 356.346 565.172 356.131C565.277 355.916 565.319 355.676 565.295 355.438C565.283 355.195 565.208 354.958 565.078 354.752C564.949 354.545 564.768 354.376 564.554 354.259C564.006 353.975 563.418 353.775 562.811 353.666L560.586 353.214C559.819 353.049 559.073 352.8 558.361 352.472C557.649 352.166 557.024 351.687 556.544 351.078C556.016 350.356 555.712 349.495 555.669 348.601C555.56 347.593 555.748 346.575 556.211 345.672C556.678 344.806 557.39 344.097 558.257 343.633C559.302 343.079 560.452 342.756 561.632 342.684C562.906 342.554 564.194 342.7 565.406 343.114C566.527 343.516 567.524 344.204 568.299 345.108L565.977 347.86C565.458 347.293 564.811 346.857 564.09 346.589C563.37 346.321 562.596 346.228 561.832 346.317C561.192 346.34 560.568 346.521 560.015 346.844C559.825 346.954 559.67 347.117 559.57 347.313C559.47 347.509 559.429 347.73 559.451 347.949C559.465 348.178 559.541 348.398 559.672 348.587C559.803 348.775 559.983 348.924 560.193 349.016C560.746 349.276 561.333 349.458 561.936 349.558C562.677 349.691 563.419 349.84 564.161 350.01C564.929 350.169 565.676 350.418 566.385 350.752C567.101 351.08 567.727 351.576 568.21 352.198C568.742 352.94 569.046 353.821 569.085 354.734C569.181 355.493 569.102 356.264 568.854 356.987C568.606 357.711 568.195 358.368 567.654 358.909C566.366 360.103 564.692 360.795 562.937 360.859Z" fill="#1B4A47"/>
<path d="M338.268 479.861L337.957 476.235L350.275 475.182L350.586 478.808L338.268 479.861ZM343.608 493.268L341.501 468.627L345.491 468.293L347.597 492.927L343.608 493.268Z" fill="#1B4A47"/>
<path d="M354.932 471.571C354.62 471.606 354.304 471.576 354.004 471.483C353.704 471.389 353.426 471.235 353.189 471.03C352.73 470.599 352.45 470.012 352.403 469.384C352.357 468.757 352.547 468.135 352.937 467.641C353.353 467.161 353.94 466.862 354.573 466.808C355.205 466.754 355.834 466.949 356.326 467.352C356.561 467.56 356.752 467.812 356.888 468.095C357.024 468.378 357.103 468.684 357.119 468.998C357.192 469.63 357.01 470.264 356.615 470.763C356.41 471.011 356.153 471.212 355.862 471.352C355.572 471.492 355.254 471.566 354.932 471.571ZM354.702 492.334L353.219 474.938L357.208 474.596L358.692 491.993L354.702 492.334Z" fill="#1B4A47"/>
<path d="M371.18 491.281C369.553 491.444 367.911 491.167 366.427 490.48C364.994 489.831 363.763 488.806 362.867 487.514C361.963 486.171 361.417 484.62 361.279 483.007C361.142 481.394 361.417 479.773 362.081 478.297C362.736 476.878 363.761 475.661 365.047 474.774C366.397 473.844 367.972 473.294 369.608 473.18C370.909 473.058 372.22 473.212 373.457 473.632C374.653 474.04 375.741 474.715 376.638 475.605L374.258 478.475C373.715 477.922 373.045 477.51 372.307 477.273C371.542 477.026 370.734 476.941 369.934 477.021C369.012 477.079 368.122 477.386 367.361 477.911C366.652 478.412 366.093 479.096 365.744 479.891C365.4 480.769 365.263 481.715 365.343 482.655C365.422 483.595 365.717 484.504 366.204 485.312C366.679 486.046 367.349 486.634 368.14 487.01C368.979 487.394 369.906 487.548 370.824 487.455C371.627 487.394 372.409 487.172 373.123 486.802C373.804 486.452 374.392 485.943 374.836 485.319L377.706 487.662C376.974 488.693 376.015 489.543 374.903 490.146C373.757 490.784 372.488 491.171 371.18 491.281Z" fill="#1B4A47"/>
<path d="M380.792 490.095L378.567 464.007L382.557 463.666L384.782 489.753L380.792 490.095ZM391.842 489.153L383.728 480.899L390.321 471.756L395.068 471.356L387.481 481.641V479.342L396.936 488.715L391.842 489.153Z" fill="#1B4A47"/>
<path d="M406.555 488.255C404.918 488.432 403.264 488.176 401.757 487.514C400.321 486.863 399.087 485.839 398.182 484.548C397.484 483.568 396.985 482.459 396.715 481.286C396.445 480.113 396.41 478.899 396.61 477.712C396.811 476.525 397.243 475.389 397.883 474.37C398.524 473.35 399.359 472.467 400.34 471.771C401.654 470.854 403.192 470.308 404.79 470.192C406.294 470.027 407.814 470.284 409.18 470.933C410.483 471.567 411.588 472.544 412.377 473.758C413.235 475.064 413.745 476.568 413.86 478.126C413.882 478.422 413.882 478.72 413.86 479.016C413.86 479.32 413.86 479.661 413.786 480.024L399.502 481.248L399.228 477.985L411.442 476.94L410.041 478.363C409.952 477.435 409.663 476.537 409.195 475.731C408.801 475.061 408.215 474.526 407.512 474.196C406.729 473.851 405.869 473.723 405.02 473.825C404.095 473.88 403.201 474.183 402.432 474.7C401.727 475.197 401.177 475.884 400.845 476.68C400.511 477.606 400.386 478.595 400.477 479.575C400.568 480.555 400.873 481.504 401.371 482.353C401.856 483.118 402.555 483.724 403.381 484.095C404.265 484.481 405.233 484.629 406.192 484.526C407.042 484.462 407.871 484.23 408.632 483.843C409.351 483.478 409.976 482.95 410.456 482.301L413.207 484.659C412.459 485.712 411.47 486.572 410.322 487.165C409.154 487.781 407.872 488.152 406.555 488.255Z" fill="#1B4A47"/>
<path d="M415.091 473.291L414.787 469.673L427.097 468.62L427.409 472.238L415.091 473.291ZM420.423 486.706L418.317 462.064L422.299 461.723L424.405 486.365L420.423 486.706Z" fill="#1B4A47"/>
<path d="M436.85 485.668C435.906 485.751 434.955 485.704 434.024 485.527C433.134 485.358 432.273 485.063 431.465 484.652C430.686 484.25 429.977 483.724 429.367 483.094L431.681 480.343C432.31 480.968 433.07 481.447 433.905 481.745C434.777 482.032 435.699 482.133 436.612 482.041C437.314 482.02 438 481.824 438.607 481.47C438.811 481.343 438.974 481.16 439.077 480.944C439.181 480.727 439.221 480.485 439.193 480.247C439.182 480.004 439.108 479.768 438.978 479.562C438.848 479.357 438.666 479.189 438.451 479.075C437.901 478.79 437.311 478.588 436.701 478.475L434.476 478.022C433.712 477.872 432.965 477.638 432.252 477.325C431.541 477.016 430.917 476.537 430.435 475.931C429.899 475.21 429.594 474.344 429.56 473.447C429.443 472.427 429.629 471.396 430.093 470.481C430.571 469.62 431.283 468.913 432.148 468.442C433.19 467.892 434.338 467.571 435.515 467.5C436.791 467.366 438.081 467.511 439.297 467.922C440.418 468.328 441.415 469.018 442.189 469.925L439.868 472.676C439.35 472.119 438.714 471.686 438.006 471.408C437.275 471.147 436.495 471.053 435.722 471.133C435.082 471.15 434.457 471.328 433.905 471.652C433.714 471.762 433.559 471.925 433.459 472.121C433.359 472.317 433.318 472.538 433.342 472.757C433.355 472.986 433.431 473.207 433.562 473.396C433.693 473.584 433.873 473.733 434.083 473.825C434.637 474.085 435.223 474.267 435.826 474.366L438.051 474.819C438.819 474.978 439.566 475.226 440.276 475.56C440.995 475.9 441.621 476.409 442.1 477.043C442.633 477.782 442.938 478.662 442.975 479.572C443.072 480.331 442.993 481.102 442.745 481.826C442.497 482.55 442.086 483.207 441.544 483.747C440.259 484.928 438.594 485.61 436.85 485.668Z" fill="#1B4A47"/>
<path d="M9.3442 446.195C8.3974 446.137 7.46364 445.944 6.57059 445.624C5.71547 445.325 4.90853 444.903 4.17521 444.371C3.46168 443.859 2.83772 443.233 2.32861 442.517L5.04289 440.152C5.56561 440.864 6.24245 441.45 7.02297 441.865C7.83719 442.298 8.73507 442.551 9.65567 442.606C10.352 442.695 11.0594 442.603 11.7099 442.339C11.9254 442.242 12.1092 442.086 12.2403 441.89C12.3714 441.693 12.4446 441.463 12.4515 441.227C12.477 440.983 12.4376 440.737 12.3374 440.513C12.2371 440.289 12.0795 440.095 11.8805 439.952C11.3791 439.586 10.8269 439.297 10.2415 439.091L8.10572 438.313C7.37083 438.033 6.66938 437.673 6.01439 437.238C5.36112 436.823 4.81889 436.255 4.43478 435.584C4.01671 434.79 3.84866 433.887 3.95273 432.996C3.97398 431.995 4.30277 431.024 4.89448 430.217C5.48619 429.409 6.31216 428.802 7.26029 428.48C8.37347 428.092 9.55716 427.948 10.731 428.057C12.0117 428.116 13.2644 428.452 14.4019 429.044C15.4462 429.616 16.3249 430.449 16.9531 431.461L14.2462 433.826C13.8179 433.201 13.2554 432.679 12.5998 432.299C11.9144 431.927 11.154 431.714 10.375 431.676C9.73962 431.602 9.09577 431.684 8.49877 431.913C8.29142 431.993 8.11126 432.13 7.97976 432.309C7.84826 432.487 7.77099 432.7 7.75716 432.922C7.73815 433.151 7.78194 433.381 7.88385 433.588C7.98575 433.794 8.14192 433.969 8.33561 434.093C8.845 434.435 9.399 434.704 9.98198 434.894C10.6544 435.132 11.3663 435.379 12.1178 435.636C12.8611 435.919 13.5701 436.284 14.2314 436.726C14.8855 437.164 15.4268 437.751 15.811 438.439C16.225 439.251 16.3925 440.166 16.293 441.071C16.2725 441.836 16.0774 442.585 15.7226 443.263C15.3679 443.94 14.8628 444.527 14.2462 444.979C12.8093 445.956 11.0709 446.387 9.3442 446.195Z" fill="#1B4A47"/>
<path d="M19.2744 446.492L21.0098 420.36L25.007 420.627L23.2642 446.759L19.2744 446.492ZM31.2142 447.285L31.8817 437.238C31.9375 436.707 31.8848 436.17 31.7267 435.66C31.5686 435.15 31.3085 434.678 30.9621 434.271C30.6166 433.872 30.1914 433.549 29.7138 433.323C29.2362 433.097 28.7167 432.973 28.1885 432.959C27.4685 432.895 26.7443 433.023 26.0898 433.33C25.4806 433.621 24.9664 434.078 24.6066 434.65C24.219 435.26 23.9966 435.96 23.9613 436.681L22.4781 435.71C22.5347 434.472 22.9157 433.27 23.5831 432.225C24.2184 431.248 25.1082 430.464 26.1565 429.956C27.2601 429.445 28.4739 429.218 29.6874 429.296C30.901 429.374 32.0759 429.753 33.1053 430.401C34.068 431.039 34.8374 431.929 35.3301 432.974C35.8531 434.109 36.0704 435.362 35.9605 436.607L35.2189 447.53L31.2142 447.285Z" fill="#1B4A47"/>
<path d="M47.2252 448.717C45.6075 448.629 44.044 448.103 42.7015 447.196C41.3908 446.314 40.3327 445.105 39.6312 443.689C38.9106 442.238 38.5978 440.618 38.7265 439.002C38.809 437.393 39.3351 435.838 40.2467 434.509C41.1373 433.219 42.3421 432.178 43.7471 431.483C45.1972 430.757 46.8173 430.44 48.4341 430.564C50.0615 430.644 51.6383 431.155 53.0023 432.047C54.3097 432.917 55.3678 434.113 56.0726 435.517C56.7728 436.973 57.0842 438.584 56.9763 440.196C56.8685 441.807 56.345 443.363 55.457 444.712C54.5631 446.048 53.3288 447.12 51.8816 447.819C50.4345 448.518 48.827 448.817 47.2252 448.687V448.717ZM47.4848 444.868C48.4058 444.949 49.3316 444.778 50.162 444.371C50.9478 443.979 51.6062 443.373 52.0605 442.621C52.5491 441.81 52.8294 440.89 52.8763 439.944C52.9588 439.009 52.7952 438.068 52.4016 437.215C52.0345 436.429 51.4634 435.756 50.7479 435.265C49.982 434.774 49.1045 434.485 48.197 434.424C47.2895 434.363 46.3812 434.533 45.5566 434.917C44.7792 435.303 44.1226 435.896 43.6581 436.629C43.1633 437.427 42.8824 438.339 42.8424 439.277C42.7629 440.222 42.9183 441.172 43.2947 442.043C43.6494 442.847 44.2223 443.535 44.9485 444.03C45.7023 444.534 46.579 444.824 47.4848 444.868Z" fill="#1B4A47"/>
<path d="M64.3416 449.495L58.52 431.609L62.6582 431.884L66.5368 444.861L65.2983 444.816L70.7565 432.425L73.0777 432.581L76.8376 445.587L75.5769 445.469L81.139 433.115L85.2771 433.389L77.1195 450.341L74.7982 450.185L70.8826 437.823L72.1878 437.912L66.6777 449.644L64.3416 449.495Z" fill="#1B4A47"/>
<path d="M94.1911 451.846C92.5586 451.768 90.9764 451.256 89.608 450.363C88.2878 449.501 87.2266 448.296 86.5377 446.878C85.8469 445.413 85.5408 443.797 85.6485 442.182C85.7562 440.566 86.2741 439.005 87.1532 437.645C88.0299 436.343 89.2383 435.299 90.6536 434.62C92.1283 433.906 93.7668 433.599 95.3999 433.73C96.694 433.813 97.9567 434.164 99.1079 434.761C100.228 435.348 101.201 436.179 101.956 437.193L99.1672 439.67C98.7108 439.045 98.1138 438.537 97.4245 438.187C96.7025 437.829 95.9152 437.622 95.1107 437.579C94.1897 437.497 93.2639 437.669 92.4335 438.075C91.653 438.458 90.9953 439.051 90.535 439.788C90.039 440.597 89.7582 441.518 89.7192 442.465C89.6378 443.403 89.7933 444.347 90.1716 445.209C90.5293 446.007 91.1018 446.69 91.8254 447.182C92.5964 447.691 93.4905 447.983 94.4135 448.027C95.2165 448.09 96.024 447.989 96.7867 447.73C97.5175 447.479 98.1765 447.054 98.7074 446.492L101.147 449.317C100.266 450.223 99.1911 450.918 98.0029 451.349C96.7803 451.776 95.4824 451.946 94.1911 451.846Z" fill="#1B4A47"/>
<path d="M111.174 452.973C109.666 452.891 108.214 452.376 106.991 451.49C105.773 450.606 104.808 449.417 104.195 448.042C103.538 446.58 103.262 444.975 103.395 443.378C103.476 441.766 103.96 440.2 104.804 438.824C105.602 437.544 106.715 436.489 108.037 435.762C109.364 435.035 110.874 434.71 112.383 434.828C113.617 434.886 114.814 435.261 115.861 435.918C116.836 436.534 117.63 437.399 118.16 438.424C118.701 439.483 118.937 440.672 118.842 441.857L118.508 446.863C118.445 448.048 118.06 449.194 117.396 450.177C116.742 451.13 115.839 451.884 114.786 452.358C113.653 452.865 112.411 453.077 111.174 452.973ZM112.079 449.265C112.745 449.335 113.418 449.26 114.052 449.043C114.686 448.827 115.265 448.475 115.75 448.012C116.749 447.032 117.328 445.703 117.366 444.304C117.447 443.349 117.3 442.388 116.936 441.501C116.595 440.706 116.041 440.021 115.334 439.522C114.579 439.009 113.695 438.716 112.783 438.676C111.885 438.598 110.984 438.772 110.18 439.18C109.407 439.58 108.76 440.185 108.311 440.93C107.838 441.763 107.559 442.692 107.496 443.647C107.433 444.603 107.587 445.56 107.948 446.447C108.294 447.244 108.854 447.929 109.565 448.427C110.3 448.921 111.157 449.203 112.042 449.243L112.079 449.265ZM116.528 452.973L116.84 448.294L117.811 444.089L117.403 439.84L117.685 435.554L121.675 435.821L120.518 453.24L116.528 452.973Z" fill="#1B4A47"/>
<path d="M130.589 454.293C129.643 454.23 128.71 454.038 127.816 453.722C126.962 453.424 126.157 453.002 125.428 452.469C124.714 451.957 124.09 451.33 123.581 450.615L126.288 448.242C126.808 448.959 127.486 449.547 128.268 449.962C129.084 450.392 129.981 450.645 130.901 450.704C131.599 450.792 132.309 450.7 132.962 450.437C133.178 450.34 133.363 450.185 133.494 449.988C133.625 449.791 133.698 449.561 133.704 449.325C133.729 449.081 133.69 448.834 133.59 448.61C133.49 448.386 133.332 448.193 133.133 448.049C132.632 447.682 132.08 447.393 131.494 447.189L129.366 446.41C128.623 446.145 127.912 445.8 127.245 445.38C126.589 444.966 126.044 444.398 125.658 443.726C125.245 442.93 125.077 442.029 125.175 441.138C125.213 440.125 125.551 439.147 126.147 438.328C126.741 437.542 127.554 436.949 128.483 436.622C129.597 436.236 130.779 436.089 131.954 436.192C133.235 436.255 134.487 436.594 135.625 437.186C136.673 437.756 137.554 438.589 138.183 439.603L135.469 441.969C135.045 441.34 134.481 440.817 133.823 440.441C133.138 440.066 132.377 439.853 131.598 439.818C130.962 439.744 130.319 439.826 129.722 440.055C129.513 440.133 129.332 440.27 129.2 440.449C129.068 440.628 128.992 440.842 128.98 441.064C128.958 441.294 129 441.525 129.102 441.732C129.204 441.939 129.362 442.114 129.558 442.236C130.065 442.577 130.617 442.846 131.197 443.036C131.875 443.274 132.587 443.521 133.333 443.778C134.078 444.058 134.787 444.423 135.447 444.868C136.101 445.304 136.642 445.888 137.026 446.574C137.443 447.387 137.611 448.305 137.508 449.213C137.491 449.978 137.298 450.729 136.943 451.407C136.587 452.085 136.081 452.672 135.462 453.121C134.027 454.077 132.301 454.492 130.589 454.293Z" fill="#1B4A47"/>
<path d="M140.556 454.567L141.713 437.149L145.71 437.415L144.546 454.834L140.556 454.567ZM143.923 434.086C143.609 434.076 143.3 433.999 143.018 433.861C142.735 433.723 142.485 433.527 142.284 433.285C141.886 432.793 141.688 432.168 141.729 431.536C141.77 430.904 142.048 430.311 142.507 429.874C142.99 429.46 143.617 429.253 144.252 429.296C144.887 429.339 145.48 429.629 145.903 430.104C146.294 430.6 146.487 431.224 146.444 431.854C146.402 432.484 146.127 433.076 145.673 433.515C145.439 433.73 145.162 433.892 144.86 433.99C144.558 434.088 144.239 434.121 143.923 434.086Z" fill="#1B4A47"/>
<path d="M148.996 455.131L150.16 437.712L154.187 437.979L153.023 455.398L148.996 455.131ZM160.935 455.924L161.603 445.877C161.661 445.346 161.611 444.809 161.454 444.299C161.297 443.789 161.037 443.316 160.691 442.91C160.344 442.512 159.919 442.189 159.442 441.963C158.964 441.737 158.445 441.613 157.917 441.598C157.195 441.538 156.469 441.665 155.811 441.969C155.204 442.263 154.691 442.72 154.328 443.289C153.94 443.898 153.718 444.599 153.683 445.32L152.199 444.349C152.259 443.111 152.64 441.91 153.304 440.864C153.944 439.889 154.836 439.105 155.885 438.595C156.975 438.085 158.18 437.873 159.378 437.979C160.615 438.038 161.806 438.467 162.797 439.21C163.754 439.92 164.519 440.858 165.022 441.939C165.519 442.981 165.743 444.131 165.674 445.283L164.933 456.206L160.935 455.924Z" fill="#1B4A47"/>
<path d="M175.76 464.563C174.093 464.494 172.464 464.043 170.999 463.243C169.701 462.525 168.615 461.479 167.847 460.21L170.636 457.771C171.221 458.639 171.994 459.364 172.897 459.892C173.88 460.421 174.971 460.718 176.086 460.759C177.435 460.922 178.796 460.579 179.906 459.795C180.394 459.41 180.791 458.92 181.067 458.362C181.343 457.804 181.491 457.192 181.5 456.569L181.789 452.283L182.731 448.487L182.301 444.557L182.612 439.877L186.61 440.137L185.497 456.829C185.421 458.374 184.906 459.866 184.014 461.13C183.143 462.33 181.957 463.267 180.588 463.837C179.059 464.459 177.404 464.708 175.76 464.563ZM176.109 456.569C174.63 456.49 173.204 455.997 171.993 455.146C170.8 454.302 169.857 453.152 169.264 451.816C168.642 450.389 168.387 448.829 168.522 447.278C168.597 445.734 169.066 444.235 169.887 442.925C170.655 441.692 171.741 440.688 173.031 440.018C174.342 439.334 175.82 439.033 177.295 439.151C178.557 439.21 179.785 439.579 180.87 440.226C181.844 440.821 182.633 441.676 183.146 442.695C183.678 443.776 183.901 444.982 183.792 446.18L183.51 450.467C183.45 451.665 183.062 452.824 182.39 453.818C181.736 454.762 180.836 455.509 179.787 455.976C178.63 456.48 177.365 456.684 176.109 456.569ZM177.162 452.862C178.046 452.943 178.936 452.789 179.742 452.417C180.483 452.062 181.108 451.504 181.545 450.808C181.992 450.025 182.255 449.151 182.315 448.252C182.374 447.352 182.227 446.451 181.886 445.617C181.548 444.866 181.003 444.228 180.314 443.778C179.564 443.302 178.702 443.031 177.814 442.992C176.925 442.917 176.031 443.073 175.219 443.444C174.463 443.791 173.824 444.35 173.38 445.053C172.899 445.821 172.625 446.7 172.586 447.604C172.511 448.5 172.664 449.401 173.031 450.222C173.378 450.982 173.937 451.625 174.64 452.076C175.402 452.553 176.278 452.82 177.177 452.847L177.162 452.862Z" fill="#1B4A47"/>
<path d="M5.86582 489.338L0.0219727 471.452L4.16013 471.727L8.01647 484.696L6.77799 484.652L12.2362 472.261L14.5574 472.416L18.3174 485.438L17.0863 485.319L22.6483 472.965L26.7865 473.239L18.6288 490.191L16.3076 490.043L12.3919 477.674L13.6972 477.763L8.17962 489.494L5.86582 489.338Z" fill="#1B4A47"/>
<path d="M35.6562 491.681C34.039 491.608 32.4724 491.096 31.125 490.198C29.8185 489.316 28.7632 488.11 28.0622 486.698C27.3383 485.245 27.0231 483.623 27.15 482.004C27.2346 480.398 27.7606 478.845 28.6703 477.518C29.5601 476.226 30.7649 475.182 32.1706 474.485C33.6229 473.758 35.2463 473.443 36.865 473.573C38.4625 473.653 40.0102 474.155 41.3506 475.028C42.691 475.901 43.7763 477.113 44.4961 478.541C45.2013 479.997 45.5155 481.611 45.4075 483.224C45.2996 484.838 44.7733 486.395 43.8806 487.744C43.0001 489.052 41.7936 490.107 40.3802 490.806C38.9145 491.522 37.2811 491.825 35.6562 491.681ZM35.9083 487.84C36.8291 487.918 37.7539 487.746 38.5855 487.343C39.372 486.95 40.0323 486.343 40.4914 485.593C40.9801 484.782 41.2603 483.862 41.3072 482.916C41.3904 481.981 41.2268 481.04 40.8326 480.188C40.4605 479.4 39.8876 478.725 39.1714 478.23C38.4097 477.718 37.5221 477.426 36.6054 477.385C35.696 477.312 34.7839 477.486 33.9653 477.889C33.1848 478.271 32.5271 478.865 32.0668 479.602C31.5742 480.398 31.2933 481.306 31.2511 482.242C31.1716 483.187 31.327 484.137 31.7034 485.008C32.0585 485.811 32.6313 486.5 33.3572 486.995C34.1166 487.5 34.9976 487.792 35.9083 487.84Z" fill="#1B4A47"/>
<path d="M48.1377 492.149L49.302 474.73L53.2918 474.997L52.1349 492.416L48.1377 492.149ZM52.7801 482.731L51.4453 481.945C51.4849 480.046 52.1234 478.209 53.2696 476.695C53.825 476.041 54.5358 475.538 55.3367 475.231C56.1375 474.924 57.0027 474.823 57.8527 474.938C58.665 474.979 59.459 475.194 60.1814 475.568C60.9148 475.977 61.5501 476.541 62.0428 477.221L59.2618 479.735C58.9958 479.393 58.6527 479.119 58.2606 478.934C57.8403 478.753 57.3904 478.65 56.9331 478.63C56.4216 478.576 55.9044 478.625 55.4125 478.776C54.9206 478.926 54.4642 479.174 54.0705 479.505C53.6474 479.928 53.3137 480.431 53.0895 480.985C52.8652 481.54 52.755 482.133 52.7653 482.731H52.7801Z" fill="#1B4A47"/>
<path d="M62.8955 493.135L64.6383 467.01L68.6281 467.27L66.8853 493.402L62.8955 493.135ZM73.9677 493.877L67.1894 484.496L75.0875 476.458L79.8412 476.777L70.7862 485.794L71.1199 483.517L79.0477 494.218L73.9677 493.877Z" fill="#1B4A47"/>
<path d="M437.176 119.302C435.789 118.692 434.607 117.696 433.772 116.432C432.947 115.174 432.466 113.722 432.377 112.22C432.305 110.615 432.615 109.016 433.282 107.554C433.948 106.092 434.953 104.809 436.211 103.811C437.408 102.88 438.827 102.277 440.327 102.061C441.826 101.848 443.355 102.077 444.725 102.721C445.855 103.207 446.842 103.973 447.595 104.946C448.285 105.867 448.72 106.954 448.856 108.097C448.992 109.28 448.792 110.478 448.277 111.553L446.193 116.15C445.714 117.239 444.944 118.175 443.969 118.857C443.019 119.511 441.909 119.896 440.758 119.969C439.526 120.052 438.294 119.823 437.176 119.302ZM439.341 116.15C439.939 116.452 440.596 116.621 441.266 116.644C441.935 116.667 442.602 116.544 443.22 116.284C444.502 115.713 445.514 114.669 446.045 113.369C446.461 112.508 446.662 111.559 446.631 110.604C446.597 109.737 446.322 108.898 445.838 108.179C445.308 107.434 444.585 106.85 443.746 106.488C442.952 106.096 442.063 105.937 441.182 106.03C440.301 106.123 439.465 106.465 438.77 107.014C438.023 107.605 437.43 108.369 437.042 109.239C436.626 110.105 436.432 111.06 436.478 112.02C436.518 112.887 436.798 113.727 437.287 114.445C437.797 115.195 438.509 115.786 439.341 116.15ZM442.189 121.208L444.154 116.892L446.549 113.31L447.669 109.187L449.449 105.279L453.053 106.963L445.83 122.824L442.189 121.208Z" fill="#1B4A47"/>
<path d="M446.854 131.307L457.11 108.802L460.751 110.463L458.808 114.734L456.413 118.316L455.278 122.446L450.473 132.968L446.854 131.307ZM458.245 128.897C457.109 128.413 456.117 127.647 455.36 126.673C454.65 125.743 454.211 124.635 454.094 123.471C453.976 122.307 454.183 121.134 454.692 120.08L456.769 115.513C457.246 114.422 458.016 113.485 458.994 112.806C459.948 112.16 461.056 111.779 462.205 111.701C463.433 111.624 464.661 111.861 465.772 112.391C467.155 113.001 468.33 114.001 469.154 115.268C469.973 116.536 470.45 117.995 470.54 119.502C470.612 121.106 470.302 122.704 469.636 124.165C468.969 125.626 467.965 126.907 466.706 127.904C465.516 128.825 464.104 129.416 462.613 129.617C461.118 129.799 459.602 129.549 458.245 128.897ZM459.223 125.19C460.018 125.582 460.907 125.741 461.788 125.647C462.669 125.554 463.505 125.213 464.2 124.663C464.945 124.072 465.535 123.309 465.92 122.439C466.338 121.576 466.535 120.623 466.491 119.665C466.448 118.781 466.161 117.926 465.661 117.196C465.144 116.458 464.433 115.878 463.606 115.52C462.787 115.13 461.877 114.971 460.974 115.06C460.108 115.156 459.288 115.495 458.608 116.039C457.865 116.644 457.28 117.42 456.902 118.301C456.483 119.164 456.282 120.116 456.316 121.074C456.35 121.943 456.63 122.784 457.125 123.499C457.648 124.242 458.366 124.824 459.201 125.182L459.223 125.19Z" fill="#1B4A47"/>
<path d="M466.046 140.058L476.31 117.559L479.944 119.213L478.001 123.484L475.606 127.066L474.486 131.196L469.688 141.719L466.046 140.058ZM477.415 137.655C476.281 137.169 475.289 136.403 474.53 135.43C473.82 134.5 473.381 133.39 473.263 132.225C473.145 131.06 473.353 129.885 473.863 128.831L475.947 124.263C476.419 123.171 477.19 122.235 478.172 121.564C479.129 120.913 480.243 120.529 481.398 120.451C482.626 120.378 483.853 120.615 484.965 121.141C486.346 121.753 487.521 122.753 488.346 124.018C489.168 125.286 489.645 126.745 489.733 128.252C489.826 129.864 489.512 131.473 488.821 132.931C488.173 134.393 487.169 135.668 485.899 136.639C484.709 137.561 483.297 138.152 481.805 138.352C480.305 138.545 478.782 138.303 477.415 137.655ZM478.394 133.947C479.204 134.342 480.109 134.499 481.005 134.4C481.869 134.301 482.689 133.962 483.37 133.421C484.12 132.832 484.714 132.068 485.098 131.196C485.511 130.329 485.704 129.374 485.662 128.415C485.619 127.546 485.339 126.705 484.853 125.983C484.321 125.256 483.61 124.677 482.789 124.303C481.968 123.929 481.065 123.772 480.167 123.847C479.3 123.943 478.479 124.285 477.801 124.834C477.073 125.452 476.49 126.223 476.094 127.092C475.698 127.961 475.498 128.906 475.509 129.861C475.543 130.73 475.823 131.571 476.318 132.286C476.841 133.023 477.56 133.598 478.394 133.947Z" fill="#1B4A47"/>
<path d="M495.384 145.812C493.896 145.159 492.614 144.113 491.676 142.786C490.763 141.499 490.201 139.996 490.045 138.426C489.883 136.812 490.162 135.185 490.853 133.717C491.5 132.242 492.542 130.975 493.864 130.054C495.152 129.16 496.649 128.611 498.21 128.46C499.824 128.299 501.451 128.578 502.919 129.268C504.385 129.908 505.655 130.925 506.6 132.216C507.545 133.507 508.13 135.026 508.295 136.617C508.463 138.225 508.185 139.849 507.494 141.311C506.842 142.797 505.799 144.078 504.476 145.018C503.185 145.93 501.681 146.492 500.108 146.65C498.487 146.8 496.855 146.511 495.384 145.812ZM496.986 142.304C497.818 142.705 498.744 142.871 499.663 142.786C500.537 142.699 501.368 142.365 502.059 141.822C502.806 141.235 503.395 140.471 503.772 139.598C504.182 138.752 504.361 137.813 504.291 136.876C504.226 136.011 503.932 135.179 503.438 134.466C502.893 133.733 502.171 133.15 501.34 132.772C500.509 132.393 499.595 132.231 498.684 132.301C497.819 132.383 496.994 132.707 496.304 133.235C495.55 133.805 494.957 134.562 494.583 135.43C494.174 136.285 493.985 137.228 494.034 138.174C494.079 139.052 494.369 139.9 494.872 140.621C495.407 141.375 496.138 141.968 496.986 142.334V142.304Z" fill="#1B4A47"/>
<path d="M506.916 150.699L514.162 134.822L517.803 136.476L510.557 152.36L506.916 150.699ZM517.298 132.739C517.007 132.618 516.744 132.436 516.528 132.206C516.312 131.976 516.147 131.702 516.045 131.404C515.845 130.803 515.88 130.148 516.142 129.572C516.405 128.995 516.877 128.54 517.462 128.297C517.754 128.182 518.068 128.129 518.382 128.142C518.696 128.155 519.004 128.233 519.286 128.371C519.58 128.49 519.846 128.671 520.065 128.901C520.283 129.131 520.45 129.406 520.554 129.706C520.744 130.308 520.705 130.959 520.443 131.534C520.182 132.11 519.717 132.567 519.138 132.82C518.845 132.936 518.531 132.989 518.217 132.975C517.902 132.961 517.594 132.88 517.313 132.739H517.298Z" fill="#1B4A47"/>
<path d="M514.606 154.221L521.852 138.337L525.493 139.998L518.248 155.875L514.606 154.221ZM525.515 159.16L529.698 149.994C529.933 149.52 530.071 149.003 530.103 148.474C530.134 147.946 530.06 147.416 529.883 146.917C529.7 146.419 529.415 145.964 529.048 145.582C528.68 145.199 528.238 144.896 527.748 144.692C527.097 144.382 526.376 144.246 525.656 144.299C524.976 144.354 524.324 144.595 523.773 144.996C523.196 145.433 522.742 146.01 522.453 146.672L521.392 145.233C521.879 144.096 522.66 143.108 523.654 142.371C524.593 141.681 525.704 141.26 526.865 141.155C528.077 141.047 529.296 141.264 530.395 141.785C531.531 142.291 532.489 143.125 533.147 144.181C533.785 145.188 534.166 146.336 534.259 147.525C534.356 148.675 534.159 149.831 533.688 150.884L529.142 160.843L525.515 159.16Z" fill="#1B4A47"/>
<path d="M535.283 163.609L545.539 141.111L549.18 142.772L538.924 165.27L535.283 163.609ZM537.211 149.305L538.694 145.99L549.952 151.121L548.468 154.436L537.211 149.305Z" fill="#1B4A47"/>
<path d="M545.376 168.236L552.614 152.352L556.255 154.013L549.01 169.897L545.376 168.236ZM555.929 173.049L560.245 163.609C560.48 163.161 560.614 162.668 560.637 162.163C560.66 161.658 560.572 161.154 560.379 160.687C559.971 159.791 559.24 159.081 558.332 158.7C557.721 158.409 557.05 158.267 556.374 158.285C555.746 158.311 555.137 158.511 554.616 158.863C554.046 159.264 553.599 159.816 553.326 160.457L552.273 159.011C552.745 157.898 553.515 156.936 554.498 156.231C555.413 155.598 556.481 155.222 557.59 155.14C558.754 155.064 559.918 155.286 560.972 155.786C562.04 156.254 562.974 156.983 563.686 157.906C564.362 158.784 564.783 159.831 564.902 160.932C565.014 162.151 564.788 163.377 564.25 164.476L559.57 174.732L555.929 173.049ZM566.519 177.861L570.835 168.399C571.071 167.953 571.205 167.46 571.226 166.956C571.248 166.452 571.158 165.95 570.961 165.485C570.556 164.585 569.825 163.872 568.914 163.49C568.312 163.201 567.647 163.063 566.979 163.09C566.344 163.106 565.727 163.302 565.199 163.653C564.63 164.054 564.186 164.606 563.916 165.248L562.225 163.52C562.816 162.435 563.674 161.519 564.717 160.858C565.7 160.256 566.815 159.904 567.965 159.834C569.148 159.786 570.326 160.015 571.404 160.505C572.482 160.994 573.431 161.73 574.172 162.652C574.87 163.538 575.313 164.597 575.455 165.715C575.589 166.934 575.373 168.166 574.833 169.267L570.153 179.522L566.519 177.861Z" fill="#1B4A47"/>
<path d="M581.091 184.928C579.585 184.266 578.278 183.221 577.302 181.895C576.368 180.625 575.794 179.126 575.641 177.557C575.475 175.932 575.76 174.293 576.464 172.819C577.119 171.337 578.159 170.057 579.475 169.111C580.764 168.196 582.274 167.639 583.849 167.497C585.424 167.355 587.008 167.633 588.441 168.303C589.83 168.906 591.026 169.881 591.897 171.121C592.719 172.314 593.201 173.709 593.291 175.155C593.387 176.71 593.086 178.264 592.416 179.671C592.29 179.938 592.149 180.197 591.993 180.457C591.837 180.716 591.645 180.998 591.429 181.302L578.392 175.37L579.749 172.404L590.873 177.491L588.975 178.062C589.343 177.207 589.53 176.285 589.524 175.355C589.497 174.578 589.238 173.827 588.782 173.197C588.27 172.512 587.584 171.976 586.794 171.647C585.958 171.241 585.029 171.067 584.102 171.143C583.245 171.226 582.429 171.552 581.751 172.085C581.008 172.728 580.415 173.526 580.013 174.422C579.61 175.319 579.409 176.293 579.423 177.276C579.473 178.18 579.784 179.051 580.32 179.782C580.896 180.551 581.663 181.157 582.545 181.539C583.318 181.9 584.155 182.105 585.007 182.14C585.812 182.173 586.614 182.021 587.351 181.695L588.597 185.099C587.422 185.64 586.136 185.894 584.844 185.84C583.546 185.784 582.271 185.474 581.091 184.928Z" fill="#1B4A47"/>
<path d="M591.533 189.288L598.779 173.405L602.42 175.066L595.175 190.95L591.533 189.288ZM602.427 194.249L606.603 185.114C606.84 184.641 606.978 184.125 607.01 183.598C607.042 183.07 606.966 182.541 606.788 182.044C606.607 181.545 606.324 181.09 605.958 180.707C605.592 180.324 605.149 180.022 604.66 179.819C604.007 179.503 603.283 179.365 602.561 179.419C601.88 179.475 601.228 179.719 600.677 180.123C600.099 180.558 599.644 181.135 599.357 181.799L598.297 180.353C598.78 179.223 599.546 178.237 600.521 177.491C601.465 176.803 602.577 176.382 603.74 176.274C604.952 176.167 606.17 176.385 607.27 176.905C608.4 177.405 609.359 178.225 610.029 179.263C610.673 180.267 611.055 181.417 611.141 182.607C611.241 183.757 611.045 184.914 610.57 185.966L606.024 195.925L602.427 194.249Z" fill="#1B4A47"/>
<path d="M612.187 198.706L622.451 176.215L626.092 177.876L615.828 200.382L612.187 198.706ZM614.115 184.394L615.598 181.087L626.848 186.218L625.365 189.526L614.115 184.394Z" fill="#1B4A47"/>
<path d="M626.997 205.877C626.134 205.494 625.328 204.995 624.601 204.394C623.911 203.807 623.307 203.125 622.807 202.369C622.323 201.64 621.962 200.835 621.739 199.989L625.106 198.728C625.346 199.581 625.774 200.369 626.359 201.034C626.98 201.714 627.739 202.255 628.584 202.621C629.205 202.95 629.899 203.116 630.601 203.103C630.837 203.096 631.066 203.022 631.263 202.891C631.459 202.76 631.615 202.577 631.713 202.362C631.823 202.141 631.874 201.896 631.86 201.65C631.845 201.404 631.767 201.166 631.632 200.96C631.293 200.441 630.878 199.976 630.401 199.581C629.859 199.106 629.288 198.617 628.68 198.098C628.08 197.588 627.538 197.014 627.063 196.385C626.599 195.766 626.291 195.043 626.166 194.279C626.059 193.39 626.219 192.489 626.626 191.691C627.024 190.757 627.686 189.961 628.532 189.4C629.37 188.889 630.339 188.631 631.32 188.658C632.499 188.69 633.657 188.973 634.717 189.489C635.894 189.999 636.946 190.758 637.802 191.713C638.579 192.615 639.108 193.704 639.337 194.872L635.963 196.133C635.786 195.397 635.446 194.711 634.969 194.123C634.462 193.533 633.828 193.064 633.115 192.751C632.546 192.46 631.915 192.31 631.276 192.314C631.055 192.319 630.84 192.386 630.657 192.508C630.473 192.63 630.327 192.802 630.238 193.004C630.138 193.211 630.099 193.442 630.122 193.671C630.146 193.9 630.232 194.118 630.371 194.301C630.722 194.8 631.142 195.247 631.617 195.629C632.166 196.096 632.744 196.593 633.337 197.112C633.937 197.635 634.472 198.227 634.932 198.877C635.395 199.514 635.695 200.255 635.807 201.034C635.912 201.94 635.744 202.857 635.325 203.667C635.042 204.382 634.597 205.021 634.026 205.535C633.455 206.05 632.772 206.426 632.032 206.633C630.317 206.992 628.531 206.723 626.997 205.877Z" fill="#1B4A47"/>
<path d="M41.6929 466.358C76.5112 453.989 94.7398 458.431 104.989 465.082C109.609 468.049 112.286 471.319 118.849 474.263C134.646 481.367 151.791 477.296 163.805 472.78" stroke="#B3261E" stroke-width="4" stroke-miterlimit="10" stroke-linecap="round"/>
</g>
<defs>
<clipPath id="clip0_1142_2954">
<rect width="776" height="453" fill="white" transform="translate(0 73)"/>
</clipPath>
</defs>
</svg>
